G04 #@! TF.FileFunction,Soldermask,Top*
%FSLAX46Y46*%
G04 Gerber Fmt 4.6, Leading zero omitted, Abs format (unit mm)*
G04 Created by KiCad (PCBNEW (2014-11-09 BZR 5259)-product) date Mon 22 Dec 2014 02:38:55 PM PST*
%MOMM*%
G01*
G04 APERTURE LIST*
%ADD10C,0.100000*%
%ADD11C,1.968500*%
%ADD12R,0.600000X1.500000*%
%ADD13R,0.900000X0.500000*%
%ADD14C,3.352800*%
G04 APERTURE END LIST*
D10*
D11*
X140100000Y-49878000D03*
X143600000Y-49878000D03*
X147100000Y-49878000D03*
D12*
X142055000Y-63700000D03*
X143325000Y-63700000D03*
X144595000Y-63700000D03*
X145865000Y-63700000D03*
X147135000Y-63700000D03*
X148405000Y-63700000D03*
X149675000Y-63700000D03*
X150945000Y-63700000D03*
X150945000Y-58300000D03*
X149675000Y-58300000D03*
X148405000Y-58300000D03*
X147135000Y-58300000D03*
X145865000Y-58300000D03*
X144595000Y-58300000D03*
X143325000Y-58300000D03*
X142055000Y-58300000D03*
X156055000Y-63700000D03*
X157325000Y-63700000D03*
X158595000Y-63700000D03*
X159865000Y-63700000D03*
X161135000Y-63700000D03*
X162405000Y-63700000D03*
X163675000Y-63700000D03*
X164945000Y-63700000D03*
X164945000Y-58300000D03*
X163675000Y-58300000D03*
X162405000Y-58300000D03*
X161135000Y-58300000D03*
X159865000Y-58300000D03*
X158595000Y-58300000D03*
X157325000Y-58300000D03*
X156055000Y-58300000D03*
D13*
X143327120Y-56243920D03*
X143327120Y-54743920D03*
X145869660Y-56246460D03*
X145869660Y-54746460D03*
X148412200Y-56249000D03*
X148412200Y-54749000D03*
X150934420Y-56251540D03*
X150934420Y-54751540D03*
X157327600Y-56198200D03*
X157327600Y-54698200D03*
X159867600Y-56198200D03*
X159867600Y-54698200D03*
X162407600Y-56198200D03*
X162407600Y-54698200D03*
X164871400Y-56223600D03*
X164871400Y-54723600D03*
D11*
X133731000Y-57122000D03*
X133731000Y-53622000D03*
X133731000Y-65504000D03*
X133731000Y-62004000D03*
X143355000Y-69596000D03*
X139855000Y-69596000D03*
X151737000Y-69596000D03*
X148237000Y-69596000D03*
X160119000Y-69596000D03*
X156619000Y-69596000D03*
X168501000Y-69596000D03*
X165001000Y-69596000D03*
X174625000Y-62004000D03*
X174625000Y-65504000D03*
X174625000Y-53622000D03*
X174625000Y-57122000D03*
X150600000Y-49878000D03*
X154100000Y-49878000D03*
X157600000Y-49878000D03*
X161100000Y-49878000D03*
X164600000Y-49878000D03*
X168100000Y-49878000D03*
D14*
X175260000Y-48641000D03*
X133096000Y-48641000D03*
X175260000Y-70612000D03*
X133096000Y-70612000D03*
M02*
