G04 #@! TF.FileFunction,Copper,L2,Bot,Signal*
%FSLAX46Y46*%
G04 Gerber Fmt 4.6, Leading zero omitted, Abs format (unit mm)*
G04 Created by KiCad (PCBNEW (2014-11-09 BZR 5259)-product) date Mon 22 Dec 2014 02:38:55 PM PST*
%MOMM*%
G01*
G04 APERTURE LIST*
%ADD10C,0.100000*%
%ADD11C,1.968500*%
%ADD12C,3.048000*%
%ADD13C,0.889000*%
%ADD14C,0.508000*%
%ADD15C,0.254000*%
G04 APERTURE END LIST*
D10*
D11*
X140100000Y-49878000D03*
X143600000Y-49878000D03*
X147100000Y-49878000D03*
X133731000Y-57122000D03*
X133731000Y-53622000D03*
X133731000Y-65504000D03*
X133731000Y-62004000D03*
X143355000Y-69596000D03*
X139855000Y-69596000D03*
X151737000Y-69596000D03*
X148237000Y-69596000D03*
X160119000Y-69596000D03*
X156619000Y-69596000D03*
X168501000Y-69596000D03*
X165001000Y-69596000D03*
X174625000Y-62004000D03*
X174625000Y-65504000D03*
X174625000Y-53622000D03*
X174625000Y-57122000D03*
X150600000Y-49878000D03*
X154100000Y-49878000D03*
X157600000Y-49878000D03*
X161100000Y-49878000D03*
X164600000Y-49878000D03*
X168100000Y-49878000D03*
D12*
X175260000Y-48641000D03*
X133096000Y-48641000D03*
X175260000Y-70612000D03*
X133096000Y-70612000D03*
D13*
X144627600Y-60045600D03*
X147142200Y-60172600D03*
X149682200Y-60198000D03*
X158597600Y-60198000D03*
X161137600Y-60248800D03*
X164388800Y-60452000D03*
D14*
X144627600Y-60045600D02*
X142669200Y-62004000D01*
X142669200Y-62004000D02*
X133731000Y-62004000D01*
X147142200Y-60172600D02*
X145338800Y-61976000D01*
X145338800Y-61976000D02*
X145338800Y-64112200D01*
X145338800Y-64112200D02*
X139855000Y-69596000D01*
X148237000Y-61643200D02*
X148237000Y-69596000D01*
X149682200Y-60198000D02*
X148237000Y-61643200D01*
X160528000Y-65123000D02*
X165001000Y-69596000D01*
X160528000Y-62103000D02*
X160528000Y-65123000D01*
X158623000Y-60198000D02*
X160528000Y-62103000D01*
X158597600Y-60198000D02*
X158623000Y-60198000D01*
X161137600Y-60248800D02*
X162814000Y-61925200D01*
X162814000Y-61925200D02*
X171046200Y-61925200D01*
X171046200Y-61925200D02*
X174625000Y-65504000D01*
X171269600Y-60477400D02*
X174625000Y-57122000D01*
X164414200Y-60477400D02*
X171269600Y-60477400D01*
X164388800Y-60452000D02*
X164414200Y-60477400D01*
D15*
G36*
X177877000Y-72848000D02*
X177426556Y-72848000D01*
X177426556Y-71001536D01*
X177426556Y-49030536D01*
X177410706Y-48171779D01*
X177112568Y-47452011D01*
X176791307Y-47289298D01*
X175439605Y-48641000D01*
X176791307Y-49992702D01*
X177112568Y-49829989D01*
X177426556Y-49030536D01*
X177426556Y-71001536D01*
X177410706Y-70142779D01*
X177112568Y-69423011D01*
X176791307Y-69260298D01*
X176611702Y-69439903D01*
X176611702Y-69080693D01*
X176611702Y-50172307D01*
X175260000Y-48820605D01*
X175080395Y-49000210D01*
X175080395Y-48641000D01*
X173728693Y-47289298D01*
X173407432Y-47452011D01*
X173093444Y-48251464D01*
X173109294Y-49110221D01*
X173407432Y-49829989D01*
X173728693Y-49992702D01*
X175080395Y-48641000D01*
X175080395Y-49000210D01*
X173908298Y-50172307D01*
X174071011Y-50493568D01*
X174870464Y-50807556D01*
X175729221Y-50791706D01*
X176448989Y-50493568D01*
X176611702Y-50172307D01*
X176611702Y-69080693D01*
X176448989Y-68759432D01*
X175990487Y-68579353D01*
X175990487Y-65233626D01*
X175990487Y-61733626D01*
X175990487Y-56851626D01*
X175990487Y-53351626D01*
X175783078Y-52849658D01*
X175399362Y-52465272D01*
X174897756Y-52256987D01*
X174354626Y-52256513D01*
X173852658Y-52463922D01*
X173468272Y-52847638D01*
X173259987Y-53349244D01*
X173259513Y-53892374D01*
X173466922Y-54394342D01*
X173850638Y-54778728D01*
X174352244Y-54987013D01*
X174895374Y-54987487D01*
X175397342Y-54780078D01*
X175781728Y-54396362D01*
X175990013Y-53894756D01*
X175990487Y-53351626D01*
X175990487Y-56851626D01*
X175783078Y-56349658D01*
X175399362Y-55965272D01*
X174897756Y-55756987D01*
X174354626Y-55756513D01*
X173852658Y-55963922D01*
X173468272Y-56347638D01*
X173259987Y-56849244D01*
X173259513Y-57392374D01*
X173317137Y-57531836D01*
X171006574Y-59842400D01*
X169730247Y-59842400D01*
X169730247Y-50138780D01*
X169705948Y-49495061D01*
X169506356Y-49013203D01*
X169241135Y-48916470D01*
X169061530Y-49096075D01*
X169061530Y-48736865D01*
X168964797Y-48471644D01*
X168360780Y-48247753D01*
X167717061Y-48272052D01*
X167235203Y-48471644D01*
X167138470Y-48736865D01*
X168100000Y-49698395D01*
X169061530Y-48736865D01*
X169061530Y-49096075D01*
X168279605Y-49878000D01*
X169241135Y-50839530D01*
X169506356Y-50742797D01*
X169730247Y-50138780D01*
X169730247Y-59842400D01*
X169061530Y-59842400D01*
X169061530Y-51019135D01*
X168100000Y-50057605D01*
X167920395Y-50237210D01*
X167920395Y-49878000D01*
X166958865Y-48916470D01*
X166693644Y-49013203D01*
X166469753Y-49617220D01*
X166494052Y-50260939D01*
X166693644Y-50742797D01*
X166958865Y-50839530D01*
X167920395Y-49878000D01*
X167920395Y-50237210D01*
X167138470Y-51019135D01*
X167235203Y-51284356D01*
X167839220Y-51508247D01*
X168482939Y-51483948D01*
X168964797Y-51284356D01*
X169061530Y-51019135D01*
X169061530Y-59842400D01*
X165965487Y-59842400D01*
X165965487Y-49607626D01*
X165758078Y-49105658D01*
X165374362Y-48721272D01*
X164872756Y-48512987D01*
X164329626Y-48512513D01*
X163827658Y-48719922D01*
X163443272Y-49103638D01*
X163234987Y-49605244D01*
X163234513Y-50148374D01*
X163441922Y-50650342D01*
X163825638Y-51034728D01*
X164327244Y-51243013D01*
X164870374Y-51243487D01*
X165372342Y-51036078D01*
X165756728Y-50652362D01*
X165965013Y-50150756D01*
X165965487Y-49607626D01*
X165965487Y-59842400D01*
X164946679Y-59842400D01*
X164857019Y-59752583D01*
X164553723Y-59626643D01*
X164225318Y-59626357D01*
X163921802Y-59751767D01*
X163689383Y-59983781D01*
X163563443Y-60287077D01*
X163563157Y-60615482D01*
X163688567Y-60918998D01*
X163920581Y-61151417D01*
X164223877Y-61277357D01*
X164552282Y-61277643D01*
X164855798Y-61152233D01*
X164895700Y-61112400D01*
X171269600Y-61112400D01*
X171512604Y-61064064D01*
X171718613Y-60926413D01*
X174215001Y-58430024D01*
X174352244Y-58487013D01*
X174895374Y-58487487D01*
X175397342Y-58280078D01*
X175781728Y-57896362D01*
X175990013Y-57394756D01*
X175990487Y-56851626D01*
X175990487Y-61733626D01*
X175783078Y-61231658D01*
X175399362Y-60847272D01*
X174897756Y-60638987D01*
X174354626Y-60638513D01*
X173852658Y-60845922D01*
X173468272Y-61229638D01*
X173259987Y-61731244D01*
X173259513Y-62274374D01*
X173466922Y-62776342D01*
X173850638Y-63160728D01*
X174352244Y-63369013D01*
X174895374Y-63369487D01*
X175397342Y-63162078D01*
X175781728Y-62778362D01*
X175990013Y-62276756D01*
X175990487Y-61733626D01*
X175990487Y-65233626D01*
X175783078Y-64731658D01*
X175399362Y-64347272D01*
X174897756Y-64138987D01*
X174354626Y-64138513D01*
X174215163Y-64196137D01*
X171495213Y-61476187D01*
X171289204Y-61338536D01*
X171046200Y-61290200D01*
X163077026Y-61290200D01*
X162465487Y-60678661D01*
X162465487Y-49607626D01*
X162258078Y-49105658D01*
X161874362Y-48721272D01*
X161372756Y-48512987D01*
X160829626Y-48512513D01*
X160327658Y-48719922D01*
X159943272Y-49103638D01*
X159734987Y-49605244D01*
X159734513Y-50148374D01*
X159941922Y-50650342D01*
X160325638Y-51034728D01*
X160827244Y-51243013D01*
X161370374Y-51243487D01*
X161872342Y-51036078D01*
X162256728Y-50652362D01*
X162465013Y-50150756D01*
X162465487Y-49607626D01*
X162465487Y-60678661D01*
X161963163Y-60176337D01*
X161963243Y-60085318D01*
X161837833Y-59781802D01*
X161605819Y-59549383D01*
X161302523Y-59423443D01*
X160974118Y-59423157D01*
X160670602Y-59548567D01*
X160438183Y-59780581D01*
X160312243Y-60083877D01*
X160311957Y-60412282D01*
X160437367Y-60715798D01*
X160669381Y-60948217D01*
X160972677Y-61074157D01*
X161065011Y-61074237D01*
X162364987Y-62374213D01*
X162570996Y-62511864D01*
X162814000Y-62560201D01*
X162814000Y-62560200D01*
X162814005Y-62560200D01*
X170783174Y-62560200D01*
X173316975Y-65094000D01*
X173259987Y-65231244D01*
X173259513Y-65774374D01*
X173466922Y-66276342D01*
X173850638Y-66660728D01*
X174352244Y-66869013D01*
X174895374Y-66869487D01*
X175397342Y-66662078D01*
X175781728Y-66278362D01*
X175990013Y-65776756D01*
X175990487Y-65233626D01*
X175990487Y-68579353D01*
X175649536Y-68445444D01*
X174790779Y-68461294D01*
X174071011Y-68759432D01*
X173908298Y-69080693D01*
X175260000Y-70432395D01*
X176611702Y-69080693D01*
X176611702Y-69439903D01*
X175439605Y-70612000D01*
X176791307Y-71963702D01*
X177112568Y-71800989D01*
X177426556Y-71001536D01*
X177426556Y-72848000D01*
X176611702Y-72848000D01*
X176611702Y-72143307D01*
X175260000Y-70791605D01*
X175080395Y-70971210D01*
X175080395Y-70612000D01*
X173728693Y-69260298D01*
X173407432Y-69423011D01*
X173093444Y-70222464D01*
X173109294Y-71081221D01*
X173407432Y-71800989D01*
X173728693Y-71963702D01*
X175080395Y-70612000D01*
X175080395Y-70971210D01*
X173908298Y-72143307D01*
X174071011Y-72464568D01*
X174870464Y-72778556D01*
X175729221Y-72762706D01*
X176448989Y-72464568D01*
X176611702Y-72143307D01*
X176611702Y-72848000D01*
X169866487Y-72848000D01*
X169866487Y-69325626D01*
X169659078Y-68823658D01*
X169275362Y-68439272D01*
X168773756Y-68230987D01*
X168230626Y-68230513D01*
X167728658Y-68437922D01*
X167344272Y-68821638D01*
X167135987Y-69323244D01*
X167135513Y-69866374D01*
X167342922Y-70368342D01*
X167726638Y-70752728D01*
X168228244Y-70961013D01*
X168771374Y-70961487D01*
X169273342Y-70754078D01*
X169657728Y-70370362D01*
X169866013Y-69868756D01*
X169866487Y-69325626D01*
X169866487Y-72848000D01*
X166366487Y-72848000D01*
X166366487Y-69325626D01*
X166159078Y-68823658D01*
X165775362Y-68439272D01*
X165273756Y-68230987D01*
X164730626Y-68230513D01*
X164591163Y-68288137D01*
X161163000Y-64859974D01*
X161163000Y-62103000D01*
X161114664Y-61859996D01*
X160977013Y-61653987D01*
X159423185Y-60100159D01*
X159423243Y-60034518D01*
X159297833Y-59731002D01*
X159065819Y-59498583D01*
X158965487Y-59456921D01*
X158965487Y-49607626D01*
X158758078Y-49105658D01*
X158374362Y-48721272D01*
X157872756Y-48512987D01*
X157329626Y-48512513D01*
X156827658Y-48719922D01*
X156443272Y-49103638D01*
X156234987Y-49605244D01*
X156234513Y-50148374D01*
X156441922Y-50650342D01*
X156825638Y-51034728D01*
X157327244Y-51243013D01*
X157870374Y-51243487D01*
X158372342Y-51036078D01*
X158756728Y-50652362D01*
X158965013Y-50150756D01*
X158965487Y-49607626D01*
X158965487Y-59456921D01*
X158762523Y-59372643D01*
X158434118Y-59372357D01*
X158130602Y-59497767D01*
X157898183Y-59729781D01*
X157772243Y-60033077D01*
X157771957Y-60361482D01*
X157897367Y-60664998D01*
X158129381Y-60897417D01*
X158432677Y-61023357D01*
X158550433Y-61023459D01*
X159893000Y-62366026D01*
X159893000Y-65123000D01*
X159941336Y-65366004D01*
X160078987Y-65572013D01*
X163692975Y-69186001D01*
X163635987Y-69323244D01*
X163635513Y-69866374D01*
X163842922Y-70368342D01*
X164226638Y-70752728D01*
X164728244Y-70961013D01*
X165271374Y-70961487D01*
X165773342Y-70754078D01*
X166157728Y-70370362D01*
X166366013Y-69868756D01*
X166366487Y-69325626D01*
X166366487Y-72848000D01*
X161484487Y-72848000D01*
X161484487Y-69325626D01*
X161277078Y-68823658D01*
X160893362Y-68439272D01*
X160391756Y-68230987D01*
X159848626Y-68230513D01*
X159346658Y-68437922D01*
X158962272Y-68821638D01*
X158753987Y-69323244D01*
X158753513Y-69866374D01*
X158960922Y-70368342D01*
X159344638Y-70752728D01*
X159846244Y-70961013D01*
X160389374Y-70961487D01*
X160891342Y-70754078D01*
X161275728Y-70370362D01*
X161484013Y-69868756D01*
X161484487Y-69325626D01*
X161484487Y-72848000D01*
X157984487Y-72848000D01*
X157984487Y-69325626D01*
X157777078Y-68823658D01*
X157393362Y-68439272D01*
X156891756Y-68230987D01*
X156348626Y-68230513D01*
X155846658Y-68437922D01*
X155465487Y-68818428D01*
X155465487Y-49607626D01*
X155258078Y-49105658D01*
X154874362Y-48721272D01*
X154372756Y-48512987D01*
X153829626Y-48512513D01*
X153327658Y-48719922D01*
X152943272Y-49103638D01*
X152734987Y-49605244D01*
X152734513Y-50148374D01*
X152941922Y-50650342D01*
X153325638Y-51034728D01*
X153827244Y-51243013D01*
X154370374Y-51243487D01*
X154872342Y-51036078D01*
X155256728Y-50652362D01*
X155465013Y-50150756D01*
X155465487Y-49607626D01*
X155465487Y-68818428D01*
X155462272Y-68821638D01*
X155253987Y-69323244D01*
X155253513Y-69866374D01*
X155460922Y-70368342D01*
X155844638Y-70752728D01*
X156346244Y-70961013D01*
X156889374Y-70961487D01*
X157391342Y-70754078D01*
X157775728Y-70370362D01*
X157984013Y-69868756D01*
X157984487Y-69325626D01*
X157984487Y-72848000D01*
X153102487Y-72848000D01*
X153102487Y-69325626D01*
X152895078Y-68823658D01*
X152511362Y-68439272D01*
X152009756Y-68230987D01*
X151965487Y-68230948D01*
X151965487Y-49607626D01*
X151758078Y-49105658D01*
X151374362Y-48721272D01*
X150872756Y-48512987D01*
X150329626Y-48512513D01*
X149827658Y-48719922D01*
X149443272Y-49103638D01*
X149234987Y-49605244D01*
X149234513Y-50148374D01*
X149441922Y-50650342D01*
X149825638Y-51034728D01*
X150327244Y-51243013D01*
X150870374Y-51243487D01*
X151372342Y-51036078D01*
X151756728Y-50652362D01*
X151965013Y-50150756D01*
X151965487Y-49607626D01*
X151965487Y-68230948D01*
X151466626Y-68230513D01*
X150964658Y-68437922D01*
X150580272Y-68821638D01*
X150507843Y-68996066D01*
X150507843Y-60034518D01*
X150382433Y-59731002D01*
X150150419Y-59498583D01*
X149847123Y-59372643D01*
X149518718Y-59372357D01*
X149215202Y-59497767D01*
X148982783Y-59729781D01*
X148856843Y-60033077D01*
X148856762Y-60125412D01*
X148465487Y-60516687D01*
X148465487Y-49607626D01*
X148258078Y-49105658D01*
X147874362Y-48721272D01*
X147372756Y-48512987D01*
X146829626Y-48512513D01*
X146327658Y-48719922D01*
X145943272Y-49103638D01*
X145734987Y-49605244D01*
X145734513Y-50148374D01*
X145941922Y-50650342D01*
X146325638Y-51034728D01*
X146827244Y-51243013D01*
X147370374Y-51243487D01*
X147872342Y-51036078D01*
X148256728Y-50652362D01*
X148465013Y-50150756D01*
X148465487Y-49607626D01*
X148465487Y-60516687D01*
X147967843Y-61014331D01*
X147967843Y-60009118D01*
X147842433Y-59705602D01*
X147610419Y-59473183D01*
X147307123Y-59347243D01*
X146978718Y-59346957D01*
X146675202Y-59472367D01*
X146442783Y-59704381D01*
X146316843Y-60007677D01*
X146316762Y-60100011D01*
X145453243Y-60963530D01*
X145453243Y-59882118D01*
X145327833Y-59578602D01*
X145095819Y-59346183D01*
X144965487Y-59292064D01*
X144965487Y-49607626D01*
X144758078Y-49105658D01*
X144374362Y-48721272D01*
X143872756Y-48512987D01*
X143329626Y-48512513D01*
X142827658Y-48719922D01*
X142443272Y-49103638D01*
X142234987Y-49605244D01*
X142234513Y-50148374D01*
X142441922Y-50650342D01*
X142825638Y-51034728D01*
X143327244Y-51243013D01*
X143870374Y-51243487D01*
X144372342Y-51036078D01*
X144756728Y-50652362D01*
X144965013Y-50150756D01*
X144965487Y-49607626D01*
X144965487Y-59292064D01*
X144792523Y-59220243D01*
X144464118Y-59219957D01*
X144160602Y-59345367D01*
X143928183Y-59577381D01*
X143802243Y-59880677D01*
X143802162Y-59973011D01*
X142406174Y-61369000D01*
X141465487Y-61369000D01*
X141465487Y-49607626D01*
X141258078Y-49105658D01*
X140874362Y-48721272D01*
X140372756Y-48512987D01*
X139829626Y-48512513D01*
X139327658Y-48719922D01*
X138943272Y-49103638D01*
X138734987Y-49605244D01*
X138734513Y-50148374D01*
X138941922Y-50650342D01*
X139325638Y-51034728D01*
X139827244Y-51243013D01*
X140370374Y-51243487D01*
X140872342Y-51036078D01*
X141256728Y-50652362D01*
X141465013Y-50150756D01*
X141465487Y-49607626D01*
X141465487Y-61369000D01*
X135262556Y-61369000D01*
X135262556Y-49030536D01*
X135246706Y-48171779D01*
X134948568Y-47452011D01*
X134627307Y-47289298D01*
X133275605Y-48641000D01*
X134627307Y-49992702D01*
X134948568Y-49829989D01*
X135262556Y-49030536D01*
X135262556Y-61369000D01*
X135096487Y-61369000D01*
X135096487Y-56851626D01*
X135096487Y-53351626D01*
X134889078Y-52849658D01*
X134505362Y-52465272D01*
X134447702Y-52441329D01*
X134447702Y-50172307D01*
X133096000Y-48820605D01*
X132916395Y-49000210D01*
X132916395Y-48641000D01*
X131564693Y-47289298D01*
X131243432Y-47452011D01*
X130929444Y-48251464D01*
X130945294Y-49110221D01*
X131243432Y-49829989D01*
X131564693Y-49992702D01*
X132916395Y-48641000D01*
X132916395Y-49000210D01*
X131744298Y-50172307D01*
X131907011Y-50493568D01*
X132706464Y-50807556D01*
X133565221Y-50791706D01*
X134284989Y-50493568D01*
X134447702Y-50172307D01*
X134447702Y-52441329D01*
X134003756Y-52256987D01*
X133460626Y-52256513D01*
X132958658Y-52463922D01*
X132574272Y-52847638D01*
X132365987Y-53349244D01*
X132365513Y-53892374D01*
X132572922Y-54394342D01*
X132956638Y-54778728D01*
X133458244Y-54987013D01*
X134001374Y-54987487D01*
X134503342Y-54780078D01*
X134887728Y-54396362D01*
X135096013Y-53894756D01*
X135096487Y-53351626D01*
X135096487Y-56851626D01*
X134889078Y-56349658D01*
X134505362Y-55965272D01*
X134003756Y-55756987D01*
X133460626Y-55756513D01*
X132958658Y-55963922D01*
X132574272Y-56347638D01*
X132365987Y-56849244D01*
X132365513Y-57392374D01*
X132572922Y-57894342D01*
X132956638Y-58278728D01*
X133458244Y-58487013D01*
X134001374Y-58487487D01*
X134503342Y-58280078D01*
X134887728Y-57896362D01*
X135096013Y-57394756D01*
X135096487Y-56851626D01*
X135096487Y-61369000D01*
X134945826Y-61369000D01*
X134889078Y-61231658D01*
X134505362Y-60847272D01*
X134003756Y-60638987D01*
X133460626Y-60638513D01*
X132958658Y-60845922D01*
X132574272Y-61229638D01*
X132365987Y-61731244D01*
X132365513Y-62274374D01*
X132572922Y-62776342D01*
X132956638Y-63160728D01*
X133458244Y-63369013D01*
X134001374Y-63369487D01*
X134503342Y-63162078D01*
X134887728Y-62778362D01*
X134945596Y-62639000D01*
X142669200Y-62639000D01*
X142912204Y-62590664D01*
X143118213Y-62453013D01*
X144700062Y-60871163D01*
X144791082Y-60871243D01*
X145094598Y-60745833D01*
X145327017Y-60513819D01*
X145452957Y-60210523D01*
X145453243Y-59882118D01*
X145453243Y-60963530D01*
X144889787Y-61526987D01*
X144752136Y-61732996D01*
X144703800Y-61976000D01*
X144703800Y-63849174D01*
X140264998Y-68287975D01*
X140127756Y-68230987D01*
X139584626Y-68230513D01*
X139082658Y-68437922D01*
X138698272Y-68821638D01*
X138489987Y-69323244D01*
X138489513Y-69866374D01*
X138696922Y-70368342D01*
X139080638Y-70752728D01*
X139582244Y-70961013D01*
X140125374Y-70961487D01*
X140627342Y-70754078D01*
X141011728Y-70370362D01*
X141220013Y-69868756D01*
X141220487Y-69325626D01*
X141162862Y-69186163D01*
X145787813Y-64561213D01*
X145925464Y-64355205D01*
X145925464Y-64355204D01*
X145973800Y-64112200D01*
X145973800Y-62239026D01*
X147214662Y-60998163D01*
X147305682Y-60998243D01*
X147609198Y-60872833D01*
X147841617Y-60640819D01*
X147967557Y-60337523D01*
X147967843Y-60009118D01*
X147967843Y-61014331D01*
X147787987Y-61194187D01*
X147650336Y-61400196D01*
X147602000Y-61643200D01*
X147602000Y-68381173D01*
X147464658Y-68437922D01*
X147080272Y-68821638D01*
X146871987Y-69323244D01*
X146871513Y-69866374D01*
X147078922Y-70368342D01*
X147462638Y-70752728D01*
X147964244Y-70961013D01*
X148507374Y-70961487D01*
X149009342Y-70754078D01*
X149393728Y-70370362D01*
X149602013Y-69868756D01*
X149602487Y-69325626D01*
X149395078Y-68823658D01*
X149011362Y-68439272D01*
X148872000Y-68381403D01*
X148872000Y-61906225D01*
X149754661Y-61023563D01*
X149845682Y-61023643D01*
X150149198Y-60898233D01*
X150381617Y-60666219D01*
X150507557Y-60362923D01*
X150507843Y-60034518D01*
X150507843Y-68996066D01*
X150371987Y-69323244D01*
X150371513Y-69866374D01*
X150578922Y-70368342D01*
X150962638Y-70752728D01*
X151464244Y-70961013D01*
X152007374Y-70961487D01*
X152509342Y-70754078D01*
X152893728Y-70370362D01*
X153102013Y-69868756D01*
X153102487Y-69325626D01*
X153102487Y-72848000D01*
X144720487Y-72848000D01*
X144720487Y-69325626D01*
X144513078Y-68823658D01*
X144129362Y-68439272D01*
X143627756Y-68230987D01*
X143084626Y-68230513D01*
X142582658Y-68437922D01*
X142198272Y-68821638D01*
X141989987Y-69323244D01*
X141989513Y-69866374D01*
X142196922Y-70368342D01*
X142580638Y-70752728D01*
X143082244Y-70961013D01*
X143625374Y-70961487D01*
X144127342Y-70754078D01*
X144511728Y-70370362D01*
X144720013Y-69868756D01*
X144720487Y-69325626D01*
X144720487Y-72848000D01*
X135262556Y-72848000D01*
X135262556Y-71001536D01*
X135246706Y-70142779D01*
X135096487Y-69780118D01*
X135096487Y-65233626D01*
X134889078Y-64731658D01*
X134505362Y-64347272D01*
X134003756Y-64138987D01*
X133460626Y-64138513D01*
X132958658Y-64345922D01*
X132574272Y-64729638D01*
X132365987Y-65231244D01*
X132365513Y-65774374D01*
X132572922Y-66276342D01*
X132956638Y-66660728D01*
X133458244Y-66869013D01*
X134001374Y-66869487D01*
X134503342Y-66662078D01*
X134887728Y-66278362D01*
X135096013Y-65776756D01*
X135096487Y-65233626D01*
X135096487Y-69780118D01*
X134948568Y-69423011D01*
X134627307Y-69260298D01*
X134447702Y-69439903D01*
X134447702Y-69080693D01*
X134284989Y-68759432D01*
X133485536Y-68445444D01*
X132626779Y-68461294D01*
X131907011Y-68759432D01*
X131744298Y-69080693D01*
X133096000Y-70432395D01*
X134447702Y-69080693D01*
X134447702Y-69439903D01*
X133275605Y-70612000D01*
X134627307Y-71963702D01*
X134948568Y-71800989D01*
X135262556Y-71001536D01*
X135262556Y-72848000D01*
X134447702Y-72848000D01*
X134447702Y-72143307D01*
X133096000Y-70791605D01*
X132916395Y-70971210D01*
X132916395Y-70612000D01*
X131564693Y-69260298D01*
X131243432Y-69423011D01*
X130929444Y-70222464D01*
X130945294Y-71081221D01*
X131243432Y-71800989D01*
X131564693Y-71963702D01*
X132916395Y-70612000D01*
X132916395Y-70971210D01*
X131744298Y-72143307D01*
X131907011Y-72464568D01*
X132706464Y-72778556D01*
X133565221Y-72762706D01*
X134284989Y-72464568D01*
X134447702Y-72143307D01*
X134447702Y-72848000D01*
X130479000Y-72848000D01*
X130479000Y-46659000D01*
X132219487Y-46659000D01*
X131907011Y-46788432D01*
X131744298Y-47109693D01*
X133096000Y-48461395D01*
X134447702Y-47109693D01*
X134284989Y-46788432D01*
X133955438Y-46659000D01*
X174383487Y-46659000D01*
X174071011Y-46788432D01*
X173908298Y-47109693D01*
X175260000Y-48461395D01*
X176611702Y-47109693D01*
X176448989Y-46788432D01*
X176119438Y-46659000D01*
X177877000Y-46659000D01*
X177877000Y-72848000D01*
X177877000Y-72848000D01*
G37*
X177877000Y-72848000D02*
X177426556Y-72848000D01*
X177426556Y-71001536D01*
X177426556Y-49030536D01*
X177410706Y-48171779D01*
X177112568Y-47452011D01*
X176791307Y-47289298D01*
X175439605Y-48641000D01*
X176791307Y-49992702D01*
X177112568Y-49829989D01*
X177426556Y-49030536D01*
X177426556Y-71001536D01*
X177410706Y-70142779D01*
X177112568Y-69423011D01*
X176791307Y-69260298D01*
X176611702Y-69439903D01*
X176611702Y-69080693D01*
X176611702Y-50172307D01*
X175260000Y-48820605D01*
X175080395Y-49000210D01*
X175080395Y-48641000D01*
X173728693Y-47289298D01*
X173407432Y-47452011D01*
X173093444Y-48251464D01*
X173109294Y-49110221D01*
X173407432Y-49829989D01*
X173728693Y-49992702D01*
X175080395Y-48641000D01*
X175080395Y-49000210D01*
X173908298Y-50172307D01*
X174071011Y-50493568D01*
X174870464Y-50807556D01*
X175729221Y-50791706D01*
X176448989Y-50493568D01*
X176611702Y-50172307D01*
X176611702Y-69080693D01*
X176448989Y-68759432D01*
X175990487Y-68579353D01*
X175990487Y-65233626D01*
X175990487Y-61733626D01*
X175990487Y-56851626D01*
X175990487Y-53351626D01*
X175783078Y-52849658D01*
X175399362Y-52465272D01*
X174897756Y-52256987D01*
X174354626Y-52256513D01*
X173852658Y-52463922D01*
X173468272Y-52847638D01*
X173259987Y-53349244D01*
X173259513Y-53892374D01*
X173466922Y-54394342D01*
X173850638Y-54778728D01*
X174352244Y-54987013D01*
X174895374Y-54987487D01*
X175397342Y-54780078D01*
X175781728Y-54396362D01*
X175990013Y-53894756D01*
X175990487Y-53351626D01*
X175990487Y-56851626D01*
X175783078Y-56349658D01*
X175399362Y-55965272D01*
X174897756Y-55756987D01*
X174354626Y-55756513D01*
X173852658Y-55963922D01*
X173468272Y-56347638D01*
X173259987Y-56849244D01*
X173259513Y-57392374D01*
X173317137Y-57531836D01*
X171006574Y-59842400D01*
X169730247Y-59842400D01*
X169730247Y-50138780D01*
X169705948Y-49495061D01*
X169506356Y-49013203D01*
X169241135Y-48916470D01*
X169061530Y-49096075D01*
X169061530Y-48736865D01*
X168964797Y-48471644D01*
X168360780Y-48247753D01*
X167717061Y-48272052D01*
X167235203Y-48471644D01*
X167138470Y-48736865D01*
X168100000Y-49698395D01*
X169061530Y-48736865D01*
X169061530Y-49096075D01*
X168279605Y-49878000D01*
X169241135Y-50839530D01*
X169506356Y-50742797D01*
X169730247Y-50138780D01*
X169730247Y-59842400D01*
X169061530Y-59842400D01*
X169061530Y-51019135D01*
X168100000Y-50057605D01*
X167920395Y-50237210D01*
X167920395Y-49878000D01*
X166958865Y-48916470D01*
X166693644Y-49013203D01*
X166469753Y-49617220D01*
X166494052Y-50260939D01*
X166693644Y-50742797D01*
X166958865Y-50839530D01*
X167920395Y-49878000D01*
X167920395Y-50237210D01*
X167138470Y-51019135D01*
X167235203Y-51284356D01*
X167839220Y-51508247D01*
X168482939Y-51483948D01*
X168964797Y-51284356D01*
X169061530Y-51019135D01*
X169061530Y-59842400D01*
X165965487Y-59842400D01*
X165965487Y-49607626D01*
X165758078Y-49105658D01*
X165374362Y-48721272D01*
X164872756Y-48512987D01*
X164329626Y-48512513D01*
X163827658Y-48719922D01*
X163443272Y-49103638D01*
X163234987Y-49605244D01*
X163234513Y-50148374D01*
X163441922Y-50650342D01*
X163825638Y-51034728D01*
X164327244Y-51243013D01*
X164870374Y-51243487D01*
X165372342Y-51036078D01*
X165756728Y-50652362D01*
X165965013Y-50150756D01*
X165965487Y-49607626D01*
X165965487Y-59842400D01*
X164946679Y-59842400D01*
X164857019Y-59752583D01*
X164553723Y-59626643D01*
X164225318Y-59626357D01*
X163921802Y-59751767D01*
X163689383Y-59983781D01*
X163563443Y-60287077D01*
X163563157Y-60615482D01*
X163688567Y-60918998D01*
X163920581Y-61151417D01*
X164223877Y-61277357D01*
X164552282Y-61277643D01*
X164855798Y-61152233D01*
X164895700Y-61112400D01*
X171269600Y-61112400D01*
X171512604Y-61064064D01*
X171718613Y-60926413D01*
X174215001Y-58430024D01*
X174352244Y-58487013D01*
X174895374Y-58487487D01*
X175397342Y-58280078D01*
X175781728Y-57896362D01*
X175990013Y-57394756D01*
X175990487Y-56851626D01*
X175990487Y-61733626D01*
X175783078Y-61231658D01*
X175399362Y-60847272D01*
X174897756Y-60638987D01*
X174354626Y-60638513D01*
X173852658Y-60845922D01*
X173468272Y-61229638D01*
X173259987Y-61731244D01*
X173259513Y-62274374D01*
X173466922Y-62776342D01*
X173850638Y-63160728D01*
X174352244Y-63369013D01*
X174895374Y-63369487D01*
X175397342Y-63162078D01*
X175781728Y-62778362D01*
X175990013Y-62276756D01*
X175990487Y-61733626D01*
X175990487Y-65233626D01*
X175783078Y-64731658D01*
X175399362Y-64347272D01*
X174897756Y-64138987D01*
X174354626Y-64138513D01*
X174215163Y-64196137D01*
X171495213Y-61476187D01*
X171289204Y-61338536D01*
X171046200Y-61290200D01*
X163077026Y-61290200D01*
X162465487Y-60678661D01*
X162465487Y-49607626D01*
X162258078Y-49105658D01*
X161874362Y-48721272D01*
X161372756Y-48512987D01*
X160829626Y-48512513D01*
X160327658Y-48719922D01*
X159943272Y-49103638D01*
X159734987Y-49605244D01*
X159734513Y-50148374D01*
X159941922Y-50650342D01*
X160325638Y-51034728D01*
X160827244Y-51243013D01*
X161370374Y-51243487D01*
X161872342Y-51036078D01*
X162256728Y-50652362D01*
X162465013Y-50150756D01*
X162465487Y-49607626D01*
X162465487Y-60678661D01*
X161963163Y-60176337D01*
X161963243Y-60085318D01*
X161837833Y-59781802D01*
X161605819Y-59549383D01*
X161302523Y-59423443D01*
X160974118Y-59423157D01*
X160670602Y-59548567D01*
X160438183Y-59780581D01*
X160312243Y-60083877D01*
X160311957Y-60412282D01*
X160437367Y-60715798D01*
X160669381Y-60948217D01*
X160972677Y-61074157D01*
X161065011Y-61074237D01*
X162364987Y-62374213D01*
X162570996Y-62511864D01*
X162814000Y-62560201D01*
X162814000Y-62560200D01*
X162814005Y-62560200D01*
X170783174Y-62560200D01*
X173316975Y-65094000D01*
X173259987Y-65231244D01*
X173259513Y-65774374D01*
X173466922Y-66276342D01*
X173850638Y-66660728D01*
X174352244Y-66869013D01*
X174895374Y-66869487D01*
X175397342Y-66662078D01*
X175781728Y-66278362D01*
X175990013Y-65776756D01*
X175990487Y-65233626D01*
X175990487Y-68579353D01*
X175649536Y-68445444D01*
X174790779Y-68461294D01*
X174071011Y-68759432D01*
X173908298Y-69080693D01*
X175260000Y-70432395D01*
X176611702Y-69080693D01*
X176611702Y-69439903D01*
X175439605Y-70612000D01*
X176791307Y-71963702D01*
X177112568Y-71800989D01*
X177426556Y-71001536D01*
X177426556Y-72848000D01*
X176611702Y-72848000D01*
X176611702Y-72143307D01*
X175260000Y-70791605D01*
X175080395Y-70971210D01*
X175080395Y-70612000D01*
X173728693Y-69260298D01*
X173407432Y-69423011D01*
X173093444Y-70222464D01*
X173109294Y-71081221D01*
X173407432Y-71800989D01*
X173728693Y-71963702D01*
X175080395Y-70612000D01*
X175080395Y-70971210D01*
X173908298Y-72143307D01*
X174071011Y-72464568D01*
X174870464Y-72778556D01*
X175729221Y-72762706D01*
X176448989Y-72464568D01*
X176611702Y-72143307D01*
X176611702Y-72848000D01*
X169866487Y-72848000D01*
X169866487Y-69325626D01*
X169659078Y-68823658D01*
X169275362Y-68439272D01*
X168773756Y-68230987D01*
X168230626Y-68230513D01*
X167728658Y-68437922D01*
X167344272Y-68821638D01*
X167135987Y-69323244D01*
X167135513Y-69866374D01*
X167342922Y-70368342D01*
X167726638Y-70752728D01*
X168228244Y-70961013D01*
X168771374Y-70961487D01*
X169273342Y-70754078D01*
X169657728Y-70370362D01*
X169866013Y-69868756D01*
X169866487Y-69325626D01*
X169866487Y-72848000D01*
X166366487Y-72848000D01*
X166366487Y-69325626D01*
X166159078Y-68823658D01*
X165775362Y-68439272D01*
X165273756Y-68230987D01*
X164730626Y-68230513D01*
X164591163Y-68288137D01*
X161163000Y-64859974D01*
X161163000Y-62103000D01*
X161114664Y-61859996D01*
X160977013Y-61653987D01*
X159423185Y-60100159D01*
X159423243Y-60034518D01*
X159297833Y-59731002D01*
X159065819Y-59498583D01*
X158965487Y-59456921D01*
X158965487Y-49607626D01*
X158758078Y-49105658D01*
X158374362Y-48721272D01*
X157872756Y-48512987D01*
X157329626Y-48512513D01*
X156827658Y-48719922D01*
X156443272Y-49103638D01*
X156234987Y-49605244D01*
X156234513Y-50148374D01*
X156441922Y-50650342D01*
X156825638Y-51034728D01*
X157327244Y-51243013D01*
X157870374Y-51243487D01*
X158372342Y-51036078D01*
X158756728Y-50652362D01*
X158965013Y-50150756D01*
X158965487Y-49607626D01*
X158965487Y-59456921D01*
X158762523Y-59372643D01*
X158434118Y-59372357D01*
X158130602Y-59497767D01*
X157898183Y-59729781D01*
X157772243Y-60033077D01*
X157771957Y-60361482D01*
X157897367Y-60664998D01*
X158129381Y-60897417D01*
X158432677Y-61023357D01*
X158550433Y-61023459D01*
X159893000Y-62366026D01*
X159893000Y-65123000D01*
X159941336Y-65366004D01*
X160078987Y-65572013D01*
X163692975Y-69186001D01*
X163635987Y-69323244D01*
X163635513Y-69866374D01*
X163842922Y-70368342D01*
X164226638Y-70752728D01*
X164728244Y-70961013D01*
X165271374Y-70961487D01*
X165773342Y-70754078D01*
X166157728Y-70370362D01*
X166366013Y-69868756D01*
X166366487Y-69325626D01*
X166366487Y-72848000D01*
X161484487Y-72848000D01*
X161484487Y-69325626D01*
X161277078Y-68823658D01*
X160893362Y-68439272D01*
X160391756Y-68230987D01*
X159848626Y-68230513D01*
X159346658Y-68437922D01*
X158962272Y-68821638D01*
X158753987Y-69323244D01*
X158753513Y-69866374D01*
X158960922Y-70368342D01*
X159344638Y-70752728D01*
X159846244Y-70961013D01*
X160389374Y-70961487D01*
X160891342Y-70754078D01*
X161275728Y-70370362D01*
X161484013Y-69868756D01*
X161484487Y-69325626D01*
X161484487Y-72848000D01*
X157984487Y-72848000D01*
X157984487Y-69325626D01*
X157777078Y-68823658D01*
X157393362Y-68439272D01*
X156891756Y-68230987D01*
X156348626Y-68230513D01*
X155846658Y-68437922D01*
X155465487Y-68818428D01*
X155465487Y-49607626D01*
X155258078Y-49105658D01*
X154874362Y-48721272D01*
X154372756Y-48512987D01*
X153829626Y-48512513D01*
X153327658Y-48719922D01*
X152943272Y-49103638D01*
X152734987Y-49605244D01*
X152734513Y-50148374D01*
X152941922Y-50650342D01*
X153325638Y-51034728D01*
X153827244Y-51243013D01*
X154370374Y-51243487D01*
X154872342Y-51036078D01*
X155256728Y-50652362D01*
X155465013Y-50150756D01*
X155465487Y-49607626D01*
X155465487Y-68818428D01*
X155462272Y-68821638D01*
X155253987Y-69323244D01*
X155253513Y-69866374D01*
X155460922Y-70368342D01*
X155844638Y-70752728D01*
X156346244Y-70961013D01*
X156889374Y-70961487D01*
X157391342Y-70754078D01*
X157775728Y-70370362D01*
X157984013Y-69868756D01*
X157984487Y-69325626D01*
X157984487Y-72848000D01*
X153102487Y-72848000D01*
X153102487Y-69325626D01*
X152895078Y-68823658D01*
X152511362Y-68439272D01*
X152009756Y-68230987D01*
X151965487Y-68230948D01*
X151965487Y-49607626D01*
X151758078Y-49105658D01*
X151374362Y-48721272D01*
X150872756Y-48512987D01*
X150329626Y-48512513D01*
X149827658Y-48719922D01*
X149443272Y-49103638D01*
X149234987Y-49605244D01*
X149234513Y-50148374D01*
X149441922Y-50650342D01*
X149825638Y-51034728D01*
X150327244Y-51243013D01*
X150870374Y-51243487D01*
X151372342Y-51036078D01*
X151756728Y-50652362D01*
X151965013Y-50150756D01*
X151965487Y-49607626D01*
X151965487Y-68230948D01*
X151466626Y-68230513D01*
X150964658Y-68437922D01*
X150580272Y-68821638D01*
X150507843Y-68996066D01*
X150507843Y-60034518D01*
X150382433Y-59731002D01*
X150150419Y-59498583D01*
X149847123Y-59372643D01*
X149518718Y-59372357D01*
X149215202Y-59497767D01*
X148982783Y-59729781D01*
X148856843Y-60033077D01*
X148856762Y-60125412D01*
X148465487Y-60516687D01*
X148465487Y-49607626D01*
X148258078Y-49105658D01*
X147874362Y-48721272D01*
X147372756Y-48512987D01*
X146829626Y-48512513D01*
X146327658Y-48719922D01*
X145943272Y-49103638D01*
X145734987Y-49605244D01*
X145734513Y-50148374D01*
X145941922Y-50650342D01*
X146325638Y-51034728D01*
X146827244Y-51243013D01*
X147370374Y-51243487D01*
X147872342Y-51036078D01*
X148256728Y-50652362D01*
X148465013Y-50150756D01*
X148465487Y-49607626D01*
X148465487Y-60516687D01*
X147967843Y-61014331D01*
X147967843Y-60009118D01*
X147842433Y-59705602D01*
X147610419Y-59473183D01*
X147307123Y-59347243D01*
X146978718Y-59346957D01*
X146675202Y-59472367D01*
X146442783Y-59704381D01*
X146316843Y-60007677D01*
X146316762Y-60100011D01*
X145453243Y-60963530D01*
X145453243Y-59882118D01*
X145327833Y-59578602D01*
X145095819Y-59346183D01*
X144965487Y-59292064D01*
X144965487Y-49607626D01*
X144758078Y-49105658D01*
X144374362Y-48721272D01*
X143872756Y-48512987D01*
X143329626Y-48512513D01*
X142827658Y-48719922D01*
X142443272Y-49103638D01*
X142234987Y-49605244D01*
X142234513Y-50148374D01*
X142441922Y-50650342D01*
X142825638Y-51034728D01*
X143327244Y-51243013D01*
X143870374Y-51243487D01*
X144372342Y-51036078D01*
X144756728Y-50652362D01*
X144965013Y-50150756D01*
X144965487Y-49607626D01*
X144965487Y-59292064D01*
X144792523Y-59220243D01*
X144464118Y-59219957D01*
X144160602Y-59345367D01*
X143928183Y-59577381D01*
X143802243Y-59880677D01*
X143802162Y-59973011D01*
X142406174Y-61369000D01*
X141465487Y-61369000D01*
X141465487Y-49607626D01*
X141258078Y-49105658D01*
X140874362Y-48721272D01*
X140372756Y-48512987D01*
X139829626Y-48512513D01*
X139327658Y-48719922D01*
X138943272Y-49103638D01*
X138734987Y-49605244D01*
X138734513Y-50148374D01*
X138941922Y-50650342D01*
X139325638Y-51034728D01*
X139827244Y-51243013D01*
X140370374Y-51243487D01*
X140872342Y-51036078D01*
X141256728Y-50652362D01*
X141465013Y-50150756D01*
X141465487Y-49607626D01*
X141465487Y-61369000D01*
X135262556Y-61369000D01*
X135262556Y-49030536D01*
X135246706Y-48171779D01*
X134948568Y-47452011D01*
X134627307Y-47289298D01*
X133275605Y-48641000D01*
X134627307Y-49992702D01*
X134948568Y-49829989D01*
X135262556Y-49030536D01*
X135262556Y-61369000D01*
X135096487Y-61369000D01*
X135096487Y-56851626D01*
X135096487Y-53351626D01*
X134889078Y-52849658D01*
X134505362Y-52465272D01*
X134447702Y-52441329D01*
X134447702Y-50172307D01*
X133096000Y-48820605D01*
X132916395Y-49000210D01*
X132916395Y-48641000D01*
X131564693Y-47289298D01*
X131243432Y-47452011D01*
X130929444Y-48251464D01*
X130945294Y-49110221D01*
X131243432Y-49829989D01*
X131564693Y-49992702D01*
X132916395Y-48641000D01*
X132916395Y-49000210D01*
X131744298Y-50172307D01*
X131907011Y-50493568D01*
X132706464Y-50807556D01*
X133565221Y-50791706D01*
X134284989Y-50493568D01*
X134447702Y-50172307D01*
X134447702Y-52441329D01*
X134003756Y-52256987D01*
X133460626Y-52256513D01*
X132958658Y-52463922D01*
X132574272Y-52847638D01*
X132365987Y-53349244D01*
X132365513Y-53892374D01*
X132572922Y-54394342D01*
X132956638Y-54778728D01*
X133458244Y-54987013D01*
X134001374Y-54987487D01*
X134503342Y-54780078D01*
X134887728Y-54396362D01*
X135096013Y-53894756D01*
X135096487Y-53351626D01*
X135096487Y-56851626D01*
X134889078Y-56349658D01*
X134505362Y-55965272D01*
X134003756Y-55756987D01*
X133460626Y-55756513D01*
X132958658Y-55963922D01*
X132574272Y-56347638D01*
X132365987Y-56849244D01*
X132365513Y-57392374D01*
X132572922Y-57894342D01*
X132956638Y-58278728D01*
X133458244Y-58487013D01*
X134001374Y-58487487D01*
X134503342Y-58280078D01*
X134887728Y-57896362D01*
X135096013Y-57394756D01*
X135096487Y-56851626D01*
X135096487Y-61369000D01*
X134945826Y-61369000D01*
X134889078Y-61231658D01*
X134505362Y-60847272D01*
X134003756Y-60638987D01*
X133460626Y-60638513D01*
X132958658Y-60845922D01*
X132574272Y-61229638D01*
X132365987Y-61731244D01*
X132365513Y-62274374D01*
X132572922Y-62776342D01*
X132956638Y-63160728D01*
X133458244Y-63369013D01*
X134001374Y-63369487D01*
X134503342Y-63162078D01*
X134887728Y-62778362D01*
X134945596Y-62639000D01*
X142669200Y-62639000D01*
X142912204Y-62590664D01*
X143118213Y-62453013D01*
X144700062Y-60871163D01*
X144791082Y-60871243D01*
X145094598Y-60745833D01*
X145327017Y-60513819D01*
X145452957Y-60210523D01*
X145453243Y-59882118D01*
X145453243Y-60963530D01*
X144889787Y-61526987D01*
X144752136Y-61732996D01*
X144703800Y-61976000D01*
X144703800Y-63849174D01*
X140264998Y-68287975D01*
X140127756Y-68230987D01*
X139584626Y-68230513D01*
X139082658Y-68437922D01*
X138698272Y-68821638D01*
X138489987Y-69323244D01*
X138489513Y-69866374D01*
X138696922Y-70368342D01*
X139080638Y-70752728D01*
X139582244Y-70961013D01*
X140125374Y-70961487D01*
X140627342Y-70754078D01*
X141011728Y-70370362D01*
X141220013Y-69868756D01*
X141220487Y-69325626D01*
X141162862Y-69186163D01*
X145787813Y-64561213D01*
X145925464Y-64355205D01*
X145925464Y-64355204D01*
X145973800Y-64112200D01*
X145973800Y-62239026D01*
X147214662Y-60998163D01*
X147305682Y-60998243D01*
X147609198Y-60872833D01*
X147841617Y-60640819D01*
X147967557Y-60337523D01*
X147967843Y-60009118D01*
X147967843Y-61014331D01*
X147787987Y-61194187D01*
X147650336Y-61400196D01*
X147602000Y-61643200D01*
X147602000Y-68381173D01*
X147464658Y-68437922D01*
X147080272Y-68821638D01*
X146871987Y-69323244D01*
X146871513Y-69866374D01*
X147078922Y-70368342D01*
X147462638Y-70752728D01*
X147964244Y-70961013D01*
X148507374Y-70961487D01*
X149009342Y-70754078D01*
X149393728Y-70370362D01*
X149602013Y-69868756D01*
X149602487Y-69325626D01*
X149395078Y-68823658D01*
X149011362Y-68439272D01*
X148872000Y-68381403D01*
X148872000Y-61906225D01*
X149754661Y-61023563D01*
X149845682Y-61023643D01*
X150149198Y-60898233D01*
X150381617Y-60666219D01*
X150507557Y-60362923D01*
X150507843Y-60034518D01*
X150507843Y-68996066D01*
X150371987Y-69323244D01*
X150371513Y-69866374D01*
X150578922Y-70368342D01*
X150962638Y-70752728D01*
X151464244Y-70961013D01*
X152007374Y-70961487D01*
X152509342Y-70754078D01*
X152893728Y-70370362D01*
X153102013Y-69868756D01*
X153102487Y-69325626D01*
X153102487Y-72848000D01*
X144720487Y-72848000D01*
X144720487Y-69325626D01*
X144513078Y-68823658D01*
X144129362Y-68439272D01*
X143627756Y-68230987D01*
X143084626Y-68230513D01*
X142582658Y-68437922D01*
X142198272Y-68821638D01*
X141989987Y-69323244D01*
X141989513Y-69866374D01*
X142196922Y-70368342D01*
X142580638Y-70752728D01*
X143082244Y-70961013D01*
X143625374Y-70961487D01*
X144127342Y-70754078D01*
X144511728Y-70370362D01*
X144720013Y-69868756D01*
X144720487Y-69325626D01*
X144720487Y-72848000D01*
X135262556Y-72848000D01*
X135262556Y-71001536D01*
X135246706Y-70142779D01*
X135096487Y-69780118D01*
X135096487Y-65233626D01*
X134889078Y-64731658D01*
X134505362Y-64347272D01*
X134003756Y-64138987D01*
X133460626Y-64138513D01*
X132958658Y-64345922D01*
X132574272Y-64729638D01*
X132365987Y-65231244D01*
X132365513Y-65774374D01*
X132572922Y-66276342D01*
X132956638Y-66660728D01*
X133458244Y-66869013D01*
X134001374Y-66869487D01*
X134503342Y-66662078D01*
X134887728Y-66278362D01*
X135096013Y-65776756D01*
X135096487Y-65233626D01*
X135096487Y-69780118D01*
X134948568Y-69423011D01*
X134627307Y-69260298D01*
X134447702Y-69439903D01*
X134447702Y-69080693D01*
X134284989Y-68759432D01*
X133485536Y-68445444D01*
X132626779Y-68461294D01*
X131907011Y-68759432D01*
X131744298Y-69080693D01*
X133096000Y-70432395D01*
X134447702Y-69080693D01*
X134447702Y-69439903D01*
X133275605Y-70612000D01*
X134627307Y-71963702D01*
X134948568Y-71800989D01*
X135262556Y-71001536D01*
X135262556Y-72848000D01*
X134447702Y-72848000D01*
X134447702Y-72143307D01*
X133096000Y-70791605D01*
X132916395Y-70971210D01*
X132916395Y-70612000D01*
X131564693Y-69260298D01*
X131243432Y-69423011D01*
X130929444Y-70222464D01*
X130945294Y-71081221D01*
X131243432Y-71800989D01*
X131564693Y-71963702D01*
X132916395Y-70612000D01*
X132916395Y-70971210D01*
X131744298Y-72143307D01*
X131907011Y-72464568D01*
X132706464Y-72778556D01*
X133565221Y-72762706D01*
X134284989Y-72464568D01*
X134447702Y-72143307D01*
X134447702Y-72848000D01*
X130479000Y-72848000D01*
X130479000Y-46659000D01*
X132219487Y-46659000D01*
X131907011Y-46788432D01*
X131744298Y-47109693D01*
X133096000Y-48461395D01*
X134447702Y-47109693D01*
X134284989Y-46788432D01*
X133955438Y-46659000D01*
X174383487Y-46659000D01*
X174071011Y-46788432D01*
X173908298Y-47109693D01*
X175260000Y-48461395D01*
X176611702Y-47109693D01*
X176448989Y-46788432D01*
X176119438Y-46659000D01*
X177877000Y-46659000D01*
X177877000Y-72848000D01*
M02*
