G04 #@! TF.FileFunction,Legend,Top*
%FSLAX46Y46*%
G04 Gerber Fmt 4.6, Leading zero omitted, Abs format (unit mm)*
G04 Created by KiCad (PCBNEW (2014-11-09 BZR 5259)-product) date Mon 22 Dec 2014 02:38:55 PM PST*
%MOMM*%
G01*
G04 APERTURE LIST*
%ADD10C,0.100000*%
%ADD11C,0.101600*%
%ADD12C,0.127000*%
%ADD13C,0.150000*%
G04 APERTURE END LIST*
D10*
D11*
X167552914Y-64251116D02*
X167552914Y-63960830D01*
X167298914Y-64142258D02*
X167952057Y-64142258D01*
X168024629Y-64105973D01*
X168060914Y-64033401D01*
X168060914Y-63960830D01*
X167552914Y-63380258D02*
X168060914Y-63380258D01*
X167552914Y-63706829D02*
X167952057Y-63706829D01*
X168024629Y-63670544D01*
X168060914Y-63597972D01*
X168060914Y-63489115D01*
X168024629Y-63416544D01*
X167988343Y-63380258D01*
X168060914Y-63089972D02*
X167552914Y-62690829D01*
X167552914Y-63089972D02*
X168060914Y-62690829D01*
X167770629Y-62400543D02*
X167770629Y-61819972D01*
X168060914Y-61348257D02*
X168024629Y-61420829D01*
X167952057Y-61457114D01*
X167298914Y-61457114D01*
X168060914Y-60731400D02*
X167661771Y-60731400D01*
X167589200Y-60767686D01*
X167552914Y-60840257D01*
X167552914Y-60985400D01*
X167589200Y-61057971D01*
X168024629Y-60731400D02*
X168060914Y-60803971D01*
X168060914Y-60985400D01*
X168024629Y-61057971D01*
X167952057Y-61094257D01*
X167879486Y-61094257D01*
X167806914Y-61057971D01*
X167770629Y-60985400D01*
X167770629Y-60803971D01*
X167734343Y-60731400D01*
X168060914Y-60368542D02*
X167298914Y-60368542D01*
X167589200Y-60368542D02*
X167552914Y-60295971D01*
X167552914Y-60150828D01*
X167589200Y-60078257D01*
X167625486Y-60041971D01*
X167698057Y-60005685D01*
X167915771Y-60005685D01*
X167988343Y-60041971D01*
X168024629Y-60078257D01*
X168060914Y-60150828D01*
X168060914Y-60295971D01*
X168024629Y-60368542D01*
X167988343Y-59679113D02*
X168024629Y-59642828D01*
X168060914Y-59679113D01*
X168024629Y-59715399D01*
X167988343Y-59679113D01*
X168060914Y-59679113D01*
X168024629Y-58989685D02*
X168060914Y-59062256D01*
X168060914Y-59207399D01*
X168024629Y-59279971D01*
X167988343Y-59316256D01*
X167915771Y-59352542D01*
X167698057Y-59352542D01*
X167625486Y-59316256D01*
X167589200Y-59279971D01*
X167552914Y-59207399D01*
X167552914Y-59062256D01*
X167589200Y-58989685D01*
X168060914Y-58554256D02*
X168024629Y-58626828D01*
X167988343Y-58663113D01*
X167915771Y-58699399D01*
X167698057Y-58699399D01*
X167625486Y-58663113D01*
X167589200Y-58626828D01*
X167552914Y-58554256D01*
X167552914Y-58445399D01*
X167589200Y-58372828D01*
X167625486Y-58336542D01*
X167698057Y-58300256D01*
X167915771Y-58300256D01*
X167988343Y-58336542D01*
X168024629Y-58372828D01*
X168060914Y-58445399D01*
X168060914Y-58554256D01*
X168060914Y-57973684D02*
X167552914Y-57973684D01*
X167625486Y-57973684D02*
X167589200Y-57937399D01*
X167552914Y-57864827D01*
X167552914Y-57755970D01*
X167589200Y-57683399D01*
X167661771Y-57647113D01*
X168060914Y-57647113D01*
X167661771Y-57647113D02*
X167589200Y-57610827D01*
X167552914Y-57538256D01*
X167552914Y-57429399D01*
X167589200Y-57356827D01*
X167661771Y-57320542D01*
X168060914Y-57320542D01*
X167404142Y-65114714D02*
X167549285Y-65114714D01*
X167621857Y-65151000D01*
X167694428Y-65223571D01*
X167730714Y-65368714D01*
X167730714Y-65622714D01*
X167694428Y-65767857D01*
X167621857Y-65840429D01*
X167549285Y-65876714D01*
X167404142Y-65876714D01*
X167331571Y-65840429D01*
X167259000Y-65767857D01*
X167222714Y-65622714D01*
X167222714Y-65368714D01*
X167259000Y-65223571D01*
X167331571Y-65151000D01*
X167404142Y-65114714D01*
X168383857Y-65368714D02*
X168383857Y-65876714D01*
X168057286Y-65368714D02*
X168057286Y-65767857D01*
X168093571Y-65840429D01*
X168166143Y-65876714D01*
X168275000Y-65876714D01*
X168347571Y-65840429D01*
X168383857Y-65804143D01*
X168637857Y-65368714D02*
X168928143Y-65368714D01*
X168746715Y-65114714D02*
X168746715Y-65767857D01*
X168783000Y-65840429D01*
X168855572Y-65876714D01*
X168928143Y-65876714D01*
X169508715Y-65114714D02*
X169363572Y-65114714D01*
X169291001Y-65151000D01*
X169254715Y-65187286D01*
X169182144Y-65296143D01*
X169145858Y-65441286D01*
X169145858Y-65731571D01*
X169182144Y-65804143D01*
X169218429Y-65840429D01*
X169291001Y-65876714D01*
X169436144Y-65876714D01*
X169508715Y-65840429D01*
X169545001Y-65804143D01*
X169581286Y-65731571D01*
X169581286Y-65550143D01*
X169545001Y-65477571D01*
X169508715Y-65441286D01*
X169436144Y-65405000D01*
X169291001Y-65405000D01*
X169218429Y-65441286D01*
X169182144Y-65477571D01*
X169145858Y-65550143D01*
X164138429Y-65876714D02*
X164138429Y-65114714D01*
X164501286Y-65368714D02*
X164501286Y-65876714D01*
X164501286Y-65441286D02*
X164537571Y-65405000D01*
X164610143Y-65368714D01*
X164719000Y-65368714D01*
X164791571Y-65405000D01*
X164827857Y-65477571D01*
X164827857Y-65876714D01*
X165517286Y-65114714D02*
X165372143Y-65114714D01*
X165299572Y-65151000D01*
X165263286Y-65187286D01*
X165190715Y-65296143D01*
X165154429Y-65441286D01*
X165154429Y-65731571D01*
X165190715Y-65804143D01*
X165227000Y-65840429D01*
X165299572Y-65876714D01*
X165444715Y-65876714D01*
X165517286Y-65840429D01*
X165553572Y-65804143D01*
X165589857Y-65731571D01*
X165589857Y-65550143D01*
X165553572Y-65477571D01*
X165517286Y-65441286D01*
X165444715Y-65405000D01*
X165299572Y-65405000D01*
X165227000Y-65441286D01*
X165190715Y-65477571D01*
X165154429Y-65550143D01*
X159022142Y-65114714D02*
X159167285Y-65114714D01*
X159239857Y-65151000D01*
X159312428Y-65223571D01*
X159348714Y-65368714D01*
X159348714Y-65622714D01*
X159312428Y-65767857D01*
X159239857Y-65840429D01*
X159167285Y-65876714D01*
X159022142Y-65876714D01*
X158949571Y-65840429D01*
X158877000Y-65767857D01*
X158840714Y-65622714D01*
X158840714Y-65368714D01*
X158877000Y-65223571D01*
X158949571Y-65151000D01*
X159022142Y-65114714D01*
X160001857Y-65368714D02*
X160001857Y-65876714D01*
X159675286Y-65368714D02*
X159675286Y-65767857D01*
X159711571Y-65840429D01*
X159784143Y-65876714D01*
X159893000Y-65876714D01*
X159965571Y-65840429D01*
X160001857Y-65804143D01*
X160255857Y-65368714D02*
X160546143Y-65368714D01*
X160364715Y-65114714D02*
X160364715Y-65767857D01*
X160401000Y-65840429D01*
X160473572Y-65876714D01*
X160546143Y-65876714D01*
X161163001Y-65114714D02*
X160800144Y-65114714D01*
X160763858Y-65477571D01*
X160800144Y-65441286D01*
X160872715Y-65405000D01*
X161054144Y-65405000D01*
X161126715Y-65441286D01*
X161163001Y-65477571D01*
X161199286Y-65550143D01*
X161199286Y-65731571D01*
X161163001Y-65804143D01*
X161126715Y-65840429D01*
X161054144Y-65876714D01*
X160872715Y-65876714D01*
X160800144Y-65840429D01*
X160763858Y-65804143D01*
X155756429Y-65876714D02*
X155756429Y-65114714D01*
X156119286Y-65368714D02*
X156119286Y-65876714D01*
X156119286Y-65441286D02*
X156155571Y-65405000D01*
X156228143Y-65368714D01*
X156337000Y-65368714D01*
X156409571Y-65405000D01*
X156445857Y-65477571D01*
X156445857Y-65876714D01*
X157171572Y-65114714D02*
X156808715Y-65114714D01*
X156772429Y-65477571D01*
X156808715Y-65441286D01*
X156881286Y-65405000D01*
X157062715Y-65405000D01*
X157135286Y-65441286D01*
X157171572Y-65477571D01*
X157207857Y-65550143D01*
X157207857Y-65731571D01*
X157171572Y-65804143D01*
X157135286Y-65840429D01*
X157062715Y-65876714D01*
X156881286Y-65876714D01*
X156808715Y-65840429D01*
X156772429Y-65804143D01*
X150767142Y-65114714D02*
X150912285Y-65114714D01*
X150984857Y-65151000D01*
X151057428Y-65223571D01*
X151093714Y-65368714D01*
X151093714Y-65622714D01*
X151057428Y-65767857D01*
X150984857Y-65840429D01*
X150912285Y-65876714D01*
X150767142Y-65876714D01*
X150694571Y-65840429D01*
X150622000Y-65767857D01*
X150585714Y-65622714D01*
X150585714Y-65368714D01*
X150622000Y-65223571D01*
X150694571Y-65151000D01*
X150767142Y-65114714D01*
X151746857Y-65368714D02*
X151746857Y-65876714D01*
X151420286Y-65368714D02*
X151420286Y-65767857D01*
X151456571Y-65840429D01*
X151529143Y-65876714D01*
X151638000Y-65876714D01*
X151710571Y-65840429D01*
X151746857Y-65804143D01*
X152000857Y-65368714D02*
X152291143Y-65368714D01*
X152109715Y-65114714D02*
X152109715Y-65767857D01*
X152146000Y-65840429D01*
X152218572Y-65876714D01*
X152291143Y-65876714D01*
X152871715Y-65368714D02*
X152871715Y-65876714D01*
X152690286Y-65078429D02*
X152508858Y-65622714D01*
X152980572Y-65622714D01*
X139119429Y-65876714D02*
X139119429Y-65114714D01*
X139482286Y-65368714D02*
X139482286Y-65876714D01*
X139482286Y-65441286D02*
X139518571Y-65405000D01*
X139591143Y-65368714D01*
X139700000Y-65368714D01*
X139772571Y-65405000D01*
X139808857Y-65477571D01*
X139808857Y-65876714D01*
X140099143Y-65114714D02*
X140570857Y-65114714D01*
X140316857Y-65405000D01*
X140425715Y-65405000D01*
X140498286Y-65441286D01*
X140534572Y-65477571D01*
X140570857Y-65550143D01*
X140570857Y-65731571D01*
X140534572Y-65804143D01*
X140498286Y-65840429D01*
X140425715Y-65876714D01*
X140208000Y-65876714D01*
X140135429Y-65840429D01*
X140099143Y-65804143D01*
X142385142Y-65114714D02*
X142530285Y-65114714D01*
X142602857Y-65151000D01*
X142675428Y-65223571D01*
X142711714Y-65368714D01*
X142711714Y-65622714D01*
X142675428Y-65767857D01*
X142602857Y-65840429D01*
X142530285Y-65876714D01*
X142385142Y-65876714D01*
X142312571Y-65840429D01*
X142240000Y-65767857D01*
X142203714Y-65622714D01*
X142203714Y-65368714D01*
X142240000Y-65223571D01*
X142312571Y-65151000D01*
X142385142Y-65114714D01*
X143364857Y-65368714D02*
X143364857Y-65876714D01*
X143038286Y-65368714D02*
X143038286Y-65767857D01*
X143074571Y-65840429D01*
X143147143Y-65876714D01*
X143256000Y-65876714D01*
X143328571Y-65840429D01*
X143364857Y-65804143D01*
X143618857Y-65368714D02*
X143909143Y-65368714D01*
X143727715Y-65114714D02*
X143727715Y-65767857D01*
X143764000Y-65840429D01*
X143836572Y-65876714D01*
X143909143Y-65876714D01*
X144090572Y-65114714D02*
X144562286Y-65114714D01*
X144308286Y-65405000D01*
X144417144Y-65405000D01*
X144489715Y-65441286D01*
X144526001Y-65477571D01*
X144562286Y-65550143D01*
X144562286Y-65731571D01*
X144526001Y-65804143D01*
X144489715Y-65840429D01*
X144417144Y-65876714D01*
X144199429Y-65876714D01*
X144126858Y-65840429D01*
X144090572Y-65804143D01*
X147628429Y-65876714D02*
X147628429Y-65114714D01*
X147991286Y-65368714D02*
X147991286Y-65876714D01*
X147991286Y-65441286D02*
X148027571Y-65405000D01*
X148100143Y-65368714D01*
X148209000Y-65368714D01*
X148281571Y-65405000D01*
X148317857Y-65477571D01*
X148317857Y-65876714D01*
X149007286Y-65368714D02*
X149007286Y-65876714D01*
X148825857Y-65078429D02*
X148644429Y-65622714D01*
X149116143Y-65622714D01*
X169421629Y-63692314D02*
X169421629Y-62930314D01*
X169784486Y-63184314D02*
X169784486Y-63692314D01*
X169784486Y-63256886D02*
X169820771Y-63220600D01*
X169893343Y-63184314D01*
X170002200Y-63184314D01*
X170074771Y-63220600D01*
X170111057Y-63293171D01*
X170111057Y-63692314D01*
X170401343Y-62930314D02*
X170909343Y-62930314D01*
X170582772Y-63692314D01*
X168674142Y-61355514D02*
X168819285Y-61355514D01*
X168891857Y-61391800D01*
X168964428Y-61464371D01*
X169000714Y-61609514D01*
X169000714Y-61863514D01*
X168964428Y-62008657D01*
X168891857Y-62081229D01*
X168819285Y-62117514D01*
X168674142Y-62117514D01*
X168601571Y-62081229D01*
X168529000Y-62008657D01*
X168492714Y-61863514D01*
X168492714Y-61609514D01*
X168529000Y-61464371D01*
X168601571Y-61391800D01*
X168674142Y-61355514D01*
X169653857Y-61609514D02*
X169653857Y-62117514D01*
X169327286Y-61609514D02*
X169327286Y-62008657D01*
X169363571Y-62081229D01*
X169436143Y-62117514D01*
X169545000Y-62117514D01*
X169617571Y-62081229D01*
X169653857Y-62044943D01*
X169907857Y-61609514D02*
X170198143Y-61609514D01*
X170016715Y-61355514D02*
X170016715Y-62008657D01*
X170053000Y-62081229D01*
X170125572Y-62117514D01*
X170198143Y-62117514D01*
X170379572Y-61355514D02*
X170887572Y-61355514D01*
X170561001Y-62117514D01*
X169243829Y-57215314D02*
X169243829Y-56453314D01*
X169606686Y-56707314D02*
X169606686Y-57215314D01*
X169606686Y-56779886D02*
X169642971Y-56743600D01*
X169715543Y-56707314D01*
X169824400Y-56707314D01*
X169896971Y-56743600D01*
X169933257Y-56816171D01*
X169933257Y-57215314D01*
X170404972Y-56779886D02*
X170332400Y-56743600D01*
X170296115Y-56707314D01*
X170259829Y-56634743D01*
X170259829Y-56598457D01*
X170296115Y-56525886D01*
X170332400Y-56489600D01*
X170404972Y-56453314D01*
X170550115Y-56453314D01*
X170622686Y-56489600D01*
X170658972Y-56525886D01*
X170695257Y-56598457D01*
X170695257Y-56634743D01*
X170658972Y-56707314D01*
X170622686Y-56743600D01*
X170550115Y-56779886D01*
X170404972Y-56779886D01*
X170332400Y-56816171D01*
X170296115Y-56852457D01*
X170259829Y-56925029D01*
X170259829Y-57070171D01*
X170296115Y-57142743D01*
X170332400Y-57179029D01*
X170404972Y-57215314D01*
X170550115Y-57215314D01*
X170622686Y-57179029D01*
X170658972Y-57142743D01*
X170695257Y-57070171D01*
X170695257Y-56925029D01*
X170658972Y-56852457D01*
X170622686Y-56816171D01*
X170550115Y-56779886D01*
X168521742Y-54802314D02*
X168666885Y-54802314D01*
X168739457Y-54838600D01*
X168812028Y-54911171D01*
X168848314Y-55056314D01*
X168848314Y-55310314D01*
X168812028Y-55455457D01*
X168739457Y-55528029D01*
X168666885Y-55564314D01*
X168521742Y-55564314D01*
X168449171Y-55528029D01*
X168376600Y-55455457D01*
X168340314Y-55310314D01*
X168340314Y-55056314D01*
X168376600Y-54911171D01*
X168449171Y-54838600D01*
X168521742Y-54802314D01*
X169501457Y-55056314D02*
X169501457Y-55564314D01*
X169174886Y-55056314D02*
X169174886Y-55455457D01*
X169211171Y-55528029D01*
X169283743Y-55564314D01*
X169392600Y-55564314D01*
X169465171Y-55528029D01*
X169501457Y-55491743D01*
X169755457Y-55056314D02*
X170045743Y-55056314D01*
X169864315Y-54802314D02*
X169864315Y-55455457D01*
X169900600Y-55528029D01*
X169973172Y-55564314D01*
X170045743Y-55564314D01*
X170408601Y-55128886D02*
X170336029Y-55092600D01*
X170299744Y-55056314D01*
X170263458Y-54983743D01*
X170263458Y-54947457D01*
X170299744Y-54874886D01*
X170336029Y-54838600D01*
X170408601Y-54802314D01*
X170553744Y-54802314D01*
X170626315Y-54838600D01*
X170662601Y-54874886D01*
X170698886Y-54947457D01*
X170698886Y-54983743D01*
X170662601Y-55056314D01*
X170626315Y-55092600D01*
X170553744Y-55128886D01*
X170408601Y-55128886D01*
X170336029Y-55165171D01*
X170299744Y-55201457D01*
X170263458Y-55274029D01*
X170263458Y-55419171D01*
X170299744Y-55491743D01*
X170336029Y-55528029D01*
X170408601Y-55564314D01*
X170553744Y-55564314D01*
X170626315Y-55528029D01*
X170662601Y-55491743D01*
X170698886Y-55419171D01*
X170698886Y-55274029D01*
X170662601Y-55201457D01*
X170626315Y-55165171D01*
X170553744Y-55128886D01*
X137519229Y-64505114D02*
X137519229Y-63743114D01*
X137882086Y-63997114D02*
X137882086Y-64505114D01*
X137882086Y-64069686D02*
X137918371Y-64033400D01*
X137990943Y-63997114D01*
X138099800Y-63997114D01*
X138172371Y-64033400D01*
X138208657Y-64105971D01*
X138208657Y-64505114D01*
X138535229Y-63815686D02*
X138571515Y-63779400D01*
X138644086Y-63743114D01*
X138825515Y-63743114D01*
X138898086Y-63779400D01*
X138934372Y-63815686D01*
X138970657Y-63888257D01*
X138970657Y-63960829D01*
X138934372Y-64069686D01*
X138498943Y-64505114D01*
X138970657Y-64505114D01*
X137660742Y-61558714D02*
X137805885Y-61558714D01*
X137878457Y-61595000D01*
X137951028Y-61667571D01*
X137987314Y-61812714D01*
X137987314Y-62066714D01*
X137951028Y-62211857D01*
X137878457Y-62284429D01*
X137805885Y-62320714D01*
X137660742Y-62320714D01*
X137588171Y-62284429D01*
X137515600Y-62211857D01*
X137479314Y-62066714D01*
X137479314Y-61812714D01*
X137515600Y-61667571D01*
X137588171Y-61595000D01*
X137660742Y-61558714D01*
X138640457Y-61812714D02*
X138640457Y-62320714D01*
X138313886Y-61812714D02*
X138313886Y-62211857D01*
X138350171Y-62284429D01*
X138422743Y-62320714D01*
X138531600Y-62320714D01*
X138604171Y-62284429D01*
X138640457Y-62248143D01*
X138894457Y-61812714D02*
X139184743Y-61812714D01*
X139003315Y-61558714D02*
X139003315Y-62211857D01*
X139039600Y-62284429D01*
X139112172Y-62320714D01*
X139184743Y-62320714D01*
X139402458Y-61631286D02*
X139438744Y-61595000D01*
X139511315Y-61558714D01*
X139692744Y-61558714D01*
X139765315Y-61595000D01*
X139801601Y-61631286D01*
X139837886Y-61703857D01*
X139837886Y-61776429D01*
X139801601Y-61885286D01*
X139366172Y-62320714D01*
X139837886Y-62320714D01*
X137595429Y-57113714D02*
X137595429Y-56351714D01*
X137958286Y-56605714D02*
X137958286Y-57113714D01*
X137958286Y-56678286D02*
X137994571Y-56642000D01*
X138067143Y-56605714D01*
X138176000Y-56605714D01*
X138248571Y-56642000D01*
X138284857Y-56714571D01*
X138284857Y-57113714D01*
X139046857Y-57113714D02*
X138611429Y-57113714D01*
X138829143Y-57113714D02*
X138829143Y-56351714D01*
X138756572Y-56460571D01*
X138684000Y-56533143D01*
X138611429Y-56569429D01*
X137635342Y-54649914D02*
X137780485Y-54649914D01*
X137853057Y-54686200D01*
X137925628Y-54758771D01*
X137961914Y-54903914D01*
X137961914Y-55157914D01*
X137925628Y-55303057D01*
X137853057Y-55375629D01*
X137780485Y-55411914D01*
X137635342Y-55411914D01*
X137562771Y-55375629D01*
X137490200Y-55303057D01*
X137453914Y-55157914D01*
X137453914Y-54903914D01*
X137490200Y-54758771D01*
X137562771Y-54686200D01*
X137635342Y-54649914D01*
X138615057Y-54903914D02*
X138615057Y-55411914D01*
X138288486Y-54903914D02*
X138288486Y-55303057D01*
X138324771Y-55375629D01*
X138397343Y-55411914D01*
X138506200Y-55411914D01*
X138578771Y-55375629D01*
X138615057Y-55339343D01*
X138869057Y-54903914D02*
X139159343Y-54903914D01*
X138977915Y-54649914D02*
X138977915Y-55303057D01*
X139014200Y-55375629D01*
X139086772Y-55411914D01*
X139159343Y-55411914D01*
X139812486Y-55411914D02*
X139377058Y-55411914D01*
X139594772Y-55411914D02*
X139594772Y-54649914D01*
X139522201Y-54758771D01*
X139449629Y-54831343D01*
X139377058Y-54867629D01*
X167643628Y-53619400D02*
X167571057Y-53583114D01*
X167462200Y-53583114D01*
X167353343Y-53619400D01*
X167280771Y-53691971D01*
X167244486Y-53764543D01*
X167208200Y-53909686D01*
X167208200Y-54018543D01*
X167244486Y-54163686D01*
X167280771Y-54236257D01*
X167353343Y-54308829D01*
X167462200Y-54345114D01*
X167534771Y-54345114D01*
X167643628Y-54308829D01*
X167679914Y-54272543D01*
X167679914Y-54018543D01*
X167534771Y-54018543D01*
X168006486Y-54345114D02*
X168006486Y-53583114D01*
X168441914Y-54345114D01*
X168441914Y-53583114D01*
X168804772Y-54345114D02*
X168804772Y-53583114D01*
X168986200Y-53583114D01*
X169095057Y-53619400D01*
X169167629Y-53691971D01*
X169203914Y-53764543D01*
X169240200Y-53909686D01*
X169240200Y-54018543D01*
X169203914Y-54163686D01*
X169167629Y-54236257D01*
X169095057Y-54308829D01*
X168986200Y-54345114D01*
X168804772Y-54345114D01*
X163793715Y-54258029D02*
X163866286Y-54294314D01*
X164011429Y-54294314D01*
X164084001Y-54258029D01*
X164120286Y-54185457D01*
X164120286Y-54149171D01*
X164084001Y-54076600D01*
X164011429Y-54040314D01*
X163902572Y-54040314D01*
X163830001Y-54004029D01*
X163793715Y-53931457D01*
X163793715Y-53895171D01*
X163830001Y-53822600D01*
X163902572Y-53786314D01*
X164011429Y-53786314D01*
X164084001Y-53822600D01*
X164374286Y-53786314D02*
X164519429Y-54294314D01*
X164664572Y-53931457D01*
X164809715Y-54294314D01*
X164954858Y-53786314D01*
X165354001Y-53858886D02*
X165281429Y-53822600D01*
X165245144Y-53786314D01*
X165208858Y-53713743D01*
X165208858Y-53677457D01*
X165245144Y-53604886D01*
X165281429Y-53568600D01*
X165354001Y-53532314D01*
X165499144Y-53532314D01*
X165571715Y-53568600D01*
X165608001Y-53604886D01*
X165644286Y-53677457D01*
X165644286Y-53713743D01*
X165608001Y-53786314D01*
X165571715Y-53822600D01*
X165499144Y-53858886D01*
X165354001Y-53858886D01*
X165281429Y-53895171D01*
X165245144Y-53931457D01*
X165208858Y-54004029D01*
X165208858Y-54149171D01*
X165245144Y-54221743D01*
X165281429Y-54258029D01*
X165354001Y-54294314D01*
X165499144Y-54294314D01*
X165571715Y-54258029D01*
X165608001Y-54221743D01*
X165644286Y-54149171D01*
X165644286Y-54004029D01*
X165608001Y-53931457D01*
X165571715Y-53895171D01*
X165499144Y-53858886D01*
X160339315Y-54258029D02*
X160411886Y-54294314D01*
X160557029Y-54294314D01*
X160629601Y-54258029D01*
X160665886Y-54185457D01*
X160665886Y-54149171D01*
X160629601Y-54076600D01*
X160557029Y-54040314D01*
X160448172Y-54040314D01*
X160375601Y-54004029D01*
X160339315Y-53931457D01*
X160339315Y-53895171D01*
X160375601Y-53822600D01*
X160448172Y-53786314D01*
X160557029Y-53786314D01*
X160629601Y-53822600D01*
X160919886Y-53786314D02*
X161065029Y-54294314D01*
X161210172Y-53931457D01*
X161355315Y-54294314D01*
X161500458Y-53786314D01*
X161718172Y-53532314D02*
X162226172Y-53532314D01*
X161899601Y-54294314D01*
X157037315Y-54232629D02*
X157109886Y-54268914D01*
X157255029Y-54268914D01*
X157327601Y-54232629D01*
X157363886Y-54160057D01*
X157363886Y-54123771D01*
X157327601Y-54051200D01*
X157255029Y-54014914D01*
X157146172Y-54014914D01*
X157073601Y-53978629D01*
X157037315Y-53906057D01*
X157037315Y-53869771D01*
X157073601Y-53797200D01*
X157146172Y-53760914D01*
X157255029Y-53760914D01*
X157327601Y-53797200D01*
X157617886Y-53760914D02*
X157763029Y-54268914D01*
X157908172Y-53906057D01*
X158053315Y-54268914D01*
X158198458Y-53760914D01*
X158815315Y-53506914D02*
X158670172Y-53506914D01*
X158597601Y-53543200D01*
X158561315Y-53579486D01*
X158488744Y-53688343D01*
X158452458Y-53833486D01*
X158452458Y-54123771D01*
X158488744Y-54196343D01*
X158525029Y-54232629D01*
X158597601Y-54268914D01*
X158742744Y-54268914D01*
X158815315Y-54232629D01*
X158851601Y-54196343D01*
X158887886Y-54123771D01*
X158887886Y-53942343D01*
X158851601Y-53869771D01*
X158815315Y-53833486D01*
X158742744Y-53797200D01*
X158597601Y-53797200D01*
X158525029Y-53833486D01*
X158488744Y-53869771D01*
X158452458Y-53942343D01*
X153201915Y-54258029D02*
X153274486Y-54294314D01*
X153419629Y-54294314D01*
X153492201Y-54258029D01*
X153528486Y-54185457D01*
X153528486Y-54149171D01*
X153492201Y-54076600D01*
X153419629Y-54040314D01*
X153310772Y-54040314D01*
X153238201Y-54004029D01*
X153201915Y-53931457D01*
X153201915Y-53895171D01*
X153238201Y-53822600D01*
X153310772Y-53786314D01*
X153419629Y-53786314D01*
X153492201Y-53822600D01*
X153782486Y-53786314D02*
X153927629Y-54294314D01*
X154072772Y-53931457D01*
X154217915Y-54294314D01*
X154363058Y-53786314D01*
X155016201Y-53532314D02*
X154653344Y-53532314D01*
X154617058Y-53895171D01*
X154653344Y-53858886D01*
X154725915Y-53822600D01*
X154907344Y-53822600D01*
X154979915Y-53858886D01*
X155016201Y-53895171D01*
X155052486Y-53967743D01*
X155052486Y-54149171D01*
X155016201Y-54221743D01*
X154979915Y-54258029D01*
X154907344Y-54294314D01*
X154725915Y-54294314D01*
X154653344Y-54258029D01*
X154617058Y-54221743D01*
X149899915Y-54232629D02*
X149972486Y-54268914D01*
X150117629Y-54268914D01*
X150190201Y-54232629D01*
X150226486Y-54160057D01*
X150226486Y-54123771D01*
X150190201Y-54051200D01*
X150117629Y-54014914D01*
X150008772Y-54014914D01*
X149936201Y-53978629D01*
X149899915Y-53906057D01*
X149899915Y-53869771D01*
X149936201Y-53797200D01*
X150008772Y-53760914D01*
X150117629Y-53760914D01*
X150190201Y-53797200D01*
X150480486Y-53760914D02*
X150625629Y-54268914D01*
X150770772Y-53906057D01*
X150915915Y-54268914D01*
X151061058Y-53760914D01*
X151677915Y-53760914D02*
X151677915Y-54268914D01*
X151496486Y-53470629D02*
X151315058Y-54014914D01*
X151786772Y-54014914D01*
X146191515Y-54232629D02*
X146264086Y-54268914D01*
X146409229Y-54268914D01*
X146481801Y-54232629D01*
X146518086Y-54160057D01*
X146518086Y-54123771D01*
X146481801Y-54051200D01*
X146409229Y-54014914D01*
X146300372Y-54014914D01*
X146227801Y-53978629D01*
X146191515Y-53906057D01*
X146191515Y-53869771D01*
X146227801Y-53797200D01*
X146300372Y-53760914D01*
X146409229Y-53760914D01*
X146481801Y-53797200D01*
X146772086Y-53760914D02*
X146917229Y-54268914D01*
X147062372Y-53906057D01*
X147207515Y-54268914D01*
X147352658Y-53760914D01*
X147570372Y-53506914D02*
X148042086Y-53506914D01*
X147788086Y-53797200D01*
X147896944Y-53797200D01*
X147969515Y-53833486D01*
X148005801Y-53869771D01*
X148042086Y-53942343D01*
X148042086Y-54123771D01*
X148005801Y-54196343D01*
X147969515Y-54232629D01*
X147896944Y-54268914D01*
X147679229Y-54268914D01*
X147606658Y-54232629D01*
X147570372Y-54196343D01*
X143016515Y-54232629D02*
X143089086Y-54268914D01*
X143234229Y-54268914D01*
X143306801Y-54232629D01*
X143343086Y-54160057D01*
X143343086Y-54123771D01*
X143306801Y-54051200D01*
X143234229Y-54014914D01*
X143125372Y-54014914D01*
X143052801Y-53978629D01*
X143016515Y-53906057D01*
X143016515Y-53869771D01*
X143052801Y-53797200D01*
X143125372Y-53760914D01*
X143234229Y-53760914D01*
X143306801Y-53797200D01*
X143597086Y-53760914D02*
X143742229Y-54268914D01*
X143887372Y-53906057D01*
X144032515Y-54268914D01*
X144177658Y-53760914D01*
X144431658Y-53579486D02*
X144467944Y-53543200D01*
X144540515Y-53506914D01*
X144721944Y-53506914D01*
X144794515Y-53543200D01*
X144830801Y-53579486D01*
X144867086Y-53652057D01*
X144867086Y-53724629D01*
X144830801Y-53833486D01*
X144395372Y-54268914D01*
X144867086Y-54268914D01*
X139282715Y-54258029D02*
X139355286Y-54294314D01*
X139500429Y-54294314D01*
X139573001Y-54258029D01*
X139609286Y-54185457D01*
X139609286Y-54149171D01*
X139573001Y-54076600D01*
X139500429Y-54040314D01*
X139391572Y-54040314D01*
X139319001Y-54004029D01*
X139282715Y-53931457D01*
X139282715Y-53895171D01*
X139319001Y-53822600D01*
X139391572Y-53786314D01*
X139500429Y-53786314D01*
X139573001Y-53822600D01*
X139863286Y-53786314D02*
X140008429Y-54294314D01*
X140153572Y-53931457D01*
X140298715Y-54294314D01*
X140443858Y-53786314D01*
X141133286Y-54294314D02*
X140697858Y-54294314D01*
X140915572Y-54294314D02*
X140915572Y-53532314D01*
X140843001Y-53641171D01*
X140770429Y-53713743D01*
X140697858Y-53750029D01*
D12*
X149416600Y-47617400D02*
X137783400Y-47617400D01*
X149416600Y-53383200D02*
X137783400Y-53383200D01*
X137783400Y-53383200D02*
X137783400Y-46372800D01*
X137783400Y-46372800D02*
X149416600Y-46372800D01*
X149416600Y-46372800D02*
X149416600Y-53383200D01*
D13*
X141425000Y-63075000D02*
X141530000Y-63075000D01*
X141425000Y-58925000D02*
X141530000Y-58925000D01*
X151575000Y-58925000D02*
X151470000Y-58925000D01*
X151575000Y-63075000D02*
X151470000Y-63075000D01*
X141425000Y-63075000D02*
X141425000Y-58925000D01*
X151575000Y-63075000D02*
X151575000Y-58925000D01*
X141530000Y-63075000D02*
X141530000Y-64450000D01*
X155425000Y-63075000D02*
X155530000Y-63075000D01*
X155425000Y-58925000D02*
X155530000Y-58925000D01*
X165575000Y-58925000D02*
X165470000Y-58925000D01*
X165575000Y-63075000D02*
X165470000Y-63075000D01*
X155425000Y-63075000D02*
X155425000Y-58925000D01*
X165575000Y-63075000D02*
X165575000Y-58925000D01*
X155530000Y-63075000D02*
X155530000Y-64450000D01*
X144002120Y-54993920D02*
X144002120Y-55993920D01*
X142652120Y-55993920D02*
X142652120Y-54993920D01*
X146544660Y-54996460D02*
X146544660Y-55996460D01*
X145194660Y-55996460D02*
X145194660Y-54996460D01*
X149087200Y-54999000D02*
X149087200Y-55999000D01*
X147737200Y-55999000D02*
X147737200Y-54999000D01*
X151609420Y-55001540D02*
X151609420Y-56001540D01*
X150259420Y-56001540D02*
X150259420Y-55001540D01*
X158002600Y-54948200D02*
X158002600Y-55948200D01*
X156652600Y-55948200D02*
X156652600Y-54948200D01*
X160542600Y-54948200D02*
X160542600Y-55948200D01*
X159192600Y-55948200D02*
X159192600Y-54948200D01*
X163082600Y-54948200D02*
X163082600Y-55948200D01*
X161732600Y-55948200D02*
X161732600Y-54948200D01*
X165546400Y-54973600D02*
X165546400Y-55973600D01*
X164196400Y-55973600D02*
X164196400Y-54973600D01*
D12*
X131470400Y-51308000D02*
X131470400Y-59436000D01*
X137236200Y-51308000D02*
X137236200Y-59436000D01*
X137236200Y-59436000D02*
X130225800Y-59436000D01*
X130225800Y-59436000D02*
X130225800Y-51308000D01*
X130225800Y-51308000D02*
X137236200Y-51308000D01*
X131470400Y-59690000D02*
X131470400Y-67818000D01*
X137236200Y-59690000D02*
X137236200Y-67818000D01*
X137236200Y-67818000D02*
X130225800Y-67818000D01*
X130225800Y-67818000D02*
X130225800Y-59690000D01*
X130225800Y-59690000D02*
X137236200Y-59690000D01*
X137541000Y-71856600D02*
X145669000Y-71856600D01*
X137541000Y-66090800D02*
X145669000Y-66090800D01*
X145669000Y-66090800D02*
X145669000Y-73101200D01*
X145669000Y-73101200D02*
X137541000Y-73101200D01*
X137541000Y-73101200D02*
X137541000Y-66090800D01*
X145923000Y-71856600D02*
X154051000Y-71856600D01*
X145923000Y-66090800D02*
X154051000Y-66090800D01*
X154051000Y-66090800D02*
X154051000Y-73101200D01*
X154051000Y-73101200D02*
X145923000Y-73101200D01*
X145923000Y-73101200D02*
X145923000Y-66090800D01*
X154305000Y-71856600D02*
X162433000Y-71856600D01*
X154305000Y-66090800D02*
X162433000Y-66090800D01*
X162433000Y-66090800D02*
X162433000Y-73101200D01*
X162433000Y-73101200D02*
X154305000Y-73101200D01*
X154305000Y-73101200D02*
X154305000Y-66090800D01*
X162687000Y-71856600D02*
X170815000Y-71856600D01*
X162687000Y-66090800D02*
X170815000Y-66090800D01*
X170815000Y-66090800D02*
X170815000Y-73101200D01*
X170815000Y-73101200D02*
X162687000Y-73101200D01*
X162687000Y-73101200D02*
X162687000Y-66090800D01*
X176885600Y-67818000D02*
X176885600Y-59690000D01*
X171119800Y-67818000D02*
X171119800Y-59690000D01*
X171119800Y-59690000D02*
X178130200Y-59690000D01*
X178130200Y-59690000D02*
X178130200Y-67818000D01*
X178130200Y-67818000D02*
X171119800Y-67818000D01*
X176885600Y-59436000D02*
X176885600Y-51308000D01*
X171119800Y-59436000D02*
X171119800Y-51308000D01*
X171119800Y-51308000D02*
X178130200Y-51308000D01*
X178130200Y-51308000D02*
X178130200Y-59436000D01*
X178130200Y-59436000D02*
X171119800Y-59436000D01*
X159916600Y-47617400D02*
X148283400Y-47617400D01*
X159916600Y-53383200D02*
X148283400Y-53383200D01*
X148283400Y-53383200D02*
X148283400Y-46372800D01*
X148283400Y-46372800D02*
X159916600Y-46372800D01*
X159916600Y-46372800D02*
X159916600Y-53383200D01*
X170416600Y-47617400D02*
X158783400Y-47617400D01*
X170416600Y-53383200D02*
X158783400Y-53383200D01*
X158783400Y-53383200D02*
X158783400Y-46372800D01*
X158783400Y-46372800D02*
X170416600Y-46372800D01*
X170416600Y-46372800D02*
X170416600Y-53383200D01*
D11*
X140082714Y-61580571D02*
X140699571Y-61580571D01*
X140772143Y-61544286D01*
X140808429Y-61508000D01*
X140844714Y-61435429D01*
X140844714Y-61290286D01*
X140808429Y-61217714D01*
X140772143Y-61181429D01*
X140699571Y-61145143D01*
X140082714Y-61145143D01*
X140844714Y-60383143D02*
X140844714Y-60818571D01*
X140844714Y-60600857D02*
X140082714Y-60600857D01*
X140191571Y-60673428D01*
X140264143Y-60746000D01*
X140300429Y-60818571D01*
X152844714Y-64247570D02*
X152082714Y-64247570D01*
X152627000Y-63993570D01*
X152082714Y-63739570D01*
X152844714Y-63739570D01*
X152844714Y-63376713D02*
X152082714Y-63376713D01*
X152627000Y-63122713D01*
X152082714Y-62868713D01*
X152844714Y-62868713D01*
X152844714Y-62505856D02*
X152082714Y-62505856D01*
X152082714Y-62215571D01*
X152119000Y-62142999D01*
X152155286Y-62106714D01*
X152227857Y-62070428D01*
X152336714Y-62070428D01*
X152409286Y-62106714D01*
X152445571Y-62142999D01*
X152481857Y-62215571D01*
X152481857Y-62505856D01*
X152917286Y-61235856D02*
X152881000Y-61308428D01*
X152808429Y-61380999D01*
X152699571Y-61489856D01*
X152663286Y-61562428D01*
X152663286Y-61634999D01*
X152844714Y-61598714D02*
X152808429Y-61671285D01*
X152735857Y-61743856D01*
X152590714Y-61780142D01*
X152336714Y-61780142D01*
X152191571Y-61743856D01*
X152119000Y-61671285D01*
X152082714Y-61598714D01*
X152082714Y-61453571D01*
X152119000Y-61380999D01*
X152191571Y-61308428D01*
X152336714Y-61272142D01*
X152590714Y-61272142D01*
X152735857Y-61308428D01*
X152808429Y-61380999D01*
X152844714Y-61453571D01*
X152844714Y-61598714D01*
X152155286Y-60981856D02*
X152119000Y-60945570D01*
X152082714Y-60872999D01*
X152082714Y-60691570D01*
X152119000Y-60618999D01*
X152155286Y-60582713D01*
X152227857Y-60546428D01*
X152300429Y-60546428D01*
X152409286Y-60582713D01*
X152844714Y-61018142D01*
X152844714Y-60546428D01*
X152155286Y-60256142D02*
X152119000Y-60219856D01*
X152082714Y-60147285D01*
X152082714Y-59965856D01*
X152119000Y-59893285D01*
X152155286Y-59856999D01*
X152227857Y-59820714D01*
X152300429Y-59820714D01*
X152409286Y-59856999D01*
X152844714Y-60292428D01*
X152844714Y-59820714D01*
X152155286Y-59530428D02*
X152119000Y-59494142D01*
X152082714Y-59421571D01*
X152082714Y-59240142D01*
X152119000Y-59167571D01*
X152155286Y-59131285D01*
X152227857Y-59095000D01*
X152300429Y-59095000D01*
X152409286Y-59131285D01*
X152844714Y-59566714D01*
X152844714Y-59095000D01*
X152155286Y-58804714D02*
X152119000Y-58768428D01*
X152082714Y-58695857D01*
X152082714Y-58514428D01*
X152119000Y-58441857D01*
X152155286Y-58405571D01*
X152227857Y-58369286D01*
X152300429Y-58369286D01*
X152409286Y-58405571D01*
X152844714Y-58841000D01*
X152844714Y-58369286D01*
X152627000Y-58079000D02*
X152627000Y-57716143D01*
X152844714Y-58151572D02*
X152082714Y-57897572D01*
X152844714Y-57643572D01*
X154082714Y-61580571D02*
X154699571Y-61580571D01*
X154772143Y-61544286D01*
X154808429Y-61508000D01*
X154844714Y-61435429D01*
X154844714Y-61290286D01*
X154808429Y-61217714D01*
X154772143Y-61181429D01*
X154699571Y-61145143D01*
X154082714Y-61145143D01*
X154155286Y-60818571D02*
X154119000Y-60782285D01*
X154082714Y-60709714D01*
X154082714Y-60528285D01*
X154119000Y-60455714D01*
X154155286Y-60419428D01*
X154227857Y-60383143D01*
X154300429Y-60383143D01*
X154409286Y-60419428D01*
X154844714Y-60854857D01*
X154844714Y-60383143D01*
X166844714Y-64247570D02*
X166082714Y-64247570D01*
X166627000Y-63993570D01*
X166082714Y-63739570D01*
X166844714Y-63739570D01*
X166844714Y-63376713D02*
X166082714Y-63376713D01*
X166627000Y-63122713D01*
X166082714Y-62868713D01*
X166844714Y-62868713D01*
X166844714Y-62505856D02*
X166082714Y-62505856D01*
X166082714Y-62215571D01*
X166119000Y-62142999D01*
X166155286Y-62106714D01*
X166227857Y-62070428D01*
X166336714Y-62070428D01*
X166409286Y-62106714D01*
X166445571Y-62142999D01*
X166481857Y-62215571D01*
X166481857Y-62505856D01*
X166917286Y-61235856D02*
X166881000Y-61308428D01*
X166808429Y-61380999D01*
X166699571Y-61489856D01*
X166663286Y-61562428D01*
X166663286Y-61634999D01*
X166844714Y-61598714D02*
X166808429Y-61671285D01*
X166735857Y-61743856D01*
X166590714Y-61780142D01*
X166336714Y-61780142D01*
X166191571Y-61743856D01*
X166119000Y-61671285D01*
X166082714Y-61598714D01*
X166082714Y-61453571D01*
X166119000Y-61380999D01*
X166191571Y-61308428D01*
X166336714Y-61272142D01*
X166590714Y-61272142D01*
X166735857Y-61308428D01*
X166808429Y-61380999D01*
X166844714Y-61453571D01*
X166844714Y-61598714D01*
X166155286Y-60981856D02*
X166119000Y-60945570D01*
X166082714Y-60872999D01*
X166082714Y-60691570D01*
X166119000Y-60618999D01*
X166155286Y-60582713D01*
X166227857Y-60546428D01*
X166300429Y-60546428D01*
X166409286Y-60582713D01*
X166844714Y-61018142D01*
X166844714Y-60546428D01*
X166155286Y-60256142D02*
X166119000Y-60219856D01*
X166082714Y-60147285D01*
X166082714Y-59965856D01*
X166119000Y-59893285D01*
X166155286Y-59856999D01*
X166227857Y-59820714D01*
X166300429Y-59820714D01*
X166409286Y-59856999D01*
X166844714Y-60292428D01*
X166844714Y-59820714D01*
X166155286Y-59530428D02*
X166119000Y-59494142D01*
X166082714Y-59421571D01*
X166082714Y-59240142D01*
X166119000Y-59167571D01*
X166155286Y-59131285D01*
X166227857Y-59095000D01*
X166300429Y-59095000D01*
X166409286Y-59131285D01*
X166844714Y-59566714D01*
X166844714Y-59095000D01*
X166155286Y-58804714D02*
X166119000Y-58768428D01*
X166082714Y-58695857D01*
X166082714Y-58514428D01*
X166119000Y-58441857D01*
X166155286Y-58405571D01*
X166227857Y-58369286D01*
X166300429Y-58369286D01*
X166409286Y-58405571D01*
X166844714Y-58841000D01*
X166844714Y-58369286D01*
X166627000Y-58079000D02*
X166627000Y-57716143D01*
X166844714Y-58151572D02*
X166082714Y-57897572D01*
X166844714Y-57643572D01*
X142330714Y-56134000D02*
X141967857Y-56388000D01*
X142330714Y-56569428D02*
X141568714Y-56569428D01*
X141568714Y-56279143D01*
X141605000Y-56206571D01*
X141641286Y-56170286D01*
X141713857Y-56134000D01*
X141822714Y-56134000D01*
X141895286Y-56170286D01*
X141931571Y-56206571D01*
X141967857Y-56279143D01*
X141967857Y-56569428D01*
X142330714Y-55408286D02*
X142330714Y-55843714D01*
X142330714Y-55626000D02*
X141568714Y-55626000D01*
X141677571Y-55698571D01*
X141750143Y-55771143D01*
X141786429Y-55843714D01*
X144997714Y-56134000D02*
X144634857Y-56388000D01*
X144997714Y-56569428D02*
X144235714Y-56569428D01*
X144235714Y-56279143D01*
X144272000Y-56206571D01*
X144308286Y-56170286D01*
X144380857Y-56134000D01*
X144489714Y-56134000D01*
X144562286Y-56170286D01*
X144598571Y-56206571D01*
X144634857Y-56279143D01*
X144634857Y-56569428D01*
X144308286Y-55843714D02*
X144272000Y-55807428D01*
X144235714Y-55734857D01*
X144235714Y-55553428D01*
X144272000Y-55480857D01*
X144308286Y-55444571D01*
X144380857Y-55408286D01*
X144453429Y-55408286D01*
X144562286Y-55444571D01*
X144997714Y-55880000D01*
X144997714Y-55408286D01*
X147537714Y-56134000D02*
X147174857Y-56388000D01*
X147537714Y-56569428D02*
X146775714Y-56569428D01*
X146775714Y-56279143D01*
X146812000Y-56206571D01*
X146848286Y-56170286D01*
X146920857Y-56134000D01*
X147029714Y-56134000D01*
X147102286Y-56170286D01*
X147138571Y-56206571D01*
X147174857Y-56279143D01*
X147174857Y-56569428D01*
X146775714Y-55880000D02*
X146775714Y-55408286D01*
X147066000Y-55662286D01*
X147066000Y-55553428D01*
X147102286Y-55480857D01*
X147138571Y-55444571D01*
X147211143Y-55408286D01*
X147392571Y-55408286D01*
X147465143Y-55444571D01*
X147501429Y-55480857D01*
X147537714Y-55553428D01*
X147537714Y-55771143D01*
X147501429Y-55843714D01*
X147465143Y-55880000D01*
X150077714Y-56134000D02*
X149714857Y-56388000D01*
X150077714Y-56569428D02*
X149315714Y-56569428D01*
X149315714Y-56279143D01*
X149352000Y-56206571D01*
X149388286Y-56170286D01*
X149460857Y-56134000D01*
X149569714Y-56134000D01*
X149642286Y-56170286D01*
X149678571Y-56206571D01*
X149714857Y-56279143D01*
X149714857Y-56569428D01*
X149569714Y-55480857D02*
X150077714Y-55480857D01*
X149279429Y-55662286D02*
X149823714Y-55843714D01*
X149823714Y-55372000D01*
X156427714Y-56134000D02*
X156064857Y-56388000D01*
X156427714Y-56569428D02*
X155665714Y-56569428D01*
X155665714Y-56279143D01*
X155702000Y-56206571D01*
X155738286Y-56170286D01*
X155810857Y-56134000D01*
X155919714Y-56134000D01*
X155992286Y-56170286D01*
X156028571Y-56206571D01*
X156064857Y-56279143D01*
X156064857Y-56569428D01*
X155665714Y-55444571D02*
X155665714Y-55807428D01*
X156028571Y-55843714D01*
X155992286Y-55807428D01*
X155956000Y-55734857D01*
X155956000Y-55553428D01*
X155992286Y-55480857D01*
X156028571Y-55444571D01*
X156101143Y-55408286D01*
X156282571Y-55408286D01*
X156355143Y-55444571D01*
X156391429Y-55480857D01*
X156427714Y-55553428D01*
X156427714Y-55734857D01*
X156391429Y-55807428D01*
X156355143Y-55843714D01*
X158967714Y-56134000D02*
X158604857Y-56388000D01*
X158967714Y-56569428D02*
X158205714Y-56569428D01*
X158205714Y-56279143D01*
X158242000Y-56206571D01*
X158278286Y-56170286D01*
X158350857Y-56134000D01*
X158459714Y-56134000D01*
X158532286Y-56170286D01*
X158568571Y-56206571D01*
X158604857Y-56279143D01*
X158604857Y-56569428D01*
X158205714Y-55480857D02*
X158205714Y-55626000D01*
X158242000Y-55698571D01*
X158278286Y-55734857D01*
X158387143Y-55807428D01*
X158532286Y-55843714D01*
X158822571Y-55843714D01*
X158895143Y-55807428D01*
X158931429Y-55771143D01*
X158967714Y-55698571D01*
X158967714Y-55553428D01*
X158931429Y-55480857D01*
X158895143Y-55444571D01*
X158822571Y-55408286D01*
X158641143Y-55408286D01*
X158568571Y-55444571D01*
X158532286Y-55480857D01*
X158496000Y-55553428D01*
X158496000Y-55698571D01*
X158532286Y-55771143D01*
X158568571Y-55807428D01*
X158641143Y-55843714D01*
X161507714Y-56134000D02*
X161144857Y-56388000D01*
X161507714Y-56569428D02*
X160745714Y-56569428D01*
X160745714Y-56279143D01*
X160782000Y-56206571D01*
X160818286Y-56170286D01*
X160890857Y-56134000D01*
X160999714Y-56134000D01*
X161072286Y-56170286D01*
X161108571Y-56206571D01*
X161144857Y-56279143D01*
X161144857Y-56569428D01*
X160745714Y-55880000D02*
X160745714Y-55372000D01*
X161507714Y-55698571D01*
X164047714Y-56134000D02*
X163684857Y-56388000D01*
X164047714Y-56569428D02*
X163285714Y-56569428D01*
X163285714Y-56279143D01*
X163322000Y-56206571D01*
X163358286Y-56170286D01*
X163430857Y-56134000D01*
X163539714Y-56134000D01*
X163612286Y-56170286D01*
X163648571Y-56206571D01*
X163684857Y-56279143D01*
X163684857Y-56569428D01*
X163612286Y-55698571D02*
X163576000Y-55771143D01*
X163539714Y-55807428D01*
X163467143Y-55843714D01*
X163430857Y-55843714D01*
X163358286Y-55807428D01*
X163322000Y-55771143D01*
X163285714Y-55698571D01*
X163285714Y-55553428D01*
X163322000Y-55480857D01*
X163358286Y-55444571D01*
X163430857Y-55408286D01*
X163467143Y-55408286D01*
X163539714Y-55444571D01*
X163576000Y-55480857D01*
X163612286Y-55553428D01*
X163612286Y-55698571D01*
X163648571Y-55771143D01*
X163684857Y-55807428D01*
X163757429Y-55843714D01*
X163902571Y-55843714D01*
X163975143Y-55807428D01*
X164011429Y-55771143D01*
X164047714Y-55698571D01*
X164047714Y-55553428D01*
X164011429Y-55480857D01*
X163975143Y-55444571D01*
X163902571Y-55408286D01*
X163757429Y-55408286D01*
X163684857Y-55444571D01*
X163648571Y-55480857D01*
X163612286Y-55553428D01*
M02*
