M48
;DRILL file {kicad (2014-11-09 BZR 5259)-product} date Mon 22 Dec 2014 02:21:25 PM PST
;FORMAT={-:-/ absolute / inch / decimal}
FMAT,2
INCH,TZ
T1C0.025
T2C0.047
T3C0.120
%
G90
G05
M72
T1
X5.694Y-2.364
X5.793Y-2.369
X5.893Y-2.367
X6.244Y-2.37
X6.344Y-2.372
X6.444Y-2.372
T2
X5.265Y-2.1111
X5.265Y-2.2489
X5.265Y-2.4411
X5.265Y-2.5789
X5.5061Y-2.74
X5.5157Y-1.9637
X5.6439Y-2.74
X5.6535Y-1.9637
X5.7913Y-1.9637
X5.8361Y-2.74
X5.9291Y-1.9637
X5.9739Y-2.74
X6.0669Y-1.9637
X6.1661Y-2.74
X6.2047Y-1.9637
X6.3039Y-2.74
X6.3425Y-1.9637
X6.4803Y-1.9637
X6.4961Y-2.74
X6.6181Y-1.9637
X6.6339Y-2.74
X6.875Y-2.1111
X6.875Y-2.2489
X6.875Y-2.4411
X6.875Y-2.5789
T3
X5.24Y-1.915
X5.24Y-2.78
X6.9Y-1.915
X6.9Y-2.78
T0
M30
