G04 #@! TF.FileFunction,Copper,L1,Top,Signal*
%FSLAX46Y46*%
G04 Gerber Fmt 4.6, Leading zero omitted, Abs format (unit mm)*
G04 Created by KiCad (PCBNEW (2014-11-09 BZR 5259)-product) date Mon 22 Dec 2014 02:38:55 PM PST*
%MOMM*%
G01*
G04 APERTURE LIST*
%ADD10C,0.100000*%
%ADD11C,1.968500*%
%ADD12R,0.600000X1.500000*%
%ADD13R,0.900000X0.500000*%
%ADD14C,3.048000*%
%ADD15C,0.889000*%
%ADD16C,0.508000*%
%ADD17C,0.254000*%
G04 APERTURE END LIST*
D10*
D11*
X140100000Y-49878000D03*
X143600000Y-49878000D03*
X147100000Y-49878000D03*
D12*
X142055000Y-63700000D03*
X143325000Y-63700000D03*
X144595000Y-63700000D03*
X145865000Y-63700000D03*
X147135000Y-63700000D03*
X148405000Y-63700000D03*
X149675000Y-63700000D03*
X150945000Y-63700000D03*
X150945000Y-58300000D03*
X149675000Y-58300000D03*
X148405000Y-58300000D03*
X147135000Y-58300000D03*
X145865000Y-58300000D03*
X144595000Y-58300000D03*
X143325000Y-58300000D03*
X142055000Y-58300000D03*
X156055000Y-63700000D03*
X157325000Y-63700000D03*
X158595000Y-63700000D03*
X159865000Y-63700000D03*
X161135000Y-63700000D03*
X162405000Y-63700000D03*
X163675000Y-63700000D03*
X164945000Y-63700000D03*
X164945000Y-58300000D03*
X163675000Y-58300000D03*
X162405000Y-58300000D03*
X161135000Y-58300000D03*
X159865000Y-58300000D03*
X158595000Y-58300000D03*
X157325000Y-58300000D03*
X156055000Y-58300000D03*
D13*
X143327120Y-56243920D03*
X143327120Y-54743920D03*
X145869660Y-56246460D03*
X145869660Y-54746460D03*
X148412200Y-56249000D03*
X148412200Y-54749000D03*
X150934420Y-56251540D03*
X150934420Y-54751540D03*
X157327600Y-56198200D03*
X157327600Y-54698200D03*
X159867600Y-56198200D03*
X159867600Y-54698200D03*
X162407600Y-56198200D03*
X162407600Y-54698200D03*
X164871400Y-56223600D03*
X164871400Y-54723600D03*
D11*
X133731000Y-57122000D03*
X133731000Y-53622000D03*
X133731000Y-65504000D03*
X133731000Y-62004000D03*
X143355000Y-69596000D03*
X139855000Y-69596000D03*
X151737000Y-69596000D03*
X148237000Y-69596000D03*
X160119000Y-69596000D03*
X156619000Y-69596000D03*
X168501000Y-69596000D03*
X165001000Y-69596000D03*
X174625000Y-62004000D03*
X174625000Y-65504000D03*
X174625000Y-53622000D03*
X174625000Y-57122000D03*
X150600000Y-49878000D03*
X154100000Y-49878000D03*
X157600000Y-49878000D03*
X161100000Y-49878000D03*
X164600000Y-49878000D03*
X168100000Y-49878000D03*
D14*
X175260000Y-48641000D03*
X133096000Y-48641000D03*
X175260000Y-70612000D03*
X133096000Y-70612000D03*
D15*
X144627600Y-60045600D03*
X147142200Y-60172600D03*
X149682200Y-60198000D03*
X158597600Y-60198000D03*
X161137600Y-60248800D03*
X164388800Y-60452000D03*
D16*
X143327120Y-58297880D02*
X143325000Y-58300000D01*
X143327120Y-56243920D02*
X143327120Y-58297880D01*
X140100000Y-53740000D02*
X142603920Y-56243920D01*
X142603920Y-56243920D02*
X143327120Y-56243920D01*
X140100000Y-49878000D02*
X140100000Y-53740000D01*
X143600000Y-52033000D02*
X144678400Y-53111400D01*
X144678400Y-53111400D02*
X144678400Y-55651400D01*
X144678400Y-55651400D02*
X145273460Y-56246460D01*
X145273460Y-56246460D02*
X145869660Y-56246460D01*
X145869660Y-58295340D02*
X145865000Y-58300000D01*
X145869660Y-56246460D02*
X145869660Y-58295340D01*
X145273460Y-56246460D02*
X145869660Y-56246460D01*
X144678400Y-55651400D02*
X145273460Y-56246460D01*
X144678400Y-53111400D02*
X144678400Y-55651400D01*
X143600000Y-52033000D02*
X144678400Y-53111400D01*
X143600000Y-49878000D02*
X143600000Y-52033000D01*
X147100000Y-55609200D02*
X147739800Y-56249000D01*
X147739800Y-56249000D02*
X148412200Y-56249000D01*
X148412200Y-58292800D02*
X148405000Y-58300000D01*
X148412200Y-56249000D02*
X148412200Y-58292800D01*
X147739800Y-56249000D02*
X148412200Y-56249000D01*
X147100000Y-55609200D02*
X147739800Y-56249000D01*
X147100000Y-49878000D02*
X147100000Y-55609200D01*
X150256940Y-56251540D02*
X150934420Y-56251540D01*
X149809200Y-55803800D02*
X150256940Y-56251540D01*
X149809200Y-50850800D02*
X149809200Y-55803800D01*
X150600000Y-50060000D02*
X149809200Y-50850800D01*
X150934420Y-58289420D02*
X150945000Y-58300000D01*
X150934420Y-56251540D02*
X150934420Y-58289420D01*
X154100000Y-53719200D02*
X156579000Y-56198200D01*
X156579000Y-56198200D02*
X157327600Y-56198200D01*
X154100000Y-49878000D02*
X154100000Y-53719200D01*
X157325000Y-56200800D02*
X157325000Y-58300000D01*
X157327600Y-56198200D02*
X157325000Y-56200800D01*
X157600000Y-51478800D02*
X158750000Y-52628800D01*
X158750000Y-52628800D02*
X158750000Y-55778400D01*
X158750000Y-55778400D02*
X159169800Y-56198200D01*
X159169800Y-56198200D02*
X159867600Y-56198200D01*
X157600000Y-49878000D02*
X157600000Y-51478800D01*
X159867600Y-58297400D02*
X159865000Y-58300000D01*
X159865000Y-56200800D02*
X159865000Y-58300000D01*
X159867600Y-56198200D02*
X159865000Y-56200800D01*
X161100000Y-55512200D02*
X161786000Y-56198200D01*
X161786000Y-56198200D02*
X162407600Y-56198200D01*
X161100000Y-49878000D02*
X161100000Y-55512200D01*
X162405000Y-56200800D02*
X162405000Y-58300000D01*
X162407600Y-56198200D02*
X162405000Y-56200800D01*
X164224400Y-56223600D02*
X164871400Y-56223600D01*
X163779200Y-55778400D02*
X164224400Y-56223600D01*
X163779200Y-50901600D02*
X163779200Y-55778400D01*
X164600000Y-50080800D02*
X163779200Y-50901600D01*
X164871400Y-58226400D02*
X164945000Y-58300000D01*
X164945000Y-56297200D02*
X164945000Y-58300000D01*
X164871400Y-56223600D02*
X164945000Y-56297200D01*
X143327120Y-54147720D02*
X141833600Y-52654200D01*
X141833600Y-52654200D02*
X141833600Y-48717200D01*
X141833600Y-48717200D02*
X142875000Y-47675800D01*
X162814000Y-47675800D02*
X165897800Y-47675800D01*
X159435800Y-47675800D02*
X162814000Y-47675800D01*
X155956000Y-47675800D02*
X159435800Y-47675800D01*
X152349200Y-47675800D02*
X155956000Y-47675800D01*
X148793200Y-47675800D02*
X152349200Y-47675800D01*
X145440400Y-47675800D02*
X148793200Y-47675800D01*
X142875000Y-47675800D02*
X145440400Y-47675800D01*
X165897800Y-47675800D02*
X168100000Y-49878000D01*
X143327120Y-54743920D02*
X143327120Y-54147720D01*
X145869660Y-52600860D02*
X145440400Y-52171600D01*
X145440400Y-52171600D02*
X145440400Y-47675800D01*
X145869660Y-54746460D02*
X145869660Y-52600860D01*
X148412200Y-52146200D02*
X148793200Y-51765200D01*
X148793200Y-51765200D02*
X148793200Y-47675800D01*
X148412200Y-54749000D02*
X148412200Y-52146200D01*
X150934420Y-53256180D02*
X152349200Y-51841400D01*
X152349200Y-51841400D02*
X152349200Y-47675800D01*
X150934420Y-54751540D02*
X150934420Y-53256180D01*
X157327600Y-53467000D02*
X155956000Y-52095400D01*
X155956000Y-52095400D02*
X155956000Y-47675800D01*
X157327600Y-54698200D02*
X157327600Y-53467000D01*
X159867600Y-51333400D02*
X159435800Y-50901600D01*
X159435800Y-50901600D02*
X159435800Y-47675800D01*
X159867600Y-54698200D02*
X159867600Y-51333400D01*
X162407600Y-51689000D02*
X162814000Y-51282600D01*
X162814000Y-51282600D02*
X162814000Y-47675800D01*
X162407600Y-54698200D02*
X162407600Y-51689000D01*
X164871400Y-53106600D02*
X168100000Y-49878000D01*
X164871400Y-54723600D02*
X164871400Y-53106600D01*
X137132000Y-57122000D02*
X133731000Y-57122000D01*
X142055000Y-62045000D02*
X137132000Y-57122000D01*
X142055000Y-63700000D02*
X142055000Y-62045000D01*
X143325000Y-63700000D02*
X143325000Y-63315000D01*
X142055000Y-63700000D02*
X143325000Y-63700000D01*
X134749600Y-66522600D02*
X133731000Y-65504000D01*
X145034000Y-66522600D02*
X134749600Y-66522600D01*
X145865000Y-65691600D02*
X145034000Y-66522600D01*
X145865000Y-63700000D02*
X145865000Y-65691600D01*
X144595000Y-63700000D02*
X145865000Y-63700000D01*
X148405000Y-63700000D02*
X148405000Y-65869400D01*
X144678400Y-69596000D02*
X143355000Y-69596000D01*
X148405000Y-65869400D02*
X144678400Y-69596000D01*
X148405000Y-63700000D02*
X147135000Y-63700000D01*
X150945000Y-68804000D02*
X151737000Y-69596000D01*
X150945000Y-65306737D02*
X150945000Y-68804000D01*
X150945000Y-63700000D02*
X150945000Y-65306737D01*
X149675000Y-63700000D02*
X150945000Y-63700000D01*
X157325000Y-66802000D02*
X160119000Y-69596000D01*
X157325000Y-63700000D02*
X157325000Y-66802000D01*
X156055000Y-63700000D02*
X157325000Y-63700000D01*
X159865000Y-63700000D02*
X158595000Y-63700000D01*
X159865000Y-65834200D02*
X160553400Y-66522600D01*
X160553400Y-66522600D02*
X165427600Y-66522600D01*
X165427600Y-66522600D02*
X168501000Y-69596000D01*
X159865000Y-63700000D02*
X159865000Y-65834200D01*
X161135000Y-63700000D02*
X162405000Y-63700000D01*
X162405000Y-64716600D02*
X163042600Y-65354200D01*
X163042600Y-65354200D02*
X171274800Y-65354200D01*
X171274800Y-65354200D02*
X174625000Y-62004000D01*
X162405000Y-63700000D02*
X162405000Y-64716600D01*
X163675000Y-63700000D02*
X163675000Y-64150000D01*
X171983400Y-56263600D02*
X174625000Y-53622000D01*
X171983400Y-58166000D02*
X171983400Y-56263600D01*
X166449400Y-63700000D02*
X171983400Y-58166000D01*
X164945000Y-63700000D02*
X166449400Y-63700000D01*
X163675000Y-63700000D02*
X164945000Y-63700000D01*
X137377000Y-53622000D02*
X142055000Y-58300000D01*
X133731000Y-53622000D02*
X137377000Y-53622000D01*
X133731000Y-62004000D02*
X134490400Y-62004000D01*
X144595000Y-60013000D02*
X144627600Y-60045600D01*
X144595000Y-58300000D02*
X144595000Y-60013000D01*
X147135000Y-60165400D02*
X147142200Y-60172600D01*
X147135000Y-58300000D02*
X147135000Y-60165400D01*
X149675000Y-58300000D02*
X149675000Y-60190800D01*
X149675000Y-60190800D02*
X149682200Y-60198000D01*
X154508200Y-67485200D02*
X154508200Y-59846800D01*
X154508200Y-59846800D02*
X156055000Y-58300000D01*
X156619000Y-69596000D02*
X154508200Y-67485200D01*
X158595000Y-58300000D02*
X158595000Y-60195400D01*
X158595000Y-60195400D02*
X158597600Y-60198000D01*
X161135000Y-60246200D02*
X161137600Y-60248800D01*
X161135000Y-58300000D02*
X161135000Y-60246200D01*
X161137600Y-58302600D02*
X161137600Y-60248800D01*
X161135000Y-58300000D02*
X161137600Y-58302600D01*
X163675000Y-58300000D02*
X163675000Y-59738200D01*
X163675000Y-59738200D02*
X164388800Y-60452000D01*
D17*
G36*
X177877000Y-72848000D02*
X177426556Y-72848000D01*
X177426556Y-71001536D01*
X177426556Y-49030536D01*
X177410706Y-48171779D01*
X177112568Y-47452011D01*
X176791307Y-47289298D01*
X175439605Y-48641000D01*
X176791307Y-49992702D01*
X177112568Y-49829989D01*
X177426556Y-49030536D01*
X177426556Y-71001536D01*
X177410706Y-70142779D01*
X177112568Y-69423011D01*
X176791307Y-69260298D01*
X176611702Y-69439903D01*
X176611702Y-69080693D01*
X176611702Y-50172307D01*
X175260000Y-48820605D01*
X175080395Y-49000210D01*
X175080395Y-48641000D01*
X173728693Y-47289298D01*
X173407432Y-47452011D01*
X173093444Y-48251464D01*
X173109294Y-49110221D01*
X173407432Y-49829989D01*
X173728693Y-49992702D01*
X175080395Y-48641000D01*
X175080395Y-49000210D01*
X173908298Y-50172307D01*
X174071011Y-50493568D01*
X174870464Y-50807556D01*
X175729221Y-50791706D01*
X176448989Y-50493568D01*
X176611702Y-50172307D01*
X176611702Y-69080693D01*
X176448989Y-68759432D01*
X175990487Y-68579353D01*
X175990487Y-65233626D01*
X175990487Y-61733626D01*
X175990487Y-56851626D01*
X175783078Y-56349658D01*
X175399362Y-55965272D01*
X174897756Y-55756987D01*
X174354626Y-55756513D01*
X173852658Y-55963922D01*
X173468272Y-56347638D01*
X173259987Y-56849244D01*
X173259513Y-57392374D01*
X173466922Y-57894342D01*
X173850638Y-58278728D01*
X174352244Y-58487013D01*
X174895374Y-58487487D01*
X175397342Y-58280078D01*
X175781728Y-57896362D01*
X175990013Y-57394756D01*
X175990487Y-56851626D01*
X175990487Y-61733626D01*
X175783078Y-61231658D01*
X175399362Y-60847272D01*
X174897756Y-60638987D01*
X174354626Y-60638513D01*
X173852658Y-60845922D01*
X173468272Y-61229638D01*
X173259987Y-61731244D01*
X173259513Y-62274374D01*
X173317137Y-62413836D01*
X171011774Y-64719200D01*
X165514615Y-64719200D01*
X165567996Y-64665819D01*
X165626000Y-64525785D01*
X165626000Y-64374214D01*
X165626000Y-64335000D01*
X166449400Y-64335000D01*
X166692404Y-64286664D01*
X166898413Y-64149013D01*
X172432413Y-58615013D01*
X172570064Y-58409004D01*
X172618400Y-58166000D01*
X172618400Y-56526625D01*
X174215000Y-54930024D01*
X174352244Y-54987013D01*
X174895374Y-54987487D01*
X175397342Y-54780078D01*
X175781728Y-54396362D01*
X175990013Y-53894756D01*
X175990487Y-53351626D01*
X175783078Y-52849658D01*
X175399362Y-52465272D01*
X174897756Y-52256987D01*
X174354626Y-52256513D01*
X173852658Y-52463922D01*
X173468272Y-52847638D01*
X173259987Y-53349244D01*
X173259513Y-53892374D01*
X173317137Y-54031836D01*
X171534387Y-55814587D01*
X171396736Y-56020596D01*
X171348400Y-56263600D01*
X171348400Y-57902974D01*
X169730247Y-59521127D01*
X169730247Y-50138780D01*
X169705948Y-49495061D01*
X169506356Y-49013203D01*
X169241135Y-48916470D01*
X169061530Y-49096075D01*
X169061530Y-48736865D01*
X168964797Y-48471644D01*
X168360780Y-48247753D01*
X167717061Y-48272052D01*
X167235203Y-48471644D01*
X167138470Y-48736865D01*
X168100000Y-49698395D01*
X169061530Y-48736865D01*
X169061530Y-49096075D01*
X168279605Y-49878000D01*
X169241135Y-50839530D01*
X169506356Y-50742797D01*
X169730247Y-50138780D01*
X169730247Y-59521127D01*
X169061530Y-60189844D01*
X169061530Y-51019135D01*
X168100000Y-50057605D01*
X167920395Y-50237210D01*
X167920395Y-49878000D01*
X166958865Y-48916470D01*
X166693644Y-49013203D01*
X166469753Y-49617220D01*
X166494052Y-50260939D01*
X166693644Y-50742797D01*
X166958865Y-50839530D01*
X167920395Y-49878000D01*
X167920395Y-50237210D01*
X167138470Y-51019135D01*
X167235203Y-51284356D01*
X167839220Y-51508247D01*
X168482939Y-51483948D01*
X168964797Y-51284356D01*
X169061530Y-51019135D01*
X169061530Y-60189844D01*
X166186374Y-63065000D01*
X165965487Y-63065000D01*
X165965487Y-49607626D01*
X165758078Y-49105658D01*
X165374362Y-48721272D01*
X164872756Y-48512987D01*
X164329626Y-48512513D01*
X163827658Y-48719922D01*
X163443272Y-49103638D01*
X163234987Y-49605244D01*
X163234513Y-50148374D01*
X163351432Y-50431341D01*
X163330187Y-50452587D01*
X163192536Y-50658596D01*
X163144200Y-50901600D01*
X163144200Y-53879594D01*
X162983910Y-53813200D01*
X162731291Y-53813200D01*
X162693350Y-53813200D01*
X162534600Y-53971950D01*
X162534600Y-54573200D01*
X162554600Y-54573200D01*
X162554600Y-54823200D01*
X162534600Y-54823200D01*
X162534600Y-54845200D01*
X162280600Y-54845200D01*
X162280600Y-54823200D01*
X162260600Y-54823200D01*
X162260600Y-54573200D01*
X162280600Y-54573200D01*
X162280600Y-53971950D01*
X162121850Y-53813200D01*
X162083909Y-53813200D01*
X161831290Y-53813200D01*
X161735000Y-53853084D01*
X161735000Y-51092826D01*
X161872342Y-51036078D01*
X162256728Y-50652362D01*
X162465013Y-50150756D01*
X162465487Y-49607626D01*
X162258078Y-49105658D01*
X161874362Y-48721272D01*
X161372756Y-48512987D01*
X160829626Y-48512513D01*
X160327658Y-48719922D01*
X159943272Y-49103638D01*
X159734987Y-49605244D01*
X159734513Y-50148374D01*
X159941922Y-50650342D01*
X160325638Y-51034728D01*
X160465000Y-51092596D01*
X160465000Y-53821935D01*
X160443910Y-53813200D01*
X160191291Y-53813200D01*
X160153350Y-53813200D01*
X159994600Y-53971950D01*
X159994600Y-54573200D01*
X160014600Y-54573200D01*
X160014600Y-54823200D01*
X159994600Y-54823200D01*
X159994600Y-54845200D01*
X159740600Y-54845200D01*
X159740600Y-54823200D01*
X159720600Y-54823200D01*
X159720600Y-54573200D01*
X159740600Y-54573200D01*
X159740600Y-53971950D01*
X159581850Y-53813200D01*
X159543909Y-53813200D01*
X159385000Y-53813200D01*
X159385000Y-52628805D01*
X159385000Y-52628800D01*
X159385001Y-52628800D01*
X159336664Y-52385796D01*
X159199013Y-52179787D01*
X158235000Y-51215774D01*
X158235000Y-51092826D01*
X158372342Y-51036078D01*
X158756728Y-50652362D01*
X158965013Y-50150756D01*
X158965487Y-49607626D01*
X158758078Y-49105658D01*
X158374362Y-48721272D01*
X157872756Y-48512987D01*
X157329626Y-48512513D01*
X156827658Y-48719922D01*
X156443272Y-49103638D01*
X156234987Y-49605244D01*
X156234513Y-50148374D01*
X156441922Y-50650342D01*
X156825638Y-51034728D01*
X156965000Y-51092596D01*
X156965000Y-51478800D01*
X157013336Y-51721804D01*
X157150987Y-51927813D01*
X158115000Y-52891826D01*
X158115000Y-53900636D01*
X157903910Y-53813200D01*
X157651291Y-53813200D01*
X157613350Y-53813200D01*
X157454600Y-53971950D01*
X157454600Y-54573200D01*
X157474600Y-54573200D01*
X157474600Y-54823200D01*
X157454600Y-54823200D01*
X157454600Y-54845200D01*
X157200600Y-54845200D01*
X157200600Y-54823200D01*
X157200600Y-54573200D01*
X157200600Y-53971950D01*
X157041850Y-53813200D01*
X157003909Y-53813200D01*
X156751290Y-53813200D01*
X156517901Y-53909873D01*
X156339273Y-54088502D01*
X156242600Y-54321891D01*
X156242600Y-54414450D01*
X156401350Y-54573200D01*
X157200600Y-54573200D01*
X157200600Y-54823200D01*
X156401350Y-54823200D01*
X156251688Y-54972862D01*
X154735000Y-53456174D01*
X154735000Y-51092826D01*
X154872342Y-51036078D01*
X155256728Y-50652362D01*
X155465013Y-50150756D01*
X155465487Y-49607626D01*
X155258078Y-49105658D01*
X154874362Y-48721272D01*
X154372756Y-48512987D01*
X153829626Y-48512513D01*
X153327658Y-48719922D01*
X152943272Y-49103638D01*
X152734987Y-49605244D01*
X152734513Y-50148374D01*
X152941922Y-50650342D01*
X153325638Y-51034728D01*
X153465000Y-51092596D01*
X153465000Y-53719200D01*
X153513336Y-53962204D01*
X153650987Y-54168213D01*
X156129987Y-56647213D01*
X156335995Y-56784864D01*
X156335996Y-56784864D01*
X156579000Y-56833200D01*
X156690000Y-56833200D01*
X156690000Y-57363160D01*
X156677996Y-57334180D01*
X156570819Y-57227004D01*
X156430785Y-57169000D01*
X156279214Y-57169000D01*
X155679214Y-57169000D01*
X155539180Y-57227004D01*
X155432004Y-57334181D01*
X155374000Y-57474215D01*
X155374000Y-57625786D01*
X155374000Y-58082974D01*
X154059187Y-59397787D01*
X153921536Y-59603796D01*
X153873200Y-59846800D01*
X153873200Y-67485200D01*
X153921536Y-67728204D01*
X154059187Y-67934213D01*
X155310975Y-69186001D01*
X155253987Y-69323244D01*
X155253513Y-69866374D01*
X155460922Y-70368342D01*
X155844638Y-70752728D01*
X156346244Y-70961013D01*
X156889374Y-70961487D01*
X157391342Y-70754078D01*
X157775728Y-70370362D01*
X157984013Y-69868756D01*
X157984487Y-69325626D01*
X157777078Y-68823658D01*
X157393362Y-68439272D01*
X156891756Y-68230987D01*
X156348626Y-68230513D01*
X156209163Y-68288137D01*
X155143200Y-67222174D01*
X155143200Y-60109825D01*
X155822025Y-59431000D01*
X155830786Y-59431000D01*
X156430786Y-59431000D01*
X156570820Y-59372996D01*
X156677996Y-59265819D01*
X156689999Y-59236839D01*
X156702004Y-59265820D01*
X156809181Y-59372996D01*
X156949215Y-59431000D01*
X157100786Y-59431000D01*
X157700786Y-59431000D01*
X157840820Y-59372996D01*
X157947996Y-59265819D01*
X157959999Y-59236839D01*
X157960000Y-59236839D01*
X157960000Y-59668071D01*
X157898183Y-59729781D01*
X157772243Y-60033077D01*
X157771957Y-60361482D01*
X157897367Y-60664998D01*
X158129381Y-60897417D01*
X158432677Y-61023357D01*
X158761082Y-61023643D01*
X159064598Y-60898233D01*
X159297017Y-60666219D01*
X159422957Y-60362923D01*
X159423243Y-60034518D01*
X159297833Y-59731002D01*
X159230000Y-59663050D01*
X159230000Y-59236839D01*
X159242004Y-59265820D01*
X159349181Y-59372996D01*
X159489215Y-59431000D01*
X159640786Y-59431000D01*
X160240786Y-59431000D01*
X160380820Y-59372996D01*
X160487996Y-59265819D01*
X160499999Y-59236839D01*
X160500000Y-59236839D01*
X160500000Y-59718871D01*
X160438183Y-59780581D01*
X160312243Y-60083877D01*
X160311957Y-60412282D01*
X160437367Y-60715798D01*
X160669381Y-60948217D01*
X160972677Y-61074157D01*
X161301082Y-61074443D01*
X161604598Y-60949033D01*
X161837017Y-60717019D01*
X161962957Y-60413723D01*
X161963243Y-60085318D01*
X161837833Y-59781802D01*
X161772600Y-59716455D01*
X161772600Y-59243116D01*
X161782004Y-59265820D01*
X161889181Y-59372996D01*
X162029215Y-59431000D01*
X162180786Y-59431000D01*
X162780786Y-59431000D01*
X162920820Y-59372996D01*
X163027996Y-59265819D01*
X163039999Y-59236839D01*
X163040000Y-59236839D01*
X163040000Y-59738200D01*
X163088336Y-59981204D01*
X163225987Y-60187213D01*
X163563236Y-60524462D01*
X163563157Y-60615482D01*
X163688567Y-60918998D01*
X163920581Y-61151417D01*
X164223877Y-61277357D01*
X164552282Y-61277643D01*
X164855798Y-61152233D01*
X165088217Y-60920219D01*
X165214157Y-60616923D01*
X165214443Y-60288518D01*
X165089033Y-59985002D01*
X164857019Y-59752583D01*
X164553723Y-59626643D01*
X164461388Y-59626562D01*
X164310000Y-59475174D01*
X164310000Y-59236839D01*
X164322004Y-59265820D01*
X164429181Y-59372996D01*
X164569215Y-59431000D01*
X164720786Y-59431000D01*
X165320786Y-59431000D01*
X165460820Y-59372996D01*
X165567996Y-59265819D01*
X165626000Y-59125785D01*
X165626000Y-58974214D01*
X165626000Y-57474214D01*
X165580000Y-57363160D01*
X165580000Y-56753815D01*
X165644396Y-56689419D01*
X165702400Y-56549385D01*
X165702400Y-56397814D01*
X165702400Y-55897814D01*
X165644396Y-55757780D01*
X165537219Y-55650604D01*
X165435812Y-55608600D01*
X165447710Y-55608600D01*
X165681099Y-55511927D01*
X165859727Y-55333298D01*
X165956400Y-55099909D01*
X165956400Y-55007350D01*
X165956400Y-54439850D01*
X165956400Y-54347291D01*
X165859727Y-54113902D01*
X165681099Y-53935273D01*
X165447710Y-53838600D01*
X165195091Y-53838600D01*
X165157150Y-53838600D01*
X164998400Y-53997350D01*
X164998400Y-54598600D01*
X165797650Y-54598600D01*
X165956400Y-54439850D01*
X165956400Y-55007350D01*
X165797650Y-54848600D01*
X164998400Y-54848600D01*
X164998400Y-54870600D01*
X164744400Y-54870600D01*
X164744400Y-54848600D01*
X164724400Y-54848600D01*
X164724400Y-54598600D01*
X164744400Y-54598600D01*
X164744400Y-53997350D01*
X164585650Y-53838600D01*
X164547709Y-53838600D01*
X164414200Y-53838600D01*
X164414200Y-51243088D01*
X164870374Y-51243487D01*
X165372342Y-51036078D01*
X165756728Y-50652362D01*
X165965013Y-50150756D01*
X165965487Y-49607626D01*
X165965487Y-63065000D01*
X165626000Y-63065000D01*
X165626000Y-62874214D01*
X165567996Y-62734180D01*
X165460819Y-62627004D01*
X165320785Y-62569000D01*
X165169214Y-62569000D01*
X164569214Y-62569000D01*
X164429180Y-62627004D01*
X164322004Y-62734181D01*
X164310000Y-62763160D01*
X164297996Y-62734180D01*
X164190819Y-62627004D01*
X164050785Y-62569000D01*
X163899214Y-62569000D01*
X163299214Y-62569000D01*
X163159180Y-62627004D01*
X163052004Y-62734181D01*
X163040000Y-62763160D01*
X163027996Y-62734180D01*
X162920819Y-62627004D01*
X162780785Y-62569000D01*
X162629214Y-62569000D01*
X162029214Y-62569000D01*
X161889180Y-62627004D01*
X161782004Y-62734181D01*
X161770000Y-62763160D01*
X161757996Y-62734180D01*
X161650819Y-62627004D01*
X161510785Y-62569000D01*
X161359214Y-62569000D01*
X160759214Y-62569000D01*
X160619180Y-62627004D01*
X160512004Y-62734181D01*
X160500000Y-62763160D01*
X160487996Y-62734180D01*
X160380819Y-62627004D01*
X160240785Y-62569000D01*
X160089214Y-62569000D01*
X159489214Y-62569000D01*
X159349180Y-62627004D01*
X159242004Y-62734181D01*
X159230000Y-62763160D01*
X159217996Y-62734180D01*
X159110819Y-62627004D01*
X158970785Y-62569000D01*
X158819214Y-62569000D01*
X158219214Y-62569000D01*
X158079180Y-62627004D01*
X157972004Y-62734181D01*
X157960000Y-62763160D01*
X157947996Y-62734180D01*
X157840819Y-62627004D01*
X157700785Y-62569000D01*
X157549214Y-62569000D01*
X156949214Y-62569000D01*
X156809180Y-62627004D01*
X156702004Y-62734181D01*
X156690000Y-62763160D01*
X156677996Y-62734180D01*
X156570819Y-62627004D01*
X156430785Y-62569000D01*
X156279214Y-62569000D01*
X155679214Y-62569000D01*
X155539180Y-62627004D01*
X155432004Y-62734181D01*
X155374000Y-62874215D01*
X155374000Y-63025786D01*
X155374000Y-64525786D01*
X155432004Y-64665820D01*
X155539181Y-64772996D01*
X155679215Y-64831000D01*
X155830786Y-64831000D01*
X156430786Y-64831000D01*
X156570820Y-64772996D01*
X156677996Y-64665819D01*
X156689999Y-64636839D01*
X156690000Y-64636839D01*
X156690000Y-66802000D01*
X156738336Y-67045004D01*
X156875987Y-67251013D01*
X158810975Y-69186001D01*
X158753987Y-69323244D01*
X158753513Y-69866374D01*
X158960922Y-70368342D01*
X159344638Y-70752728D01*
X159846244Y-70961013D01*
X160389374Y-70961487D01*
X160891342Y-70754078D01*
X161275728Y-70370362D01*
X161484013Y-69868756D01*
X161484487Y-69325626D01*
X161277078Y-68823658D01*
X160893362Y-68439272D01*
X160391756Y-68230987D01*
X159848626Y-68230513D01*
X159709163Y-68288137D01*
X157960000Y-66538974D01*
X157960000Y-64636839D01*
X157972004Y-64665820D01*
X158079181Y-64772996D01*
X158219215Y-64831000D01*
X158370786Y-64831000D01*
X158970786Y-64831000D01*
X159110820Y-64772996D01*
X159217996Y-64665819D01*
X159229999Y-64636839D01*
X159230000Y-64636839D01*
X159230000Y-65834200D01*
X159278336Y-66077204D01*
X159415987Y-66283213D01*
X160104387Y-66971613D01*
X160310396Y-67109264D01*
X160553400Y-67157601D01*
X160553400Y-67157600D01*
X160553405Y-67157600D01*
X165164574Y-67157600D01*
X167192975Y-69186001D01*
X167135987Y-69323244D01*
X167135513Y-69866374D01*
X167342922Y-70368342D01*
X167726638Y-70752728D01*
X168228244Y-70961013D01*
X168771374Y-70961487D01*
X169273342Y-70754078D01*
X169657728Y-70370362D01*
X169866013Y-69868756D01*
X169866487Y-69325626D01*
X169659078Y-68823658D01*
X169275362Y-68439272D01*
X168773756Y-68230987D01*
X168230626Y-68230513D01*
X168091163Y-68288137D01*
X165876613Y-66073587D01*
X165750319Y-65989200D01*
X171274800Y-65989200D01*
X171517804Y-65940864D01*
X171723813Y-65803213D01*
X174215001Y-63312024D01*
X174352244Y-63369013D01*
X174895374Y-63369487D01*
X175397342Y-63162078D01*
X175781728Y-62778362D01*
X175990013Y-62276756D01*
X175990487Y-61733626D01*
X175990487Y-65233626D01*
X175783078Y-64731658D01*
X175399362Y-64347272D01*
X174897756Y-64138987D01*
X174354626Y-64138513D01*
X173852658Y-64345922D01*
X173468272Y-64729638D01*
X173259987Y-65231244D01*
X173259513Y-65774374D01*
X173466922Y-66276342D01*
X173850638Y-66660728D01*
X174352244Y-66869013D01*
X174895374Y-66869487D01*
X175397342Y-66662078D01*
X175781728Y-66278362D01*
X175990013Y-65776756D01*
X175990487Y-65233626D01*
X175990487Y-68579353D01*
X175649536Y-68445444D01*
X174790779Y-68461294D01*
X174071011Y-68759432D01*
X173908298Y-69080693D01*
X175260000Y-70432395D01*
X176611702Y-69080693D01*
X176611702Y-69439903D01*
X175439605Y-70612000D01*
X176791307Y-71963702D01*
X177112568Y-71800989D01*
X177426556Y-71001536D01*
X177426556Y-72848000D01*
X176611702Y-72848000D01*
X176611702Y-72143307D01*
X175260000Y-70791605D01*
X175080395Y-70971210D01*
X175080395Y-70612000D01*
X173728693Y-69260298D01*
X173407432Y-69423011D01*
X173093444Y-70222464D01*
X173109294Y-71081221D01*
X173407432Y-71800989D01*
X173728693Y-71963702D01*
X175080395Y-70612000D01*
X175080395Y-70971210D01*
X173908298Y-72143307D01*
X174071011Y-72464568D01*
X174870464Y-72778556D01*
X175729221Y-72762706D01*
X176448989Y-72464568D01*
X176611702Y-72143307D01*
X176611702Y-72848000D01*
X166366487Y-72848000D01*
X166366487Y-69325626D01*
X166159078Y-68823658D01*
X165775362Y-68439272D01*
X165273756Y-68230987D01*
X164730626Y-68230513D01*
X164228658Y-68437922D01*
X163844272Y-68821638D01*
X163635987Y-69323244D01*
X163635513Y-69866374D01*
X163842922Y-70368342D01*
X164226638Y-70752728D01*
X164728244Y-70961013D01*
X165271374Y-70961487D01*
X165773342Y-70754078D01*
X166157728Y-70370362D01*
X166366013Y-69868756D01*
X166366487Y-69325626D01*
X166366487Y-72848000D01*
X153102487Y-72848000D01*
X153102487Y-69325626D01*
X152895078Y-68823658D01*
X152511362Y-68439272D01*
X152019420Y-68234999D01*
X152019420Y-55127849D01*
X152019420Y-55035290D01*
X152019420Y-54467790D01*
X152019420Y-54375231D01*
X151922747Y-54141842D01*
X151744119Y-53963213D01*
X151510730Y-53866540D01*
X151258111Y-53866540D01*
X151220170Y-53866540D01*
X151061420Y-54025290D01*
X151061420Y-54626540D01*
X151860670Y-54626540D01*
X152019420Y-54467790D01*
X152019420Y-55035290D01*
X151860670Y-54876540D01*
X151061420Y-54876540D01*
X151061420Y-54898540D01*
X150807420Y-54898540D01*
X150807420Y-54876540D01*
X150787420Y-54876540D01*
X150787420Y-54626540D01*
X150807420Y-54626540D01*
X150807420Y-54025290D01*
X150648670Y-53866540D01*
X150610729Y-53866540D01*
X150444200Y-53866540D01*
X150444200Y-51243115D01*
X150870374Y-51243487D01*
X151372342Y-51036078D01*
X151756728Y-50652362D01*
X151965013Y-50150756D01*
X151965487Y-49607626D01*
X151758078Y-49105658D01*
X151374362Y-48721272D01*
X150872756Y-48512987D01*
X150329626Y-48512513D01*
X149827658Y-48719922D01*
X149443272Y-49103638D01*
X149234987Y-49605244D01*
X149234513Y-50148374D01*
X149347232Y-50421175D01*
X149222536Y-50607796D01*
X149174200Y-50850800D01*
X149174200Y-53940915D01*
X148988510Y-53864000D01*
X148735891Y-53864000D01*
X148697950Y-53864000D01*
X148539200Y-54022750D01*
X148539200Y-54624000D01*
X148559200Y-54624000D01*
X148559200Y-54874000D01*
X148539200Y-54874000D01*
X148539200Y-54896000D01*
X148285200Y-54896000D01*
X148285200Y-54874000D01*
X148265200Y-54874000D01*
X148265200Y-54624000D01*
X148285200Y-54624000D01*
X148285200Y-54022750D01*
X148126450Y-53864000D01*
X148088509Y-53864000D01*
X147835890Y-53864000D01*
X147735000Y-53905790D01*
X147735000Y-51092826D01*
X147872342Y-51036078D01*
X148256728Y-50652362D01*
X148465013Y-50150756D01*
X148465487Y-49607626D01*
X148258078Y-49105658D01*
X147874362Y-48721272D01*
X147372756Y-48512987D01*
X146829626Y-48512513D01*
X146327658Y-48719922D01*
X145943272Y-49103638D01*
X145734987Y-49605244D01*
X145734513Y-50148374D01*
X145941922Y-50650342D01*
X146325638Y-51034728D01*
X146465000Y-51092596D01*
X146465000Y-53869342D01*
X146445970Y-53861460D01*
X146193351Y-53861460D01*
X146155410Y-53861460D01*
X145996660Y-54020210D01*
X145996660Y-54621460D01*
X146016660Y-54621460D01*
X146016660Y-54871460D01*
X145996660Y-54871460D01*
X145996660Y-54893460D01*
X145742660Y-54893460D01*
X145742660Y-54871460D01*
X145722660Y-54871460D01*
X145722660Y-54621460D01*
X145742660Y-54621460D01*
X145742660Y-54020210D01*
X145583910Y-53861460D01*
X145545969Y-53861460D01*
X145313400Y-53861460D01*
X145313400Y-53111400D01*
X145265064Y-52868396D01*
X145127413Y-52662387D01*
X144235000Y-51769974D01*
X144235000Y-51092826D01*
X144372342Y-51036078D01*
X144756728Y-50652362D01*
X144965013Y-50150756D01*
X144965487Y-49607626D01*
X144758078Y-49105658D01*
X144374362Y-48721272D01*
X143872756Y-48512987D01*
X143329626Y-48512513D01*
X142827658Y-48719922D01*
X142443272Y-49103638D01*
X142234987Y-49605244D01*
X142234513Y-50148374D01*
X142441922Y-50650342D01*
X142825638Y-51034728D01*
X142965000Y-51092596D01*
X142965000Y-52033000D01*
X143013336Y-52276004D01*
X143150987Y-52482013D01*
X144043400Y-53374426D01*
X144043400Y-53916897D01*
X143903430Y-53858920D01*
X143650811Y-53858920D01*
X143612870Y-53858920D01*
X143454120Y-54017670D01*
X143454120Y-54618920D01*
X143474120Y-54618920D01*
X143474120Y-54868920D01*
X143454120Y-54868920D01*
X143454120Y-54890920D01*
X143200120Y-54890920D01*
X143200120Y-54868920D01*
X143200120Y-54618920D01*
X143200120Y-54017670D01*
X143041370Y-53858920D01*
X143003429Y-53858920D01*
X142750810Y-53858920D01*
X142517421Y-53955593D01*
X142338793Y-54134222D01*
X142242120Y-54367611D01*
X142242120Y-54460170D01*
X142400870Y-54618920D01*
X143200120Y-54618920D01*
X143200120Y-54868920D01*
X142400870Y-54868920D01*
X142263908Y-55005882D01*
X140735000Y-53476974D01*
X140735000Y-51092826D01*
X140872342Y-51036078D01*
X141256728Y-50652362D01*
X141465013Y-50150756D01*
X141465487Y-49607626D01*
X141258078Y-49105658D01*
X140874362Y-48721272D01*
X140372756Y-48512987D01*
X139829626Y-48512513D01*
X139327658Y-48719922D01*
X138943272Y-49103638D01*
X138734987Y-49605244D01*
X138734513Y-50148374D01*
X138941922Y-50650342D01*
X139325638Y-51034728D01*
X139465000Y-51092596D01*
X139465000Y-53740000D01*
X139513336Y-53983004D01*
X139650987Y-54189013D01*
X142154907Y-56692933D01*
X142360916Y-56830584D01*
X142603920Y-56878921D01*
X142603920Y-56878920D01*
X142603925Y-56878920D01*
X142692120Y-56878920D01*
X142692120Y-57358043D01*
X142690000Y-57363160D01*
X142677996Y-57334180D01*
X142570819Y-57227004D01*
X142430785Y-57169000D01*
X142279214Y-57169000D01*
X141822026Y-57169000D01*
X137826013Y-53172987D01*
X137620004Y-53035336D01*
X137377000Y-52987000D01*
X135262556Y-52987000D01*
X135262556Y-49030536D01*
X135246706Y-48171779D01*
X134948568Y-47452011D01*
X134627307Y-47289298D01*
X133275605Y-48641000D01*
X134627307Y-49992702D01*
X134948568Y-49829989D01*
X135262556Y-49030536D01*
X135262556Y-52987000D01*
X134945826Y-52987000D01*
X134889078Y-52849658D01*
X134505362Y-52465272D01*
X134447702Y-52441329D01*
X134447702Y-50172307D01*
X133096000Y-48820605D01*
X132916395Y-49000210D01*
X132916395Y-48641000D01*
X131564693Y-47289298D01*
X131243432Y-47452011D01*
X130929444Y-48251464D01*
X130945294Y-49110221D01*
X131243432Y-49829989D01*
X131564693Y-49992702D01*
X132916395Y-48641000D01*
X132916395Y-49000210D01*
X131744298Y-50172307D01*
X131907011Y-50493568D01*
X132706464Y-50807556D01*
X133565221Y-50791706D01*
X134284989Y-50493568D01*
X134447702Y-50172307D01*
X134447702Y-52441329D01*
X134003756Y-52256987D01*
X133460626Y-52256513D01*
X132958658Y-52463922D01*
X132574272Y-52847638D01*
X132365987Y-53349244D01*
X132365513Y-53892374D01*
X132572922Y-54394342D01*
X132956638Y-54778728D01*
X133458244Y-54987013D01*
X134001374Y-54987487D01*
X134503342Y-54780078D01*
X134887728Y-54396362D01*
X134945596Y-54257000D01*
X137113974Y-54257000D01*
X141374000Y-58517026D01*
X141374000Y-59125786D01*
X141432004Y-59265820D01*
X141539181Y-59372996D01*
X141679215Y-59431000D01*
X141830786Y-59431000D01*
X142430786Y-59431000D01*
X142570820Y-59372996D01*
X142677996Y-59265819D01*
X142689999Y-59236839D01*
X142702004Y-59265820D01*
X142809181Y-59372996D01*
X142949215Y-59431000D01*
X143100786Y-59431000D01*
X143700786Y-59431000D01*
X143840820Y-59372996D01*
X143947996Y-59265819D01*
X143959999Y-59236839D01*
X143960000Y-59236839D01*
X143960000Y-59545619D01*
X143928183Y-59577381D01*
X143802243Y-59880677D01*
X143801957Y-60209082D01*
X143927367Y-60512598D01*
X144159381Y-60745017D01*
X144462677Y-60870957D01*
X144791082Y-60871243D01*
X145094598Y-60745833D01*
X145327017Y-60513819D01*
X145452957Y-60210523D01*
X145453243Y-59882118D01*
X145327833Y-59578602D01*
X145230000Y-59480598D01*
X145230000Y-59236839D01*
X145242004Y-59265820D01*
X145349181Y-59372996D01*
X145489215Y-59431000D01*
X145640786Y-59431000D01*
X146240786Y-59431000D01*
X146380820Y-59372996D01*
X146487996Y-59265819D01*
X146499999Y-59236839D01*
X146500000Y-59236839D01*
X146500000Y-59647263D01*
X146442783Y-59704381D01*
X146316843Y-60007677D01*
X146316557Y-60336082D01*
X146441967Y-60639598D01*
X146673981Y-60872017D01*
X146977277Y-60997957D01*
X147305682Y-60998243D01*
X147609198Y-60872833D01*
X147841617Y-60640819D01*
X147967557Y-60337523D01*
X147967843Y-60009118D01*
X147842433Y-59705602D01*
X147770000Y-59633042D01*
X147770000Y-59236839D01*
X147782004Y-59265820D01*
X147889181Y-59372996D01*
X148029215Y-59431000D01*
X148180786Y-59431000D01*
X148780786Y-59431000D01*
X148920820Y-59372996D01*
X149027996Y-59265819D01*
X149039999Y-59236839D01*
X149040000Y-59236839D01*
X149040000Y-59672663D01*
X148982783Y-59729781D01*
X148856843Y-60033077D01*
X148856557Y-60361482D01*
X148981967Y-60664998D01*
X149213981Y-60897417D01*
X149517277Y-61023357D01*
X149845682Y-61023643D01*
X150149198Y-60898233D01*
X150381617Y-60666219D01*
X150507557Y-60362923D01*
X150507843Y-60034518D01*
X150382433Y-59731002D01*
X150310000Y-59658442D01*
X150310000Y-59236839D01*
X150322004Y-59265820D01*
X150429181Y-59372996D01*
X150569215Y-59431000D01*
X150720786Y-59431000D01*
X151320786Y-59431000D01*
X151460820Y-59372996D01*
X151567996Y-59265819D01*
X151626000Y-59125785D01*
X151626000Y-58974214D01*
X151626000Y-57474214D01*
X151569420Y-57337617D01*
X151569420Y-56837302D01*
X151600240Y-56824536D01*
X151707416Y-56717359D01*
X151765420Y-56577325D01*
X151765420Y-56425754D01*
X151765420Y-55925754D01*
X151707416Y-55785720D01*
X151600239Y-55678544D01*
X151498832Y-55636540D01*
X151510730Y-55636540D01*
X151744119Y-55539867D01*
X151922747Y-55361238D01*
X152019420Y-55127849D01*
X152019420Y-68234999D01*
X152009756Y-68230987D01*
X151580000Y-68230611D01*
X151580000Y-65306737D01*
X151580000Y-64636838D01*
X151626000Y-64525785D01*
X151626000Y-64374214D01*
X151626000Y-62874214D01*
X151567996Y-62734180D01*
X151460819Y-62627004D01*
X151320785Y-62569000D01*
X151169214Y-62569000D01*
X150569214Y-62569000D01*
X150429180Y-62627004D01*
X150322004Y-62734181D01*
X150310000Y-62763160D01*
X150297996Y-62734180D01*
X150190819Y-62627004D01*
X150050785Y-62569000D01*
X149899214Y-62569000D01*
X149299214Y-62569000D01*
X149159180Y-62627004D01*
X149052004Y-62734181D01*
X149040000Y-62763160D01*
X149027996Y-62734180D01*
X148920819Y-62627004D01*
X148780785Y-62569000D01*
X148629214Y-62569000D01*
X148029214Y-62569000D01*
X147889180Y-62627004D01*
X147782004Y-62734181D01*
X147770000Y-62763160D01*
X147757996Y-62734180D01*
X147650819Y-62627004D01*
X147510785Y-62569000D01*
X147359214Y-62569000D01*
X146759214Y-62569000D01*
X146619180Y-62627004D01*
X146512004Y-62734181D01*
X146500000Y-62763160D01*
X146487996Y-62734180D01*
X146380819Y-62627004D01*
X146240785Y-62569000D01*
X146089214Y-62569000D01*
X145489214Y-62569000D01*
X145349180Y-62627004D01*
X145242004Y-62734181D01*
X145230000Y-62763160D01*
X145217996Y-62734180D01*
X145110819Y-62627004D01*
X144970785Y-62569000D01*
X144819214Y-62569000D01*
X144219214Y-62569000D01*
X144079180Y-62627004D01*
X143972004Y-62734181D01*
X143960000Y-62763160D01*
X143947996Y-62734180D01*
X143840819Y-62627004D01*
X143700785Y-62569000D01*
X143549214Y-62569000D01*
X142949214Y-62569000D01*
X142809180Y-62627004D01*
X142702004Y-62734181D01*
X142690000Y-62763160D01*
X142690000Y-62045000D01*
X142641664Y-61801996D01*
X142641664Y-61801995D01*
X142504013Y-61595987D01*
X137581013Y-56672987D01*
X137375004Y-56535336D01*
X137132000Y-56487000D01*
X134945826Y-56487000D01*
X134889078Y-56349658D01*
X134505362Y-55965272D01*
X134003756Y-55756987D01*
X133460626Y-55756513D01*
X132958658Y-55963922D01*
X132574272Y-56347638D01*
X132365987Y-56849244D01*
X132365513Y-57392374D01*
X132572922Y-57894342D01*
X132956638Y-58278728D01*
X133458244Y-58487013D01*
X134001374Y-58487487D01*
X134503342Y-58280078D01*
X134887728Y-57896362D01*
X134945596Y-57757000D01*
X136868973Y-57757000D01*
X141420000Y-62308026D01*
X141420000Y-62763161D01*
X141374000Y-62874215D01*
X141374000Y-63025786D01*
X141374000Y-64525786D01*
X141432004Y-64665820D01*
X141539181Y-64772996D01*
X141679215Y-64831000D01*
X141830786Y-64831000D01*
X142430786Y-64831000D01*
X142570820Y-64772996D01*
X142677996Y-64665819D01*
X142689999Y-64636839D01*
X142702004Y-64665820D01*
X142809181Y-64772996D01*
X142949215Y-64831000D01*
X143100786Y-64831000D01*
X143700786Y-64831000D01*
X143840820Y-64772996D01*
X143947996Y-64665819D01*
X143959999Y-64636839D01*
X143972004Y-64665820D01*
X144079181Y-64772996D01*
X144219215Y-64831000D01*
X144370786Y-64831000D01*
X144970786Y-64831000D01*
X145110820Y-64772996D01*
X145217996Y-64665819D01*
X145229999Y-64636839D01*
X145230000Y-64636839D01*
X145230000Y-65428574D01*
X144770974Y-65887600D01*
X135125400Y-65887600D01*
X135125400Y-62004000D01*
X135096378Y-61858096D01*
X135096487Y-61733626D01*
X134889078Y-61231658D01*
X134505362Y-60847272D01*
X134003756Y-60638987D01*
X133460626Y-60638513D01*
X132958658Y-60845922D01*
X132574272Y-61229638D01*
X132365987Y-61731244D01*
X132365513Y-62274374D01*
X132572922Y-62776342D01*
X132956638Y-63160728D01*
X133458244Y-63369013D01*
X134001374Y-63369487D01*
X134503342Y-63162078D01*
X134887728Y-62778362D01*
X135096013Y-62276756D01*
X135096122Y-62151189D01*
X135125400Y-62004000D01*
X135125400Y-65887600D01*
X135049986Y-65887600D01*
X135096013Y-65776756D01*
X135096487Y-65233626D01*
X134889078Y-64731658D01*
X134505362Y-64347272D01*
X134003756Y-64138987D01*
X133460626Y-64138513D01*
X132958658Y-64345922D01*
X132574272Y-64729638D01*
X132365987Y-65231244D01*
X132365513Y-65774374D01*
X132572922Y-66276342D01*
X132956638Y-66660728D01*
X133458244Y-66869013D01*
X134001374Y-66869487D01*
X134140836Y-66811862D01*
X134300587Y-66971613D01*
X134506596Y-67109264D01*
X134749600Y-67157600D01*
X145034000Y-67157600D01*
X145277004Y-67109264D01*
X145483013Y-66971613D01*
X146314009Y-66140615D01*
X146314012Y-66140613D01*
X146314013Y-66140613D01*
X146396528Y-66017120D01*
X146451664Y-65934605D01*
X146451664Y-65934604D01*
X146500000Y-65691600D01*
X146500000Y-64636839D01*
X146512004Y-64665820D01*
X146619181Y-64772996D01*
X146759215Y-64831000D01*
X146910786Y-64831000D01*
X147510786Y-64831000D01*
X147650820Y-64772996D01*
X147757996Y-64665819D01*
X147769999Y-64636839D01*
X147770000Y-64636839D01*
X147770000Y-65606374D01*
X144524667Y-68851706D01*
X144513078Y-68823658D01*
X144129362Y-68439272D01*
X143627756Y-68230987D01*
X143084626Y-68230513D01*
X142582658Y-68437922D01*
X142198272Y-68821638D01*
X141989987Y-69323244D01*
X141989513Y-69866374D01*
X142196922Y-70368342D01*
X142580638Y-70752728D01*
X143082244Y-70961013D01*
X143625374Y-70961487D01*
X144127342Y-70754078D01*
X144511728Y-70370362D01*
X144569596Y-70231000D01*
X144678400Y-70231000D01*
X144921404Y-70182664D01*
X145127413Y-70045013D01*
X148854013Y-66318413D01*
X148991664Y-66112405D01*
X148991664Y-66112404D01*
X149040000Y-65869400D01*
X149040000Y-64636839D01*
X149052004Y-64665820D01*
X149159181Y-64772996D01*
X149299215Y-64831000D01*
X149450786Y-64831000D01*
X150050786Y-64831000D01*
X150190820Y-64772996D01*
X150297996Y-64665819D01*
X150309999Y-64636839D01*
X150310000Y-64636839D01*
X150310000Y-65306737D01*
X150310000Y-68804000D01*
X150358336Y-69047004D01*
X150437497Y-69165477D01*
X150371987Y-69323244D01*
X150371513Y-69866374D01*
X150578922Y-70368342D01*
X150962638Y-70752728D01*
X151464244Y-70961013D01*
X152007374Y-70961487D01*
X152509342Y-70754078D01*
X152893728Y-70370362D01*
X153102013Y-69868756D01*
X153102487Y-69325626D01*
X153102487Y-72848000D01*
X149602487Y-72848000D01*
X149602487Y-69325626D01*
X149395078Y-68823658D01*
X149011362Y-68439272D01*
X148509756Y-68230987D01*
X147966626Y-68230513D01*
X147464658Y-68437922D01*
X147080272Y-68821638D01*
X146871987Y-69323244D01*
X146871513Y-69866374D01*
X147078922Y-70368342D01*
X147462638Y-70752728D01*
X147964244Y-70961013D01*
X148507374Y-70961487D01*
X149009342Y-70754078D01*
X149393728Y-70370362D01*
X149602013Y-69868756D01*
X149602487Y-69325626D01*
X149602487Y-72848000D01*
X141220487Y-72848000D01*
X141220487Y-69325626D01*
X141013078Y-68823658D01*
X140629362Y-68439272D01*
X140127756Y-68230987D01*
X139584626Y-68230513D01*
X139082658Y-68437922D01*
X138698272Y-68821638D01*
X138489987Y-69323244D01*
X138489513Y-69866374D01*
X138696922Y-70368342D01*
X139080638Y-70752728D01*
X139582244Y-70961013D01*
X140125374Y-70961487D01*
X140627342Y-70754078D01*
X141011728Y-70370362D01*
X141220013Y-69868756D01*
X141220487Y-69325626D01*
X141220487Y-72848000D01*
X135262556Y-72848000D01*
X135262556Y-71001536D01*
X135246706Y-70142779D01*
X134948568Y-69423011D01*
X134627307Y-69260298D01*
X134447702Y-69439903D01*
X134447702Y-69080693D01*
X134284989Y-68759432D01*
X133485536Y-68445444D01*
X132626779Y-68461294D01*
X131907011Y-68759432D01*
X131744298Y-69080693D01*
X133096000Y-70432395D01*
X134447702Y-69080693D01*
X134447702Y-69439903D01*
X133275605Y-70612000D01*
X134627307Y-71963702D01*
X134948568Y-71800989D01*
X135262556Y-71001536D01*
X135262556Y-72848000D01*
X134447702Y-72848000D01*
X134447702Y-72143307D01*
X133096000Y-70791605D01*
X132916395Y-70971210D01*
X132916395Y-70612000D01*
X131564693Y-69260298D01*
X131243432Y-69423011D01*
X130929444Y-70222464D01*
X130945294Y-71081221D01*
X131243432Y-71800989D01*
X131564693Y-71963702D01*
X132916395Y-70612000D01*
X132916395Y-70971210D01*
X131744298Y-72143307D01*
X131907011Y-72464568D01*
X132706464Y-72778556D01*
X133565221Y-72762706D01*
X134284989Y-72464568D01*
X134447702Y-72143307D01*
X134447702Y-72848000D01*
X130479000Y-72848000D01*
X130479000Y-46659000D01*
X132219487Y-46659000D01*
X131907011Y-46788432D01*
X131744298Y-47109693D01*
X133096000Y-48461395D01*
X134447702Y-47109693D01*
X134284989Y-46788432D01*
X133955438Y-46659000D01*
X174383487Y-46659000D01*
X174071011Y-46788432D01*
X173908298Y-47109693D01*
X175260000Y-48461395D01*
X176611702Y-47109693D01*
X176448989Y-46788432D01*
X176119438Y-46659000D01*
X177877000Y-46659000D01*
X177877000Y-72848000D01*
X177877000Y-72848000D01*
G37*
X177877000Y-72848000D02*
X177426556Y-72848000D01*
X177426556Y-71001536D01*
X177426556Y-49030536D01*
X177410706Y-48171779D01*
X177112568Y-47452011D01*
X176791307Y-47289298D01*
X175439605Y-48641000D01*
X176791307Y-49992702D01*
X177112568Y-49829989D01*
X177426556Y-49030536D01*
X177426556Y-71001536D01*
X177410706Y-70142779D01*
X177112568Y-69423011D01*
X176791307Y-69260298D01*
X176611702Y-69439903D01*
X176611702Y-69080693D01*
X176611702Y-50172307D01*
X175260000Y-48820605D01*
X175080395Y-49000210D01*
X175080395Y-48641000D01*
X173728693Y-47289298D01*
X173407432Y-47452011D01*
X173093444Y-48251464D01*
X173109294Y-49110221D01*
X173407432Y-49829989D01*
X173728693Y-49992702D01*
X175080395Y-48641000D01*
X175080395Y-49000210D01*
X173908298Y-50172307D01*
X174071011Y-50493568D01*
X174870464Y-50807556D01*
X175729221Y-50791706D01*
X176448989Y-50493568D01*
X176611702Y-50172307D01*
X176611702Y-69080693D01*
X176448989Y-68759432D01*
X175990487Y-68579353D01*
X175990487Y-65233626D01*
X175990487Y-61733626D01*
X175990487Y-56851626D01*
X175783078Y-56349658D01*
X175399362Y-55965272D01*
X174897756Y-55756987D01*
X174354626Y-55756513D01*
X173852658Y-55963922D01*
X173468272Y-56347638D01*
X173259987Y-56849244D01*
X173259513Y-57392374D01*
X173466922Y-57894342D01*
X173850638Y-58278728D01*
X174352244Y-58487013D01*
X174895374Y-58487487D01*
X175397342Y-58280078D01*
X175781728Y-57896362D01*
X175990013Y-57394756D01*
X175990487Y-56851626D01*
X175990487Y-61733626D01*
X175783078Y-61231658D01*
X175399362Y-60847272D01*
X174897756Y-60638987D01*
X174354626Y-60638513D01*
X173852658Y-60845922D01*
X173468272Y-61229638D01*
X173259987Y-61731244D01*
X173259513Y-62274374D01*
X173317137Y-62413836D01*
X171011774Y-64719200D01*
X165514615Y-64719200D01*
X165567996Y-64665819D01*
X165626000Y-64525785D01*
X165626000Y-64374214D01*
X165626000Y-64335000D01*
X166449400Y-64335000D01*
X166692404Y-64286664D01*
X166898413Y-64149013D01*
X172432413Y-58615013D01*
X172570064Y-58409004D01*
X172618400Y-58166000D01*
X172618400Y-56526625D01*
X174215000Y-54930024D01*
X174352244Y-54987013D01*
X174895374Y-54987487D01*
X175397342Y-54780078D01*
X175781728Y-54396362D01*
X175990013Y-53894756D01*
X175990487Y-53351626D01*
X175783078Y-52849658D01*
X175399362Y-52465272D01*
X174897756Y-52256987D01*
X174354626Y-52256513D01*
X173852658Y-52463922D01*
X173468272Y-52847638D01*
X173259987Y-53349244D01*
X173259513Y-53892374D01*
X173317137Y-54031836D01*
X171534387Y-55814587D01*
X171396736Y-56020596D01*
X171348400Y-56263600D01*
X171348400Y-57902974D01*
X169730247Y-59521127D01*
X169730247Y-50138780D01*
X169705948Y-49495061D01*
X169506356Y-49013203D01*
X169241135Y-48916470D01*
X169061530Y-49096075D01*
X169061530Y-48736865D01*
X168964797Y-48471644D01*
X168360780Y-48247753D01*
X167717061Y-48272052D01*
X167235203Y-48471644D01*
X167138470Y-48736865D01*
X168100000Y-49698395D01*
X169061530Y-48736865D01*
X169061530Y-49096075D01*
X168279605Y-49878000D01*
X169241135Y-50839530D01*
X169506356Y-50742797D01*
X169730247Y-50138780D01*
X169730247Y-59521127D01*
X169061530Y-60189844D01*
X169061530Y-51019135D01*
X168100000Y-50057605D01*
X167920395Y-50237210D01*
X167920395Y-49878000D01*
X166958865Y-48916470D01*
X166693644Y-49013203D01*
X166469753Y-49617220D01*
X166494052Y-50260939D01*
X166693644Y-50742797D01*
X166958865Y-50839530D01*
X167920395Y-49878000D01*
X167920395Y-50237210D01*
X167138470Y-51019135D01*
X167235203Y-51284356D01*
X167839220Y-51508247D01*
X168482939Y-51483948D01*
X168964797Y-51284356D01*
X169061530Y-51019135D01*
X169061530Y-60189844D01*
X166186374Y-63065000D01*
X165965487Y-63065000D01*
X165965487Y-49607626D01*
X165758078Y-49105658D01*
X165374362Y-48721272D01*
X164872756Y-48512987D01*
X164329626Y-48512513D01*
X163827658Y-48719922D01*
X163443272Y-49103638D01*
X163234987Y-49605244D01*
X163234513Y-50148374D01*
X163351432Y-50431341D01*
X163330187Y-50452587D01*
X163192536Y-50658596D01*
X163144200Y-50901600D01*
X163144200Y-53879594D01*
X162983910Y-53813200D01*
X162731291Y-53813200D01*
X162693350Y-53813200D01*
X162534600Y-53971950D01*
X162534600Y-54573200D01*
X162554600Y-54573200D01*
X162554600Y-54823200D01*
X162534600Y-54823200D01*
X162534600Y-54845200D01*
X162280600Y-54845200D01*
X162280600Y-54823200D01*
X162260600Y-54823200D01*
X162260600Y-54573200D01*
X162280600Y-54573200D01*
X162280600Y-53971950D01*
X162121850Y-53813200D01*
X162083909Y-53813200D01*
X161831290Y-53813200D01*
X161735000Y-53853084D01*
X161735000Y-51092826D01*
X161872342Y-51036078D01*
X162256728Y-50652362D01*
X162465013Y-50150756D01*
X162465487Y-49607626D01*
X162258078Y-49105658D01*
X161874362Y-48721272D01*
X161372756Y-48512987D01*
X160829626Y-48512513D01*
X160327658Y-48719922D01*
X159943272Y-49103638D01*
X159734987Y-49605244D01*
X159734513Y-50148374D01*
X159941922Y-50650342D01*
X160325638Y-51034728D01*
X160465000Y-51092596D01*
X160465000Y-53821935D01*
X160443910Y-53813200D01*
X160191291Y-53813200D01*
X160153350Y-53813200D01*
X159994600Y-53971950D01*
X159994600Y-54573200D01*
X160014600Y-54573200D01*
X160014600Y-54823200D01*
X159994600Y-54823200D01*
X159994600Y-54845200D01*
X159740600Y-54845200D01*
X159740600Y-54823200D01*
X159720600Y-54823200D01*
X159720600Y-54573200D01*
X159740600Y-54573200D01*
X159740600Y-53971950D01*
X159581850Y-53813200D01*
X159543909Y-53813200D01*
X159385000Y-53813200D01*
X159385000Y-52628805D01*
X159385000Y-52628800D01*
X159385001Y-52628800D01*
X159336664Y-52385796D01*
X159199013Y-52179787D01*
X158235000Y-51215774D01*
X158235000Y-51092826D01*
X158372342Y-51036078D01*
X158756728Y-50652362D01*
X158965013Y-50150756D01*
X158965487Y-49607626D01*
X158758078Y-49105658D01*
X158374362Y-48721272D01*
X157872756Y-48512987D01*
X157329626Y-48512513D01*
X156827658Y-48719922D01*
X156443272Y-49103638D01*
X156234987Y-49605244D01*
X156234513Y-50148374D01*
X156441922Y-50650342D01*
X156825638Y-51034728D01*
X156965000Y-51092596D01*
X156965000Y-51478800D01*
X157013336Y-51721804D01*
X157150987Y-51927813D01*
X158115000Y-52891826D01*
X158115000Y-53900636D01*
X157903910Y-53813200D01*
X157651291Y-53813200D01*
X157613350Y-53813200D01*
X157454600Y-53971950D01*
X157454600Y-54573200D01*
X157474600Y-54573200D01*
X157474600Y-54823200D01*
X157454600Y-54823200D01*
X157454600Y-54845200D01*
X157200600Y-54845200D01*
X157200600Y-54823200D01*
X157200600Y-54573200D01*
X157200600Y-53971950D01*
X157041850Y-53813200D01*
X157003909Y-53813200D01*
X156751290Y-53813200D01*
X156517901Y-53909873D01*
X156339273Y-54088502D01*
X156242600Y-54321891D01*
X156242600Y-54414450D01*
X156401350Y-54573200D01*
X157200600Y-54573200D01*
X157200600Y-54823200D01*
X156401350Y-54823200D01*
X156251688Y-54972862D01*
X154735000Y-53456174D01*
X154735000Y-51092826D01*
X154872342Y-51036078D01*
X155256728Y-50652362D01*
X155465013Y-50150756D01*
X155465487Y-49607626D01*
X155258078Y-49105658D01*
X154874362Y-48721272D01*
X154372756Y-48512987D01*
X153829626Y-48512513D01*
X153327658Y-48719922D01*
X152943272Y-49103638D01*
X152734987Y-49605244D01*
X152734513Y-50148374D01*
X152941922Y-50650342D01*
X153325638Y-51034728D01*
X153465000Y-51092596D01*
X153465000Y-53719200D01*
X153513336Y-53962204D01*
X153650987Y-54168213D01*
X156129987Y-56647213D01*
X156335995Y-56784864D01*
X156335996Y-56784864D01*
X156579000Y-56833200D01*
X156690000Y-56833200D01*
X156690000Y-57363160D01*
X156677996Y-57334180D01*
X156570819Y-57227004D01*
X156430785Y-57169000D01*
X156279214Y-57169000D01*
X155679214Y-57169000D01*
X155539180Y-57227004D01*
X155432004Y-57334181D01*
X155374000Y-57474215D01*
X155374000Y-57625786D01*
X155374000Y-58082974D01*
X154059187Y-59397787D01*
X153921536Y-59603796D01*
X153873200Y-59846800D01*
X153873200Y-67485200D01*
X153921536Y-67728204D01*
X154059187Y-67934213D01*
X155310975Y-69186001D01*
X155253987Y-69323244D01*
X155253513Y-69866374D01*
X155460922Y-70368342D01*
X155844638Y-70752728D01*
X156346244Y-70961013D01*
X156889374Y-70961487D01*
X157391342Y-70754078D01*
X157775728Y-70370362D01*
X157984013Y-69868756D01*
X157984487Y-69325626D01*
X157777078Y-68823658D01*
X157393362Y-68439272D01*
X156891756Y-68230987D01*
X156348626Y-68230513D01*
X156209163Y-68288137D01*
X155143200Y-67222174D01*
X155143200Y-60109825D01*
X155822025Y-59431000D01*
X155830786Y-59431000D01*
X156430786Y-59431000D01*
X156570820Y-59372996D01*
X156677996Y-59265819D01*
X156689999Y-59236839D01*
X156702004Y-59265820D01*
X156809181Y-59372996D01*
X156949215Y-59431000D01*
X157100786Y-59431000D01*
X157700786Y-59431000D01*
X157840820Y-59372996D01*
X157947996Y-59265819D01*
X157959999Y-59236839D01*
X157960000Y-59236839D01*
X157960000Y-59668071D01*
X157898183Y-59729781D01*
X157772243Y-60033077D01*
X157771957Y-60361482D01*
X157897367Y-60664998D01*
X158129381Y-60897417D01*
X158432677Y-61023357D01*
X158761082Y-61023643D01*
X159064598Y-60898233D01*
X159297017Y-60666219D01*
X159422957Y-60362923D01*
X159423243Y-60034518D01*
X159297833Y-59731002D01*
X159230000Y-59663050D01*
X159230000Y-59236839D01*
X159242004Y-59265820D01*
X159349181Y-59372996D01*
X159489215Y-59431000D01*
X159640786Y-59431000D01*
X160240786Y-59431000D01*
X160380820Y-59372996D01*
X160487996Y-59265819D01*
X160499999Y-59236839D01*
X160500000Y-59236839D01*
X160500000Y-59718871D01*
X160438183Y-59780581D01*
X160312243Y-60083877D01*
X160311957Y-60412282D01*
X160437367Y-60715798D01*
X160669381Y-60948217D01*
X160972677Y-61074157D01*
X161301082Y-61074443D01*
X161604598Y-60949033D01*
X161837017Y-60717019D01*
X161962957Y-60413723D01*
X161963243Y-60085318D01*
X161837833Y-59781802D01*
X161772600Y-59716455D01*
X161772600Y-59243116D01*
X161782004Y-59265820D01*
X161889181Y-59372996D01*
X162029215Y-59431000D01*
X162180786Y-59431000D01*
X162780786Y-59431000D01*
X162920820Y-59372996D01*
X163027996Y-59265819D01*
X163039999Y-59236839D01*
X163040000Y-59236839D01*
X163040000Y-59738200D01*
X163088336Y-59981204D01*
X163225987Y-60187213D01*
X163563236Y-60524462D01*
X163563157Y-60615482D01*
X163688567Y-60918998D01*
X163920581Y-61151417D01*
X164223877Y-61277357D01*
X164552282Y-61277643D01*
X164855798Y-61152233D01*
X165088217Y-60920219D01*
X165214157Y-60616923D01*
X165214443Y-60288518D01*
X165089033Y-59985002D01*
X164857019Y-59752583D01*
X164553723Y-59626643D01*
X164461388Y-59626562D01*
X164310000Y-59475174D01*
X164310000Y-59236839D01*
X164322004Y-59265820D01*
X164429181Y-59372996D01*
X164569215Y-59431000D01*
X164720786Y-59431000D01*
X165320786Y-59431000D01*
X165460820Y-59372996D01*
X165567996Y-59265819D01*
X165626000Y-59125785D01*
X165626000Y-58974214D01*
X165626000Y-57474214D01*
X165580000Y-57363160D01*
X165580000Y-56753815D01*
X165644396Y-56689419D01*
X165702400Y-56549385D01*
X165702400Y-56397814D01*
X165702400Y-55897814D01*
X165644396Y-55757780D01*
X165537219Y-55650604D01*
X165435812Y-55608600D01*
X165447710Y-55608600D01*
X165681099Y-55511927D01*
X165859727Y-55333298D01*
X165956400Y-55099909D01*
X165956400Y-55007350D01*
X165956400Y-54439850D01*
X165956400Y-54347291D01*
X165859727Y-54113902D01*
X165681099Y-53935273D01*
X165447710Y-53838600D01*
X165195091Y-53838600D01*
X165157150Y-53838600D01*
X164998400Y-53997350D01*
X164998400Y-54598600D01*
X165797650Y-54598600D01*
X165956400Y-54439850D01*
X165956400Y-55007350D01*
X165797650Y-54848600D01*
X164998400Y-54848600D01*
X164998400Y-54870600D01*
X164744400Y-54870600D01*
X164744400Y-54848600D01*
X164724400Y-54848600D01*
X164724400Y-54598600D01*
X164744400Y-54598600D01*
X164744400Y-53997350D01*
X164585650Y-53838600D01*
X164547709Y-53838600D01*
X164414200Y-53838600D01*
X164414200Y-51243088D01*
X164870374Y-51243487D01*
X165372342Y-51036078D01*
X165756728Y-50652362D01*
X165965013Y-50150756D01*
X165965487Y-49607626D01*
X165965487Y-63065000D01*
X165626000Y-63065000D01*
X165626000Y-62874214D01*
X165567996Y-62734180D01*
X165460819Y-62627004D01*
X165320785Y-62569000D01*
X165169214Y-62569000D01*
X164569214Y-62569000D01*
X164429180Y-62627004D01*
X164322004Y-62734181D01*
X164310000Y-62763160D01*
X164297996Y-62734180D01*
X164190819Y-62627004D01*
X164050785Y-62569000D01*
X163899214Y-62569000D01*
X163299214Y-62569000D01*
X163159180Y-62627004D01*
X163052004Y-62734181D01*
X163040000Y-62763160D01*
X163027996Y-62734180D01*
X162920819Y-62627004D01*
X162780785Y-62569000D01*
X162629214Y-62569000D01*
X162029214Y-62569000D01*
X161889180Y-62627004D01*
X161782004Y-62734181D01*
X161770000Y-62763160D01*
X161757996Y-62734180D01*
X161650819Y-62627004D01*
X161510785Y-62569000D01*
X161359214Y-62569000D01*
X160759214Y-62569000D01*
X160619180Y-62627004D01*
X160512004Y-62734181D01*
X160500000Y-62763160D01*
X160487996Y-62734180D01*
X160380819Y-62627004D01*
X160240785Y-62569000D01*
X160089214Y-62569000D01*
X159489214Y-62569000D01*
X159349180Y-62627004D01*
X159242004Y-62734181D01*
X159230000Y-62763160D01*
X159217996Y-62734180D01*
X159110819Y-62627004D01*
X158970785Y-62569000D01*
X158819214Y-62569000D01*
X158219214Y-62569000D01*
X158079180Y-62627004D01*
X157972004Y-62734181D01*
X157960000Y-62763160D01*
X157947996Y-62734180D01*
X157840819Y-62627004D01*
X157700785Y-62569000D01*
X157549214Y-62569000D01*
X156949214Y-62569000D01*
X156809180Y-62627004D01*
X156702004Y-62734181D01*
X156690000Y-62763160D01*
X156677996Y-62734180D01*
X156570819Y-62627004D01*
X156430785Y-62569000D01*
X156279214Y-62569000D01*
X155679214Y-62569000D01*
X155539180Y-62627004D01*
X155432004Y-62734181D01*
X155374000Y-62874215D01*
X155374000Y-63025786D01*
X155374000Y-64525786D01*
X155432004Y-64665820D01*
X155539181Y-64772996D01*
X155679215Y-64831000D01*
X155830786Y-64831000D01*
X156430786Y-64831000D01*
X156570820Y-64772996D01*
X156677996Y-64665819D01*
X156689999Y-64636839D01*
X156690000Y-64636839D01*
X156690000Y-66802000D01*
X156738336Y-67045004D01*
X156875987Y-67251013D01*
X158810975Y-69186001D01*
X158753987Y-69323244D01*
X158753513Y-69866374D01*
X158960922Y-70368342D01*
X159344638Y-70752728D01*
X159846244Y-70961013D01*
X160389374Y-70961487D01*
X160891342Y-70754078D01*
X161275728Y-70370362D01*
X161484013Y-69868756D01*
X161484487Y-69325626D01*
X161277078Y-68823658D01*
X160893362Y-68439272D01*
X160391756Y-68230987D01*
X159848626Y-68230513D01*
X159709163Y-68288137D01*
X157960000Y-66538974D01*
X157960000Y-64636839D01*
X157972004Y-64665820D01*
X158079181Y-64772996D01*
X158219215Y-64831000D01*
X158370786Y-64831000D01*
X158970786Y-64831000D01*
X159110820Y-64772996D01*
X159217996Y-64665819D01*
X159229999Y-64636839D01*
X159230000Y-64636839D01*
X159230000Y-65834200D01*
X159278336Y-66077204D01*
X159415987Y-66283213D01*
X160104387Y-66971613D01*
X160310396Y-67109264D01*
X160553400Y-67157601D01*
X160553400Y-67157600D01*
X160553405Y-67157600D01*
X165164574Y-67157600D01*
X167192975Y-69186001D01*
X167135987Y-69323244D01*
X167135513Y-69866374D01*
X167342922Y-70368342D01*
X167726638Y-70752728D01*
X168228244Y-70961013D01*
X168771374Y-70961487D01*
X169273342Y-70754078D01*
X169657728Y-70370362D01*
X169866013Y-69868756D01*
X169866487Y-69325626D01*
X169659078Y-68823658D01*
X169275362Y-68439272D01*
X168773756Y-68230987D01*
X168230626Y-68230513D01*
X168091163Y-68288137D01*
X165876613Y-66073587D01*
X165750319Y-65989200D01*
X171274800Y-65989200D01*
X171517804Y-65940864D01*
X171723813Y-65803213D01*
X174215001Y-63312024D01*
X174352244Y-63369013D01*
X174895374Y-63369487D01*
X175397342Y-63162078D01*
X175781728Y-62778362D01*
X175990013Y-62276756D01*
X175990487Y-61733626D01*
X175990487Y-65233626D01*
X175783078Y-64731658D01*
X175399362Y-64347272D01*
X174897756Y-64138987D01*
X174354626Y-64138513D01*
X173852658Y-64345922D01*
X173468272Y-64729638D01*
X173259987Y-65231244D01*
X173259513Y-65774374D01*
X173466922Y-66276342D01*
X173850638Y-66660728D01*
X174352244Y-66869013D01*
X174895374Y-66869487D01*
X175397342Y-66662078D01*
X175781728Y-66278362D01*
X175990013Y-65776756D01*
X175990487Y-65233626D01*
X175990487Y-68579353D01*
X175649536Y-68445444D01*
X174790779Y-68461294D01*
X174071011Y-68759432D01*
X173908298Y-69080693D01*
X175260000Y-70432395D01*
X176611702Y-69080693D01*
X176611702Y-69439903D01*
X175439605Y-70612000D01*
X176791307Y-71963702D01*
X177112568Y-71800989D01*
X177426556Y-71001536D01*
X177426556Y-72848000D01*
X176611702Y-72848000D01*
X176611702Y-72143307D01*
X175260000Y-70791605D01*
X175080395Y-70971210D01*
X175080395Y-70612000D01*
X173728693Y-69260298D01*
X173407432Y-69423011D01*
X173093444Y-70222464D01*
X173109294Y-71081221D01*
X173407432Y-71800989D01*
X173728693Y-71963702D01*
X175080395Y-70612000D01*
X175080395Y-70971210D01*
X173908298Y-72143307D01*
X174071011Y-72464568D01*
X174870464Y-72778556D01*
X175729221Y-72762706D01*
X176448989Y-72464568D01*
X176611702Y-72143307D01*
X176611702Y-72848000D01*
X166366487Y-72848000D01*
X166366487Y-69325626D01*
X166159078Y-68823658D01*
X165775362Y-68439272D01*
X165273756Y-68230987D01*
X164730626Y-68230513D01*
X164228658Y-68437922D01*
X163844272Y-68821638D01*
X163635987Y-69323244D01*
X163635513Y-69866374D01*
X163842922Y-70368342D01*
X164226638Y-70752728D01*
X164728244Y-70961013D01*
X165271374Y-70961487D01*
X165773342Y-70754078D01*
X166157728Y-70370362D01*
X166366013Y-69868756D01*
X166366487Y-69325626D01*
X166366487Y-72848000D01*
X153102487Y-72848000D01*
X153102487Y-69325626D01*
X152895078Y-68823658D01*
X152511362Y-68439272D01*
X152019420Y-68234999D01*
X152019420Y-55127849D01*
X152019420Y-55035290D01*
X152019420Y-54467790D01*
X152019420Y-54375231D01*
X151922747Y-54141842D01*
X151744119Y-53963213D01*
X151510730Y-53866540D01*
X151258111Y-53866540D01*
X151220170Y-53866540D01*
X151061420Y-54025290D01*
X151061420Y-54626540D01*
X151860670Y-54626540D01*
X152019420Y-54467790D01*
X152019420Y-55035290D01*
X151860670Y-54876540D01*
X151061420Y-54876540D01*
X151061420Y-54898540D01*
X150807420Y-54898540D01*
X150807420Y-54876540D01*
X150787420Y-54876540D01*
X150787420Y-54626540D01*
X150807420Y-54626540D01*
X150807420Y-54025290D01*
X150648670Y-53866540D01*
X150610729Y-53866540D01*
X150444200Y-53866540D01*
X150444200Y-51243115D01*
X150870374Y-51243487D01*
X151372342Y-51036078D01*
X151756728Y-50652362D01*
X151965013Y-50150756D01*
X151965487Y-49607626D01*
X151758078Y-49105658D01*
X151374362Y-48721272D01*
X150872756Y-48512987D01*
X150329626Y-48512513D01*
X149827658Y-48719922D01*
X149443272Y-49103638D01*
X149234987Y-49605244D01*
X149234513Y-50148374D01*
X149347232Y-50421175D01*
X149222536Y-50607796D01*
X149174200Y-50850800D01*
X149174200Y-53940915D01*
X148988510Y-53864000D01*
X148735891Y-53864000D01*
X148697950Y-53864000D01*
X148539200Y-54022750D01*
X148539200Y-54624000D01*
X148559200Y-54624000D01*
X148559200Y-54874000D01*
X148539200Y-54874000D01*
X148539200Y-54896000D01*
X148285200Y-54896000D01*
X148285200Y-54874000D01*
X148265200Y-54874000D01*
X148265200Y-54624000D01*
X148285200Y-54624000D01*
X148285200Y-54022750D01*
X148126450Y-53864000D01*
X148088509Y-53864000D01*
X147835890Y-53864000D01*
X147735000Y-53905790D01*
X147735000Y-51092826D01*
X147872342Y-51036078D01*
X148256728Y-50652362D01*
X148465013Y-50150756D01*
X148465487Y-49607626D01*
X148258078Y-49105658D01*
X147874362Y-48721272D01*
X147372756Y-48512987D01*
X146829626Y-48512513D01*
X146327658Y-48719922D01*
X145943272Y-49103638D01*
X145734987Y-49605244D01*
X145734513Y-50148374D01*
X145941922Y-50650342D01*
X146325638Y-51034728D01*
X146465000Y-51092596D01*
X146465000Y-53869342D01*
X146445970Y-53861460D01*
X146193351Y-53861460D01*
X146155410Y-53861460D01*
X145996660Y-54020210D01*
X145996660Y-54621460D01*
X146016660Y-54621460D01*
X146016660Y-54871460D01*
X145996660Y-54871460D01*
X145996660Y-54893460D01*
X145742660Y-54893460D01*
X145742660Y-54871460D01*
X145722660Y-54871460D01*
X145722660Y-54621460D01*
X145742660Y-54621460D01*
X145742660Y-54020210D01*
X145583910Y-53861460D01*
X145545969Y-53861460D01*
X145313400Y-53861460D01*
X145313400Y-53111400D01*
X145265064Y-52868396D01*
X145127413Y-52662387D01*
X144235000Y-51769974D01*
X144235000Y-51092826D01*
X144372342Y-51036078D01*
X144756728Y-50652362D01*
X144965013Y-50150756D01*
X144965487Y-49607626D01*
X144758078Y-49105658D01*
X144374362Y-48721272D01*
X143872756Y-48512987D01*
X143329626Y-48512513D01*
X142827658Y-48719922D01*
X142443272Y-49103638D01*
X142234987Y-49605244D01*
X142234513Y-50148374D01*
X142441922Y-50650342D01*
X142825638Y-51034728D01*
X142965000Y-51092596D01*
X142965000Y-52033000D01*
X143013336Y-52276004D01*
X143150987Y-52482013D01*
X144043400Y-53374426D01*
X144043400Y-53916897D01*
X143903430Y-53858920D01*
X143650811Y-53858920D01*
X143612870Y-53858920D01*
X143454120Y-54017670D01*
X143454120Y-54618920D01*
X143474120Y-54618920D01*
X143474120Y-54868920D01*
X143454120Y-54868920D01*
X143454120Y-54890920D01*
X143200120Y-54890920D01*
X143200120Y-54868920D01*
X143200120Y-54618920D01*
X143200120Y-54017670D01*
X143041370Y-53858920D01*
X143003429Y-53858920D01*
X142750810Y-53858920D01*
X142517421Y-53955593D01*
X142338793Y-54134222D01*
X142242120Y-54367611D01*
X142242120Y-54460170D01*
X142400870Y-54618920D01*
X143200120Y-54618920D01*
X143200120Y-54868920D01*
X142400870Y-54868920D01*
X142263908Y-55005882D01*
X140735000Y-53476974D01*
X140735000Y-51092826D01*
X140872342Y-51036078D01*
X141256728Y-50652362D01*
X141465013Y-50150756D01*
X141465487Y-49607626D01*
X141258078Y-49105658D01*
X140874362Y-48721272D01*
X140372756Y-48512987D01*
X139829626Y-48512513D01*
X139327658Y-48719922D01*
X138943272Y-49103638D01*
X138734987Y-49605244D01*
X138734513Y-50148374D01*
X138941922Y-50650342D01*
X139325638Y-51034728D01*
X139465000Y-51092596D01*
X139465000Y-53740000D01*
X139513336Y-53983004D01*
X139650987Y-54189013D01*
X142154907Y-56692933D01*
X142360916Y-56830584D01*
X142603920Y-56878921D01*
X142603920Y-56878920D01*
X142603925Y-56878920D01*
X142692120Y-56878920D01*
X142692120Y-57358043D01*
X142690000Y-57363160D01*
X142677996Y-57334180D01*
X142570819Y-57227004D01*
X142430785Y-57169000D01*
X142279214Y-57169000D01*
X141822026Y-57169000D01*
X137826013Y-53172987D01*
X137620004Y-53035336D01*
X137377000Y-52987000D01*
X135262556Y-52987000D01*
X135262556Y-49030536D01*
X135246706Y-48171779D01*
X134948568Y-47452011D01*
X134627307Y-47289298D01*
X133275605Y-48641000D01*
X134627307Y-49992702D01*
X134948568Y-49829989D01*
X135262556Y-49030536D01*
X135262556Y-52987000D01*
X134945826Y-52987000D01*
X134889078Y-52849658D01*
X134505362Y-52465272D01*
X134447702Y-52441329D01*
X134447702Y-50172307D01*
X133096000Y-48820605D01*
X132916395Y-49000210D01*
X132916395Y-48641000D01*
X131564693Y-47289298D01*
X131243432Y-47452011D01*
X130929444Y-48251464D01*
X130945294Y-49110221D01*
X131243432Y-49829989D01*
X131564693Y-49992702D01*
X132916395Y-48641000D01*
X132916395Y-49000210D01*
X131744298Y-50172307D01*
X131907011Y-50493568D01*
X132706464Y-50807556D01*
X133565221Y-50791706D01*
X134284989Y-50493568D01*
X134447702Y-50172307D01*
X134447702Y-52441329D01*
X134003756Y-52256987D01*
X133460626Y-52256513D01*
X132958658Y-52463922D01*
X132574272Y-52847638D01*
X132365987Y-53349244D01*
X132365513Y-53892374D01*
X132572922Y-54394342D01*
X132956638Y-54778728D01*
X133458244Y-54987013D01*
X134001374Y-54987487D01*
X134503342Y-54780078D01*
X134887728Y-54396362D01*
X134945596Y-54257000D01*
X137113974Y-54257000D01*
X141374000Y-58517026D01*
X141374000Y-59125786D01*
X141432004Y-59265820D01*
X141539181Y-59372996D01*
X141679215Y-59431000D01*
X141830786Y-59431000D01*
X142430786Y-59431000D01*
X142570820Y-59372996D01*
X142677996Y-59265819D01*
X142689999Y-59236839D01*
X142702004Y-59265820D01*
X142809181Y-59372996D01*
X142949215Y-59431000D01*
X143100786Y-59431000D01*
X143700786Y-59431000D01*
X143840820Y-59372996D01*
X143947996Y-59265819D01*
X143959999Y-59236839D01*
X143960000Y-59236839D01*
X143960000Y-59545619D01*
X143928183Y-59577381D01*
X143802243Y-59880677D01*
X143801957Y-60209082D01*
X143927367Y-60512598D01*
X144159381Y-60745017D01*
X144462677Y-60870957D01*
X144791082Y-60871243D01*
X145094598Y-60745833D01*
X145327017Y-60513819D01*
X145452957Y-60210523D01*
X145453243Y-59882118D01*
X145327833Y-59578602D01*
X145230000Y-59480598D01*
X145230000Y-59236839D01*
X145242004Y-59265820D01*
X145349181Y-59372996D01*
X145489215Y-59431000D01*
X145640786Y-59431000D01*
X146240786Y-59431000D01*
X146380820Y-59372996D01*
X146487996Y-59265819D01*
X146499999Y-59236839D01*
X146500000Y-59236839D01*
X146500000Y-59647263D01*
X146442783Y-59704381D01*
X146316843Y-60007677D01*
X146316557Y-60336082D01*
X146441967Y-60639598D01*
X146673981Y-60872017D01*
X146977277Y-60997957D01*
X147305682Y-60998243D01*
X147609198Y-60872833D01*
X147841617Y-60640819D01*
X147967557Y-60337523D01*
X147967843Y-60009118D01*
X147842433Y-59705602D01*
X147770000Y-59633042D01*
X147770000Y-59236839D01*
X147782004Y-59265820D01*
X147889181Y-59372996D01*
X148029215Y-59431000D01*
X148180786Y-59431000D01*
X148780786Y-59431000D01*
X148920820Y-59372996D01*
X149027996Y-59265819D01*
X149039999Y-59236839D01*
X149040000Y-59236839D01*
X149040000Y-59672663D01*
X148982783Y-59729781D01*
X148856843Y-60033077D01*
X148856557Y-60361482D01*
X148981967Y-60664998D01*
X149213981Y-60897417D01*
X149517277Y-61023357D01*
X149845682Y-61023643D01*
X150149198Y-60898233D01*
X150381617Y-60666219D01*
X150507557Y-60362923D01*
X150507843Y-60034518D01*
X150382433Y-59731002D01*
X150310000Y-59658442D01*
X150310000Y-59236839D01*
X150322004Y-59265820D01*
X150429181Y-59372996D01*
X150569215Y-59431000D01*
X150720786Y-59431000D01*
X151320786Y-59431000D01*
X151460820Y-59372996D01*
X151567996Y-59265819D01*
X151626000Y-59125785D01*
X151626000Y-58974214D01*
X151626000Y-57474214D01*
X151569420Y-57337617D01*
X151569420Y-56837302D01*
X151600240Y-56824536D01*
X151707416Y-56717359D01*
X151765420Y-56577325D01*
X151765420Y-56425754D01*
X151765420Y-55925754D01*
X151707416Y-55785720D01*
X151600239Y-55678544D01*
X151498832Y-55636540D01*
X151510730Y-55636540D01*
X151744119Y-55539867D01*
X151922747Y-55361238D01*
X152019420Y-55127849D01*
X152019420Y-68234999D01*
X152009756Y-68230987D01*
X151580000Y-68230611D01*
X151580000Y-65306737D01*
X151580000Y-64636838D01*
X151626000Y-64525785D01*
X151626000Y-64374214D01*
X151626000Y-62874214D01*
X151567996Y-62734180D01*
X151460819Y-62627004D01*
X151320785Y-62569000D01*
X151169214Y-62569000D01*
X150569214Y-62569000D01*
X150429180Y-62627004D01*
X150322004Y-62734181D01*
X150310000Y-62763160D01*
X150297996Y-62734180D01*
X150190819Y-62627004D01*
X150050785Y-62569000D01*
X149899214Y-62569000D01*
X149299214Y-62569000D01*
X149159180Y-62627004D01*
X149052004Y-62734181D01*
X149040000Y-62763160D01*
X149027996Y-62734180D01*
X148920819Y-62627004D01*
X148780785Y-62569000D01*
X148629214Y-62569000D01*
X148029214Y-62569000D01*
X147889180Y-62627004D01*
X147782004Y-62734181D01*
X147770000Y-62763160D01*
X147757996Y-62734180D01*
X147650819Y-62627004D01*
X147510785Y-62569000D01*
X147359214Y-62569000D01*
X146759214Y-62569000D01*
X146619180Y-62627004D01*
X146512004Y-62734181D01*
X146500000Y-62763160D01*
X146487996Y-62734180D01*
X146380819Y-62627004D01*
X146240785Y-62569000D01*
X146089214Y-62569000D01*
X145489214Y-62569000D01*
X145349180Y-62627004D01*
X145242004Y-62734181D01*
X145230000Y-62763160D01*
X145217996Y-62734180D01*
X145110819Y-62627004D01*
X144970785Y-62569000D01*
X144819214Y-62569000D01*
X144219214Y-62569000D01*
X144079180Y-62627004D01*
X143972004Y-62734181D01*
X143960000Y-62763160D01*
X143947996Y-62734180D01*
X143840819Y-62627004D01*
X143700785Y-62569000D01*
X143549214Y-62569000D01*
X142949214Y-62569000D01*
X142809180Y-62627004D01*
X142702004Y-62734181D01*
X142690000Y-62763160D01*
X142690000Y-62045000D01*
X142641664Y-61801996D01*
X142641664Y-61801995D01*
X142504013Y-61595987D01*
X137581013Y-56672987D01*
X137375004Y-56535336D01*
X137132000Y-56487000D01*
X134945826Y-56487000D01*
X134889078Y-56349658D01*
X134505362Y-55965272D01*
X134003756Y-55756987D01*
X133460626Y-55756513D01*
X132958658Y-55963922D01*
X132574272Y-56347638D01*
X132365987Y-56849244D01*
X132365513Y-57392374D01*
X132572922Y-57894342D01*
X132956638Y-58278728D01*
X133458244Y-58487013D01*
X134001374Y-58487487D01*
X134503342Y-58280078D01*
X134887728Y-57896362D01*
X134945596Y-57757000D01*
X136868973Y-57757000D01*
X141420000Y-62308026D01*
X141420000Y-62763161D01*
X141374000Y-62874215D01*
X141374000Y-63025786D01*
X141374000Y-64525786D01*
X141432004Y-64665820D01*
X141539181Y-64772996D01*
X141679215Y-64831000D01*
X141830786Y-64831000D01*
X142430786Y-64831000D01*
X142570820Y-64772996D01*
X142677996Y-64665819D01*
X142689999Y-64636839D01*
X142702004Y-64665820D01*
X142809181Y-64772996D01*
X142949215Y-64831000D01*
X143100786Y-64831000D01*
X143700786Y-64831000D01*
X143840820Y-64772996D01*
X143947996Y-64665819D01*
X143959999Y-64636839D01*
X143972004Y-64665820D01*
X144079181Y-64772996D01*
X144219215Y-64831000D01*
X144370786Y-64831000D01*
X144970786Y-64831000D01*
X145110820Y-64772996D01*
X145217996Y-64665819D01*
X145229999Y-64636839D01*
X145230000Y-64636839D01*
X145230000Y-65428574D01*
X144770974Y-65887600D01*
X135125400Y-65887600D01*
X135125400Y-62004000D01*
X135096378Y-61858096D01*
X135096487Y-61733626D01*
X134889078Y-61231658D01*
X134505362Y-60847272D01*
X134003756Y-60638987D01*
X133460626Y-60638513D01*
X132958658Y-60845922D01*
X132574272Y-61229638D01*
X132365987Y-61731244D01*
X132365513Y-62274374D01*
X132572922Y-62776342D01*
X132956638Y-63160728D01*
X133458244Y-63369013D01*
X134001374Y-63369487D01*
X134503342Y-63162078D01*
X134887728Y-62778362D01*
X135096013Y-62276756D01*
X135096122Y-62151189D01*
X135125400Y-62004000D01*
X135125400Y-65887600D01*
X135049986Y-65887600D01*
X135096013Y-65776756D01*
X135096487Y-65233626D01*
X134889078Y-64731658D01*
X134505362Y-64347272D01*
X134003756Y-64138987D01*
X133460626Y-64138513D01*
X132958658Y-64345922D01*
X132574272Y-64729638D01*
X132365987Y-65231244D01*
X132365513Y-65774374D01*
X132572922Y-66276342D01*
X132956638Y-66660728D01*
X133458244Y-66869013D01*
X134001374Y-66869487D01*
X134140836Y-66811862D01*
X134300587Y-66971613D01*
X134506596Y-67109264D01*
X134749600Y-67157600D01*
X145034000Y-67157600D01*
X145277004Y-67109264D01*
X145483013Y-66971613D01*
X146314009Y-66140615D01*
X146314012Y-66140613D01*
X146314013Y-66140613D01*
X146396528Y-66017120D01*
X146451664Y-65934605D01*
X146451664Y-65934604D01*
X146500000Y-65691600D01*
X146500000Y-64636839D01*
X146512004Y-64665820D01*
X146619181Y-64772996D01*
X146759215Y-64831000D01*
X146910786Y-64831000D01*
X147510786Y-64831000D01*
X147650820Y-64772996D01*
X147757996Y-64665819D01*
X147769999Y-64636839D01*
X147770000Y-64636839D01*
X147770000Y-65606374D01*
X144524667Y-68851706D01*
X144513078Y-68823658D01*
X144129362Y-68439272D01*
X143627756Y-68230987D01*
X143084626Y-68230513D01*
X142582658Y-68437922D01*
X142198272Y-68821638D01*
X141989987Y-69323244D01*
X141989513Y-69866374D01*
X142196922Y-70368342D01*
X142580638Y-70752728D01*
X143082244Y-70961013D01*
X143625374Y-70961487D01*
X144127342Y-70754078D01*
X144511728Y-70370362D01*
X144569596Y-70231000D01*
X144678400Y-70231000D01*
X144921404Y-70182664D01*
X145127413Y-70045013D01*
X148854013Y-66318413D01*
X148991664Y-66112405D01*
X148991664Y-66112404D01*
X149040000Y-65869400D01*
X149040000Y-64636839D01*
X149052004Y-64665820D01*
X149159181Y-64772996D01*
X149299215Y-64831000D01*
X149450786Y-64831000D01*
X150050786Y-64831000D01*
X150190820Y-64772996D01*
X150297996Y-64665819D01*
X150309999Y-64636839D01*
X150310000Y-64636839D01*
X150310000Y-65306737D01*
X150310000Y-68804000D01*
X150358336Y-69047004D01*
X150437497Y-69165477D01*
X150371987Y-69323244D01*
X150371513Y-69866374D01*
X150578922Y-70368342D01*
X150962638Y-70752728D01*
X151464244Y-70961013D01*
X152007374Y-70961487D01*
X152509342Y-70754078D01*
X152893728Y-70370362D01*
X153102013Y-69868756D01*
X153102487Y-69325626D01*
X153102487Y-72848000D01*
X149602487Y-72848000D01*
X149602487Y-69325626D01*
X149395078Y-68823658D01*
X149011362Y-68439272D01*
X148509756Y-68230987D01*
X147966626Y-68230513D01*
X147464658Y-68437922D01*
X147080272Y-68821638D01*
X146871987Y-69323244D01*
X146871513Y-69866374D01*
X147078922Y-70368342D01*
X147462638Y-70752728D01*
X147964244Y-70961013D01*
X148507374Y-70961487D01*
X149009342Y-70754078D01*
X149393728Y-70370362D01*
X149602013Y-69868756D01*
X149602487Y-69325626D01*
X149602487Y-72848000D01*
X141220487Y-72848000D01*
X141220487Y-69325626D01*
X141013078Y-68823658D01*
X140629362Y-68439272D01*
X140127756Y-68230987D01*
X139584626Y-68230513D01*
X139082658Y-68437922D01*
X138698272Y-68821638D01*
X138489987Y-69323244D01*
X138489513Y-69866374D01*
X138696922Y-70368342D01*
X139080638Y-70752728D01*
X139582244Y-70961013D01*
X140125374Y-70961487D01*
X140627342Y-70754078D01*
X141011728Y-70370362D01*
X141220013Y-69868756D01*
X141220487Y-69325626D01*
X141220487Y-72848000D01*
X135262556Y-72848000D01*
X135262556Y-71001536D01*
X135246706Y-70142779D01*
X134948568Y-69423011D01*
X134627307Y-69260298D01*
X134447702Y-69439903D01*
X134447702Y-69080693D01*
X134284989Y-68759432D01*
X133485536Y-68445444D01*
X132626779Y-68461294D01*
X131907011Y-68759432D01*
X131744298Y-69080693D01*
X133096000Y-70432395D01*
X134447702Y-69080693D01*
X134447702Y-69439903D01*
X133275605Y-70612000D01*
X134627307Y-71963702D01*
X134948568Y-71800989D01*
X135262556Y-71001536D01*
X135262556Y-72848000D01*
X134447702Y-72848000D01*
X134447702Y-72143307D01*
X133096000Y-70791605D01*
X132916395Y-70971210D01*
X132916395Y-70612000D01*
X131564693Y-69260298D01*
X131243432Y-69423011D01*
X130929444Y-70222464D01*
X130945294Y-71081221D01*
X131243432Y-71800989D01*
X131564693Y-71963702D01*
X132916395Y-70612000D01*
X132916395Y-70971210D01*
X131744298Y-72143307D01*
X131907011Y-72464568D01*
X132706464Y-72778556D01*
X133565221Y-72762706D01*
X134284989Y-72464568D01*
X134447702Y-72143307D01*
X134447702Y-72848000D01*
X130479000Y-72848000D01*
X130479000Y-46659000D01*
X132219487Y-46659000D01*
X131907011Y-46788432D01*
X131744298Y-47109693D01*
X133096000Y-48461395D01*
X134447702Y-47109693D01*
X134284989Y-46788432D01*
X133955438Y-46659000D01*
X174383487Y-46659000D01*
X174071011Y-46788432D01*
X173908298Y-47109693D01*
X175260000Y-48461395D01*
X176611702Y-47109693D01*
X176448989Y-46788432D01*
X176119438Y-46659000D01*
X177877000Y-46659000D01*
X177877000Y-72848000D01*
M02*
