  0
SECTION
  2
HEADER
  9
$ACADVER
  1
AC1009
  9
$EXTMIN
 10
0.0
 20
0.0
 30
0.0
  9
$EXTMAX
 10
1000.0
 20
1000.0
 30
0.0
  9
$FILLMODE
 70
 0
  9
$SPLFRAME
 70
 1
  0
ENDSEC
  0
SECTION
  2
TABLES
  0
TABLE
  2
LAYER
 70
1
  0
LAYER
  2
0
 70
     0
 62
     7
  6
CONTINUOUS
  0
ENDTAB
  0
ENDSEC
  0
SECTION
  2
ENTITIES
  0
LINE
  8
0
 62
     3
 10
0.0234267
 20
186.823
 30
0.0
 11
34.4096
 21
194.83
 31
0.0
  0
LINE
  8
0
 62
     3
 10
34.4096
 20
194.83
 30
0.0
 11
34.4096
 21
188.542
 31
0.0
  0
LINE
  8
0
 62
     3
 10
34.4096
 20
188.542
 30
0.0
 11
41.2461
 21
186.938
 31
0.0
  0
LINE
  8
0
 62
     3
 10
41.2461
 20
186.938
 30
0.0
 11
41.2461
 21
196.547
 31
0.0
  0
LINE
  8
0
 62
     3
 10
41.2461
 20
196.547
 30
0.0
 11
54.0452
 21
199.551
 31
0.0
  0
LINE
  8
0
 62
     3
 10
54.0452
 20
199.551
 30
0.0
 11
54.0452
 21
205.15
 31
0.0
  0
LINE
  8
0
 62
     3
 10
54.0452
 20
205.15
 30
0.0
 11
0.0234267
 21
192.37
 31
0.0
  0
LINE
  8
0
 62
     3
 10
0.0234267
 20
192.37
 30
0.0
 11
0.0234267
 21
186.823
 31
0.0
  0
LINE
  8
0
 62
     3
 10
0.0744142
 20
11.7244
 30
0.0
 11
6.80752
 21
11.7244
 31
0.0
  0
LINE
  8
0
 62
     3
 10
6.80752
 20
11.7244
 30
0.0
 11
6.80752
 21
9.01651
 31
0.0
  0
LINE
  8
0
 62
     3
 10
6.80752
 20
9.01651
 30
0.0
 11
6.81852
 21
9.00825
 31
0.0
  0
LINE
  8
0
 62
     3
 10
6.81852
 20
9.00825
 30
0.0
 11
10.4372
 21
6.33758
 31
0.0
  0
LINE
  8
0
 62
     3
 10
10.4372
 20
6.33758
 30
0.0
 11
19.6481
 21
6.33758
 31
0.0
  0
LINE
  8
0
 62
     3
 10
19.6481
 20
6.33758
 30
0.0
 11
23.1951
 21
9.00825
 31
0.0
  0
LINE
  8
0
 62
     3
 10
23.1951
 20
9.00825
 30
0.0
 11
23.2048
 21
9.01651
 31
0.0
  0
LINE
  8
0
 62
     3
 10
23.2048
 20
9.01651
 30
0.0
 11
23.2048
 21
11.7244
 31
0.0
  0
LINE
  8
0
 62
     3
 10
23.2048
 20
11.7244
 30
0.0
 11
29.9379
 21
11.7244
 31
0.0
  0
LINE
  8
0
 62
     3
 10
29.9379
 20
11.7244
 30
0.0
 11
29.9379
 21
7.04176
 31
0.0
  0
LINE
  8
0
 62
     3
 10
29.9379
 20
7.04176
 30
0.0
 11
22.3201
 21
1.38217
 31
0.0
  0
LINE
  8
0
 62
     3
 10
22.3201
 20
1.38217
 30
0.0
 11
7.69221
 21
1.38217
 31
0.0
  0
LINE
  8
0
 62
     3
 10
7.69221
 20
1.38217
 30
0.0
 11
0.0744142
 21
7.04868
 31
0.0
  0
LINE
  8
0
 62
     3
 10
0.0744142
 20
7.04868
 30
0.0
 11
0.0744142
 21
11.7244
 31
0.0
  0
LINE
  8
0
 62
     3
 10
0.0744142
 20
21.2659
 30
0.0
 11
9.29626
 21
28.7789
 31
0.0
  0
LINE
  8
0
 62
     3
 10
9.29626
 20
28.7789
 30
0.0
 11
12.051
 21
23.778
 31
0.0
  0
LINE
  8
0
 62
     3
 10
12.051
 20
23.778
 30
0.0
 11
12.051
 21
23.7698
 31
0.0
  0
LINE
  8
0
 62
     3
 10
12.051
 20
23.7698
 30
0.0
 11
11.6237
 21
23.3963
 31
0.0
  0
LINE
  8
0
 62
     3
 10
11.6237
 20
23.3963
 30
0.0
 11
9.39684
 21
21.5126
 31
0.0
  0
LINE
  8
0
 62
     3
 10
9.39684
 20
21.5126
 30
0.0
 11
7.21265
 21
19.6536
 31
0.0
  0
LINE
  8
0
 62
     3
 10
7.21265
 20
19.6536
 30
0.0
 11
6.80752
 21
19.2912
 31
0.0
  0
LINE
  8
0
 62
     3
 10
6.80752
 20
19.2912
 30
0.0
 11
6.80752
 21
16.7556
 31
0.0
  0
LINE
  8
0
 62
     3
 10
6.80752
 20
16.7556
 30
0.0
 11
0.0744142
 21
16.7556
 31
0.0
  0
LINE
  8
0
 62
     3
 10
0.0744142
 20
16.7556
 30
0.0
 11
0.0744142
 21
21.2659
 31
0.0
  0
LINE
  8
0
 62
     3
 10
0.0744142
 20
45.0014
 30
0.0
 11
6.80752
 21
45.0014
 31
0.0
  0
LINE
  8
0
 62
     3
 10
6.80752
 20
45.0014
 30
0.0
 11
6.80752
 21
42.5192
 31
0.0
  0
LINE
  8
0
 62
     3
 10
6.80752
 20
42.5192
 30
0.0
 11
6.81852
 21
42.5125
 31
0.0
  0
LINE
  8
0
 62
     3
 10
6.81852
 20
42.5125
 30
0.0
 11
10.8272
 21
39.3869
 31
0.0
  0
LINE
  8
0
 62
     3
 10
10.8272
 20
39.3869
 30
0.0
 11
42.7785
 21
39.3869
 31
0.0
  0
LINE
  8
0
 62
     3
 10
42.7785
 20
39.3869
 30
0.0
 11
47.3329
 21
42.678
 31
0.0
  0
LINE
  8
0
 62
     3
 10
47.3329
 20
42.678
 30
0.0
 11
47.3424
 21
42.6861
 31
0.0
  0
LINE
  8
0
 62
     3
 10
47.3424
 20
42.6861
 30
0.0
 11
47.3424
 21
45.0014
 31
0.0
  0
LINE
  8
0
 62
     3
 10
47.3424
 20
45.0014
 30
0.0
 11
53.9944
 21
45.0014
 31
0.0
  0
LINE
  8
0
 62
     3
 10
53.9944
 20
45.0014
 30
0.0
 11
53.9944
 21
40.7638
 31
0.0
  0
LINE
  8
0
 62
     3
 10
53.9944
 20
40.7638
 30
0.0
 11
45.441
 21
34.484
 31
0.0
  0
LINE
  8
0
 62
     3
 10
45.441
 20
34.484
 30
0.0
 11
7.69221
 21
34.484
 31
0.0
  0
LINE
  8
0
 62
     3
 10
7.69221
 20
34.484
 30
0.0
 11
0.0744142
 21
40.779
 31
0.0
  0
LINE
  8
0
 62
     3
 10
0.0744142
 20
40.779
 30
0.0
 11
0.0744142
 21
45.0014
 31
0.0
  0
LINE
  8
0
 62
     3
 10
0.0744142
 20
50.0324
 30
0.0
 11
0.0744142
 21
54.3676
 31
0.0
  0
LINE
  8
0
 62
     3
 10
0.0744142
 20
54.3676
 30
0.0
 11
9.44922
 21
61.9428
 31
0.0
  0
LINE
  8
0
 62
     3
 10
9.44922
 20
61.9428
 30
0.0
 11
11.8966
 21
56.7147
 31
0.0
  0
LINE
  8
0
 62
     3
 10
11.8966
 20
56.7147
 30
0.0
 11
11.8966
 21
56.7062
 31
0.0
  0
LINE
  8
0
 62
     3
 10
11.8966
 20
56.7062
 30
0.0
 11
6.80752
 21
52.4538
 31
0.0
  0
LINE
  8
0
 62
     3
 10
6.80752
 20
52.4538
 30
0.0
 11
6.80752
 21
50.0324
 31
0.0
  0
LINE
  8
0
 62
     3
 10
6.80752
 20
50.0324
 30
0.0
 11
0.0744142
 21
50.0324
 31
0.0
  0
LINE
  8
0
 62
     3
 10
0.0744142
 20
97.7692
 30
0.0
 11
0.0744142
 21
102.725
 31
0.0
  0
LINE
  8
0
 62
     3
 10
0.0744142
 20
102.725
 30
0.0
 11
53.9944
 21
102.725
 31
0.0
  0
LINE
  8
0
 62
     3
 10
53.9944
 20
102.725
 30
0.0
 11
53.9944
 21
97.7692
 31
0.0
  0
LINE
  8
0
 62
     3
 10
53.9944
 20
97.7692
 30
0.0
 11
0.0744142
 21
97.7692
 31
0.0
  0
LINE
  8
0
 62
     3
 10
0.0744142
 20
126.808
 30
0.0
 11
0.0744142
 21
131.764
 31
0.0
  0
LINE
  8
0
 62
     3
 10
0.0744142
 20
131.764
 30
0.0
 11
53.9944
 21
131.764
 31
0.0
  0
LINE
  8
0
 62
     3
 10
53.9944
 20
131.764
 30
0.0
 11
53.9944
 21
126.808
 31
0.0
  0
LINE
  8
0
 62
     3
 10
53.9944
 20
126.808
 30
0.0
 11
0.0744142
 21
126.808
 31
0.0
  0
LINE
  8
0
 62
     3
 10
0.0744142
 20
136.795
 30
0.0
 11
0.0744142
 21
150.089
 31
0.0
  0
LINE
  8
0
 62
     3
 10
0.0744142
 20
150.089
 30
0.0
 11
6.80752
 21
150.089
 31
0.0
  0
LINE
  8
0
 62
     3
 10
6.80752
 20
150.089
 30
0.0
 11
6.80752
 21
136.795
 31
0.0
  0
LINE
  8
0
 62
     3
 10
6.80752
 20
136.795
 30
0.0
 11
0.0744142
 21
136.795
 31
0.0
  0
LINE
  8
0
 62
     3
 10
0.0744142
 20
241.741
 30
0.0
 11
0.0744142
 21
247.21
 31
0.0
  0
LINE
  8
0
 62
     3
 10
0.0744142
 20
247.21
 30
0.0
 11
53.9944
 21
259.34
 31
0.0
  0
LINE
  8
0
 62
     3
 10
53.9944
 20
259.34
 30
0.0
 11
53.9944
 21
253.93
 31
0.0
  0
LINE
  8
0
 62
     3
 10
53.9944
 20
253.93
 30
0.0
 11
0.0744142
 21
241.741
 31
0.0
  0
LINE
  8
0
 62
     3
 10
0.0744142
 20
267.375
 30
0.0
 11
0.0744142
 21
272.732
 31
0.0
  0
LINE
  8
0
 62
     3
 10
0.0744142
 20
272.732
 30
0.0
 11
42.6752
 21
263.107
 31
0.0
  0
LINE
  8
0
 62
     3
 10
42.6752
 20
263.107
 30
0.0
 11
31.4289
 21
260.346
 31
0.0
  0
LINE
  8
0
 62
     3
 10
31.4289
 20
260.346
 30
0.0
 11
30.3416
 21
260.59
 31
0.0
  0
LINE
  8
0
 62
     3
 10
30.3416
 20
260.59
 30
0.0
 11
27.0798
 21
261.322
 31
0.0
  0
LINE
  8
0
 62
     3
 10
27.0798
 20
261.322
 30
0.0
 11
22.1203
 21
262.434
 31
0.0
  0
LINE
  8
0
 62
     3
 10
22.1203
 20
262.434
 30
0.0
 11
16.914
 21
263.601
 31
0.0
  0
LINE
  8
0
 62
     3
 10
16.914
 20
263.601
 30
0.0
 11
11.8318
 21
264.739
 31
0.0
  0
LINE
  8
0
 62
     3
 10
11.8318
 20
264.739
 30
0.0
 11
7.23882
 21
265.77
 31
0.0
  0
LINE
  8
0
 62
     3
 10
7.23882
 20
265.77
 30
0.0
 11
3.50297
 21
266.608
 31
0.0
  0
LINE
  8
0
 62
     3
 10
3.50297
 20
266.608
 30
0.0
 11
0.992188
 21
267.17
 31
0.0
  0
LINE
  8
0
 62
     3
 10
0.992188
 20
267.17
 30
0.0
 11
0.0744142
 21
267.375
 31
0.0
  0
LINE
  8
0
 62
     3
 10
0.0744142
 20
267.375
 30
0.0
 11
0.0744142
 21
267.375
 31
0.0
  0
LINE
  8
0
 62
     3
 10
1.69912
 20
230.55
 30
0.0
 11
1.69912
 21
236.013
 31
0.0
  0
LINE
  8
0
 62
     3
 10
1.69912
 20
236.013
 30
0.0
 11
53.9944
 21
216.348
 31
0.0
  0
LINE
  8
0
 62
     3
 10
53.9944
 20
216.348
 30
0.0
 11
53.9944
 21
210.825
 31
0.0
  0
LINE
  8
0
 62
     3
 10
53.9944
 20
210.825
 30
0.0
 11
1.69912
 21
230.55
 31
0.0
  0
LINE
  8
0
 62
     3
 10
9.31556
 20
183.502
 30
0.0
 11
20.9324
 21
186.097
 31
0.0
  0
LINE
  8
0
 62
     3
 10
20.9324
 20
186.097
 30
0.0
 11
20.9531
 21
186.097
 31
0.0
  0
LINE
  8
0
 62
     3
 10
20.9531
 20
186.097
 30
0.0
 11
53.9944
 21
178.441
 31
0.0
  0
LINE
  8
0
 62
     3
 10
53.9944
 20
178.441
 30
0.0
 11
53.9944
 21
172.918
 31
0.0
  0
LINE
  8
0
 62
     3
 10
53.9944
 20
172.918
 30
0.0
 11
9.31693
 21
183.502
 31
0.0
  0
LINE
  8
0
 62
     3
 10
9.31693
 20
183.502
 30
0.0
 11
9.31556
 21
183.502
 31
0.0
  0
LINE
  8
0
 62
     3
 10
14.1897
 20
86.6013
 30
0.0
 11
22.4138
 21
92.0404
 31
0.0
  0
LINE
  8
0
 62
     3
 10
22.4138
 20
92.0404
 30
0.0
 11
53.993
 21
92.0404
 31
0.0
  0
LINE
  8
0
 62
     3
 10
53.993
 20
92.0404
 30
0.0
 11
53.993
 21
87.1456
 31
0.0
  0
LINE
  8
0
 62
     3
 10
53.993
 20
87.1456
 30
0.0
 11
24.8805
 21
87.1982
 31
0.0
  0
LINE
  8
0
 62
     3
 10
24.8805
 20
87.1982
 30
0.0
 11
24.8695
 21
87.1982
 31
0.0
  0
LINE
  8
0
 62
     3
 10
24.8695
 20
87.1982
 30
0.0
 11
24.8598
 21
87.1911
 31
0.0
  0
LINE
  8
0
 62
     3
 10
24.8598
 20
87.1911
 30
0.0
 11
20.7684
 21
84.5273
 31
0.0
  0
LINE
  8
0
 62
     3
 10
20.7684
 20
84.5273
 30
0.0
 11
20.7574
 21
84.5206
 31
0.0
  0
LINE
  8
0
 62
     3
 10
20.7574
 20
84.5206
 30
0.0
 11
20.7574
 21
76.9539
 31
0.0
  0
LINE
  8
0
 62
     3
 10
20.7574
 20
76.9539
 30
0.0
 11
20.7684
 21
76.9539
 31
0.0
  0
LINE
  8
0
 62
     3
 10
20.7684
 20
76.9539
 30
0.0
 11
26.6899
 21
72.595
 31
0.0
  0
LINE
  8
0
 62
     3
 10
26.6899
 20
72.595
 30
0.0
 11
23.9352
 21
67.7527
 31
0.0
  0
LINE
  8
0
 62
     3
 10
23.9352
 20
67.7527
 30
0.0
 11
14.1883
 21
75.0962
 31
0.0
  0
LINE
  8
0
 62
     3
 10
14.1883
 20
75.0962
 30
0.0
 11
14.1897
 21
86.6013
 31
0.0
  0
LINE
  8
0
 62
     3
 10
23.2048
 20
16.7569
 30
0.0
 11
23.2048
 21
21.2728
 31
0.0
  0
LINE
  8
0
 62
     3
 10
23.2048
 20
21.2728
 30
0.0
 11
31.7376
 21
27.5001
 31
0.0
  0
LINE
  8
0
 62
     3
 10
31.7376
 20
27.5001
 30
0.0
 11
45.4614
 21
27.5001
 31
0.0
  0
LINE
  8
0
 62
     3
 10
45.4614
 20
27.5001
 30
0.0
 11
53.9944
 21
21.2728
 31
0.0
  0
LINE
  8
0
 62
     3
 10
53.9944
 20
21.2728
 30
0.0
 11
53.9944
 21
16.7569
 31
0.0
  0
LINE
  8
0
 62
     3
 10
53.9944
 20
16.7569
 30
0.0
 11
47.3424
 21
16.7569
 31
0.0
  0
LINE
  8
0
 62
     3
 10
47.3424
 20
16.7569
 30
0.0
 11
47.3424
 21
19.2457
 31
0.0
  0
LINE
  8
0
 62
     3
 10
47.3424
 20
19.2457
 30
0.0
 11
47.3329
 21
19.2526
 31
0.0
  0
LINE
  8
0
 62
     3
 10
47.3329
 20
19.2526
 30
0.0
 11
42.8597
 21
22.5447
 31
0.0
  0
LINE
  8
0
 62
     3
 10
42.8597
 20
22.5447
 30
0.0
 11
34.4206
 21
22.5447
 31
0.0
  0
LINE
  8
0
 62
     3
 10
34.4206
 20
22.5447
 30
0.0
 11
34.0513
 21
22.2718
 31
0.0
  0
LINE
  8
0
 62
     3
 10
34.0513
 20
22.2718
 30
0.0
 11
32.1565
 21
20.88
 31
0.0
  0
LINE
  8
0
 62
     3
 10
32.1565
 20
20.88
 30
0.0
 11
30.2907
 21
19.5048
 31
0.0
  0
LINE
  8
0
 62
     3
 10
30.2907
 20
19.5048
 30
0.0
 11
29.9379
 21
19.2388
 31
0.0
  0
LINE
  8
0
 62
     3
 10
29.9379
 20
19.2388
 30
0.0
 11
29.9379
 21
16.7569
 31
0.0
  0
LINE
  8
0
 62
     3
 10
29.9379
 20
16.7569
 30
0.0
 11
23.2048
 21
16.7569
 31
0.0
  0
LINE
  8
0
 62
     3
 10
23.2048
 20
136.795
 30
0.0
 11
23.2048
 21
148.842
 31
0.0
  0
LINE
  8
0
 62
     3
 10
23.2048
 20
148.842
 30
0.0
 11
29.9379
 21
148.842
 31
0.0
  0
LINE
  8
0
 62
     3
 10
29.9379
 20
148.842
 30
0.0
 11
29.9379
 21
136.795
 31
0.0
  0
LINE
  8
0
 62
     3
 10
29.9379
 20
136.795
 30
0.0
 11
23.2048
 21
136.795
 31
0.0
  0
LINE
  8
0
 62
     3
 10
29.5272
 20
75.6073
 30
0.0
 11
29.5272
 21
82.2194
 31
0.0
  0
LINE
  8
0
 62
     3
 10
29.5272
 20
82.2194
 30
0.0
 11
36.1777
 21
82.2194
 31
0.0
  0
LINE
  8
0
 62
     3
 10
36.1777
 20
82.2194
 30
0.0
 11
36.1777
 21
77.6951
 31
0.0
  0
LINE
  8
0
 62
     3
 10
36.1777
 20
77.6951
 30
0.0
 11
36.1887
 21
77.6884
 31
0.0
  0
LINE
  8
0
 62
     3
 10
36.1887
 20
77.6884
 30
0.0
 11
41.2764
 21
73.7761
 31
0.0
  0
LINE
  8
0
 62
     3
 10
41.2764
 20
73.7761
 30
0.0
 11
41.2873
 21
73.7676
 31
0.0
  0
LINE
  8
0
 62
     3
 10
41.2873
 20
73.7676
 30
0.0
 11
42.3153
 21
73.7676
 31
0.0
  0
LINE
  8
0
 62
     3
 10
42.3153
 20
73.7676
 30
0.0
 11
42.3153
 21
73.7761
 31
0.0
  0
LINE
  8
0
 62
     3
 10
42.3153
 20
73.7761
 30
0.0
 11
47.4031
 21
77.5741
 31
0.0
  0
LINE
  8
0
 62
     3
 10
47.4031
 20
77.5741
 30
0.0
 11
47.414
 21
77.5822
 31
0.0
  0
LINE
  8
0
 62
     3
 10
47.414
 20
77.5822
 30
0.0
 11
47.414
 21
82.2194
 31
0.0
  0
LINE
  8
0
 62
     3
 10
47.414
 20
82.2194
 30
0.0
 11
53.993
 21
82.2194
 31
0.0
  0
LINE
  8
0
 62
     3
 10
53.993
 20
82.2194
 30
0.0
 11
53.993
 21
75.6073
 31
0.0
  0
LINE
  8
0
 62
     3
 10
53.993
 20
75.6073
 30
0.0
 11
45.0702
 21
68.986
 31
0.0
  0
LINE
  8
0
 62
     3
 10
45.0702
 20
68.986
 30
0.0
 11
38.6761
 21
68.986
 31
0.0
  0
LINE
  8
0
 62
     3
 10
38.6761
 20
68.986
 30
0.0
 11
29.5272
 21
75.6073
 31
0.0
  0
LINE
  8
0
 62
     3
 10
43.3945
 20
62.0102
 30
0.0
 11
53.9944
 21
54.3761
 31
0.0
  0
LINE
  8
0
 62
     3
 10
53.9944
 20
54.3761
 30
0.0
 11
53.9944
 21
50.0324
 31
0.0
  0
LINE
  8
0
 62
     3
 10
53.9944
 20
50.0324
 30
0.0
 11
47.3424
 21
50.0324
 31
0.0
  0
LINE
  8
0
 62
     3
 10
47.3424
 20
50.0324
 30
0.0
 11
47.3424
 21
52.4083
 31
0.0
  0
LINE
  8
0
 62
     3
 10
47.3424
 20
52.4083
 30
0.0
 11
47.3329
 21
52.4164
 31
0.0
  0
LINE
  8
0
 62
     3
 10
47.3329
 20
52.4164
 30
0.0
 11
41.2461
 21
56.7147
 31
0.0
  0
LINE
  8
0
 62
     3
 10
41.2461
 20
56.7147
 30
0.0
 11
43.3945
 21
62.0102
 31
0.0
  0
LINE
  8
0
 62
     3
 10
47.3329
 20
9.17497
 30
0.0
 11
47.3424
 21
9.18185
 31
0.0
  0
LINE
  8
0
 62
     3
 10
47.3424
 20
9.18185
 30
0.0
 11
47.3424
 21
11.7244
 31
0.0
  0
LINE
  8
0
 62
     3
 10
47.3424
 20
11.7244
 30
0.0
 11
53.9944
 21
11.7244
 31
0.0
  0
LINE
  8
0
 62
     3
 10
53.9944
 20
11.7244
 30
0.0
 11
53.9944
 21
6.98803
 31
0.0
  0
LINE
  8
0
 62
     3
 10
53.9944
 20
6.98803
 30
0.0
 11
43.5487
 21
0.034451
 31
0.0
  0
LINE
  8
0
 62
     3
 10
43.5487
 20
0.034451
 30
0.0
 11
41.3286
 21
5.32335
 31
0.0
  0
LINE
  8
0
 62
     3
 10
41.3286
 20
5.32335
 30
0.0
 11
47.3329
 21
9.17497
 31
0.0
  0
LINE
  8
0
 62
     3
 10
47.3424
 20
107.756
 30
0.0
 11
47.3424
 21
121.05
 31
0.0
  0
LINE
  8
0
 62
     3
 10
47.3424
 20
121.05
 30
0.0
 11
53.9944
 21
121.05
 31
0.0
  0
LINE
  8
0
 62
     3
 10
53.9944
 20
121.05
 30
0.0
 11
53.9944
 21
107.756
 31
0.0
  0
LINE
  8
0
 62
     3
 10
53.9944
 20
107.756
 30
0.0
 11
47.3424
 21
107.756
 31
0.0
  0
LINE
  8
0
 62
     3
 10
47.3424
 20
136.795
 30
0.0
 11
47.3424
 21
150.089
 31
0.0
  0
LINE
  8
0
 62
     3
 10
47.3424
 20
150.089
 30
0.0
 11
53.9944
 21
150.089
 31
0.0
  0
LINE
  8
0
 62
     3
 10
53.9944
 20
150.089
 30
0.0
 11
53.9944
 21
136.795
 31
0.0
  0
LINE
  8
0
 62
     3
 10
53.9944
 20
136.795
 30
0.0
 11
47.3424
 21
136.795
 31
0.0
  0
ENDSEC
  0
EOF
