  0
SECTION
  2
HEADER
  9
$ACADVER
  1
AC1014
  9
$HANDSEED
  5
FFFF
  9
$MEASUREMENT
 70
     1
  0
ENDSEC
  0
SECTION
  2
TABLES
  0
TABLE
  2
VPORT
  5
8
330
0
100
AcDbSymbolTable
 70
     4
  0
VPORT
  5
2E
330
8
100
AcDbSymbolTableRecord
100
AcDbViewportTableRecord
  2
*ACTIVE
 70
     0
 10
0.0
 20
0.0
 11
1.0
 21
1.0
 12
210.0
 22
148.5
 13
0.0
 23
0.0
 14
10.0
 24
10.0
 15
10.0
 25
10.0
 16
0.0
 26
0.0
 36
1.0
 17
0.0
 27
0.0
 37
0.0
 40
341.0
 41
1.24
 42
50.0
 43
0.0
 44
0.0
 50
0.0
 51
0.0
 71
     0
 72
   100
 73
     1
 74
     3
 75
     0
 76
     0
 77
     0
 78
     0
  0
ENDTAB
  0
TABLE
  2
LTYPE
  5
5
330
0
100
AcDbSymbolTable
 70
     1
  0
LTYPE
  5
14
330
5
100
AcDbSymbolTableRecord
100
AcDbLinetypeTableRecord
  2
BYBLOCK
 70
     0
  3

 72
    65
 73
     0
 40
0.0
  0
LTYPE
  5
15
330
5
100
AcDbSymbolTableRecord
100
AcDbLinetypeTableRecord
  2
BYLAYER
 70
     0
  3

 72
    65
 73
     0
 40
0.0
  0
LTYPE
  5
16
330
5
100
AcDbSymbolTableRecord
100
AcDbLinetypeTableRecord
  2
CONTINUOUS
 70
     0
  3
Solid line
 72
    65
 73
     0
 40
0.0
  0
ENDTAB
  0
TABLE
  2
LAYER
  5
2
100
AcDbSymbolTable
 70
2
  0
LAYER
  5
50
100
AcDbSymbolTableRecord
100
AcDbLayerTableRecord
  2
0
 70
0
  6
CONTINUOUS
  0
LAYER
  5
51
100
AcDbSymbolTableRecord
100
AcDbLayerTableRecord
  2
Layer_1
 70
0
  6
CONTINUOUS
  0
ENDTAB
  0
TABLE
  2
STYLE
  5
3
330
0
100
AcDbSymbolTable
 70
     1
  0
STYLE
  5
11
330
3
100
AcDbSymbolTableRecord
100
AcDbTextStyleTableRecord
  2
STANDARD
 70
     0
 40
0.0
 41
1.0
 50
0.0
 71
     0
 42
2.5
  3
txt
  4

  0
ENDTAB
  0
TABLE
  2
VIEW
  5
6
330
0
100
AcDbSymbolTable
 70
     0
  0
ENDTAB
  0
TABLE
  2
UCS
  5
7
330
0
100
AcDbSymbolTable
 70
     0
  0
ENDTAB
  0
TABLE
  2
APPID
  5
9
330
0
100
AcDbSymbolTable
 70
     2
  0
APPID
  5
12
330
9
100
AcDbSymbolTableRecord
100
AcDbRegAppTableRecord
  2
ACAD
 70
     0
  0
ENDTAB
  0
TABLE
  2
DIMSTYLE
  5
A
330
0
100
AcDbSymbolTable
 70
     1
  0
DIMSTYLE
105
27
330
A
100
AcDbSymbolTableRecord
100
AcDbDimStyleTableRecord
  2
ISO-25
 70
     0
  3

  4

  5

  6

  7

 40
1.0
 41
2.5
 42
0.625
 43
3.75
 44
1.25
 45
0.0
 46
0.0
 47
0.0
 48
0.0
140
2.5
141
2.5
142
0.0
143
0.03937007874016
144
1.0
145
0.0
146
1.0
147
0.625
 71
     0
 72
     0
 73
     0
 74
     0
 75
     0
 76
     0
 77
     1
 78
     8
170
     0
171
     3
172
     1
173
     0
174
     0
175
     0
176
     0
177
     0
178
     0
270
     2
271
     2
272
     2
273
     2
274
     3
340
11
275
     0
280
     0
281
     0
282
     0
283
     0
284
     8
285
     0
286
     0
287
     3
288
     0
  0
ENDTAB
  0
TABLE
  2
BLOCK_RECORD
  5
1
330
0
100
AcDbSymbolTable
 70
     1
  0
BLOCK_RECORD
  5
1F
330
1
100
AcDbSymbolTableRecord
100
AcDbBlockTableRecord
  2
*MODEL_SPACE
  0
BLOCK_RECORD
  5
1B
330
1
100
AcDbSymbolTableRecord
100
AcDbBlockTableRecord
  2
*PAPER_SPACE
  0
ENDTAB
  0
ENDSEC
  0
SECTION
  2
BLOCKS
  0
BLOCK
  5
20
330
1F
100
AcDbEntity
  8
0
100
AcDbBlockBegin
  2
*MODEL_SPACE
 70
     0
 10
0.0
 20
0.0
 30
0.0
  3
*MODEL_SPACE
  1

  0
ENDBLK
  5
21
330
1F
100
AcDbEntity
  8
0
100
AcDbBlockEnd
  0
BLOCK
  5
1C
330
1B
100
AcDbEntity
 67
     1
  8
0
100
AcDbBlockBegin
  2
*PAPER_SPACE
  1

  0
ENDBLK
  5
1D
330
1B
100
AcDbEntity
 67
     1
  8
0
100
AcDbBlockEnd
  0
ENDSEC
  0
SECTION
  2
ENTITIES
  0
LINE
  5
100
100
AcDbEntity
  8
Layer_1
 62
3
100
AcDbLine
 10
234.290264
 20
554.418492
 30
0.0
 11
331.765384
 21
577.110244
 31
0.0
  0
LINE
  5
101
100
AcDbEntity
  8
Layer_1
 62
3
100
AcDbLine
 10
331.765384
 20
577.110244
 30
0.0
 11
331.765384
 21
559.287148
 31
0.0
  0
LINE
  5
102
100
AcDbEntity
  8
Layer_1
 62
3
100
AcDbLine
 10
331.765384
 20
559.287148
 30
0.0
 11
351.144024
 21
554.740236
 31
0.0
  0
LINE
  5
103
100
AcDbEntity
  8
Layer_1
 62
3
100
AcDbLine
 10
351.144024
 20
554.740236
 30
0.0
 11
351.144024
 21
581.978924
 31
0.0
  0
LINE
  5
104
100
AcDbEntity
  8
Layer_1
 62
3
100
AcDbLine
 10
351.144024
 20
581.978924
 30
0.0
 11
387.424024
 21
590.493692
 31
0.0
  0
LINE
  5
105
100
AcDbEntity
  8
Layer_1
 62
3
100
AcDbLine
 10
387.424024
 20
590.493692
 30
0.0
 11
387.424024
 21
606.365044
 31
0.0
  0
LINE
  5
106
100
AcDbEntity
  8
Layer_1
 62
3
100
AcDbLine
 10
387.424024
 20
606.365044
 30
0.0
 11
234.290424
 21
570.139748
 31
0.0
  0
LINE
  5
107
100
AcDbEntity
  8
Layer_1
 62
3
100
AcDbLine
 10
234.290424
 20
570.139748
 30
0.0
 11
234.290264
 21
554.418492
 31
0.0
  0
LINE
  5
108
100
AcDbEntity
  8
Layer_1
 62
3
100
AcDbLine
 10
234.436024
 20
58.073756
 30
0.0
 11
253.523064
 21
58.073756
 31
0.0
  0
LINE
  5
109
100
AcDbEntity
  8
Layer_1
 62
3
100
AcDbLine
 10
253.523064
 20
58.073756
 30
0.0
 11
253.523064
 21
50.416876
 31
0.0
  0
LINE
  5
10a
100
AcDbEntity
  8
Layer_1
 62
3
100
AcDbLine
 10
253.523064
 20
50.416876
 30
0.0
 11
253.523064
 21
50.395276
 31
0.0
  0
LINE
  5
10b
100
AcDbEntity
  8
Layer_1
 62
3
100
AcDbLine
 10
253.523064
 20
50.395276
 30
0.0
 11
253.552664
 21
50.373676
 31
0.0
  0
LINE
  5
10c
100
AcDbEntity
  8
Layer_1
 62
3
100
AcDbLine
 10
253.552664
 20
50.373676
 30
0.0
 11
263.810104
 21
42.802636
 31
0.0
  0
LINE
  5
10d
100
AcDbEntity
  8
Layer_1
 62
3
100
AcDbLine
 10
263.810104
 20
42.802636
 30
0.0
 11
263.838904
 21
42.802636
 31
0.0
  0
LINE
  5
10e
100
AcDbEntity
  8
Layer_1
 62
3
100
AcDbLine
 10
263.838904
 20
42.802636
 30
0.0
 11
263.867704
 21
42.802636
 31
0.0
  0
LINE
  5
10f
100
AcDbEntity
  8
Layer_1
 62
3
100
AcDbLine
 10
263.867704
 20
42.802636
 30
0.0
 11
289.919784
 21
42.802636
 31
0.0
  0
LINE
  5
110
100
AcDbEntity
  8
Layer_1
 62
3
100
AcDbLine
 10
289.919784
 20
42.802636
 30
0.0
 11
299.973304
 21
50.373676
 31
0.0
  0
LINE
  5
111
100
AcDbEntity
  8
Layer_1
 62
3
100
AcDbLine
 10
299.973304
 20
50.373676
 30
0.0
 11
300.002104
 21
50.395276
 31
0.0
  0
LINE
  5
112
100
AcDbEntity
  8
Layer_1
 62
3
100
AcDbLine
 10
300.002104
 20
50.395276
 30
0.0
 11
300.002104
 21
50.416876
 31
0.0
  0
LINE
  5
113
100
AcDbEntity
  8
Layer_1
 62
3
100
AcDbLine
 10
300.002104
 20
50.416876
 30
0.0
 11
300.002104
 21
58.073756
 31
0.0
  0
LINE
  5
114
100
AcDbEntity
  8
Layer_1
 62
3
100
AcDbLine
 10
300.002104
 20
58.073756
 30
0.0
 11
319.089144
 21
58.073756
 31
0.0
  0
LINE
  5
115
100
AcDbEntity
  8
Layer_1
 62
3
100
AcDbLine
 10
319.089144
 20
58.073756
 30
0.0
 11
319.089144
 21
44.797596
 31
0.0
  0
LINE
  5
116
100
AcDbEntity
  8
Layer_1
 62
3
100
AcDbLine
 10
319.089144
 20
44.797596
 30
0.0
 11
297.496024
 21
28.754644
 31
0.0
  0
LINE
  5
117
100
AcDbEntity
  8
Layer_1
 62
3
100
AcDbLine
 10
297.496024
 20
28.754644
 30
0.0
 11
256.029064
 21
28.754644
 31
0.0
  0
LINE
  5
118
100
AcDbEntity
  8
Layer_1
 62
3
100
AcDbLine
 10
256.029064
 20
28.754644
 30
0.0
 11
234.435944
 21
44.819036
 31
0.0
  0
LINE
  5
119
100
AcDbEntity
  8
Layer_1
 62
3
100
AcDbLine
 10
234.435944
 20
44.819036
 30
0.0
 11
234.436024
 21
58.073756
 31
0.0
  0
LINE
  5
11a
100
AcDbEntity
  8
Layer_1
 62
3
100
AcDbLine
 10
234.436024
 20
85.119436
 30
0.0
 11
260.575144
 21
106.417116
 31
0.0
  0
LINE
  5
11b
100
AcDbEntity
  8
Layer_1
 62
3
100
AcDbLine
 10
260.575144
 20
106.417116
 30
0.0
 11
268.384824
 21
92.240076
 31
0.0
  0
LINE
  5
11c
100
AcDbEntity
  8
Layer_1
 62
3
100
AcDbLine
 10
268.384824
 20
92.240076
 30
0.0
 11
268.384824
 21
92.218476
 31
0.0
  0
LINE
  5
11d
100
AcDbEntity
  8
Layer_1
 62
3
100
AcDbLine
 10
253.522664
 20
79.521436
 30
0.0
 11
253.522664
 21
72.336396
 31
0.0
  0
LINE
  5
11e
100
AcDbEntity
  8
Layer_1
 62
3
100
AcDbLine
 10
253.522664
 20
72.336396
 30
0.0
 11
234.435624
 21
72.336396
 31
0.0
  0
LINE
  5
11f
100
AcDbEntity
  8
Layer_1
 62
3
100
AcDbLine
 10
234.435624
 20
72.336396
 30
0.0
 11
234.436024
 21
85.119436
 31
0.0
  0
LINE
  5
120
100
AcDbEntity
  8
Layer_1
 62
3
100
AcDbLine
 10
234.436024
 20
152.401116
 30
0.0
 11
253.523064
 21
152.401116
 31
0.0
  0
LINE
  5
121
100
AcDbEntity
  8
Layer_1
 62
3
100
AcDbLine
 10
253.523064
 20
152.401116
 30
0.0
 11
253.523064
 21
145.387756
 31
0.0
  0
LINE
  5
122
100
AcDbEntity
  8
Layer_1
 62
3
100
AcDbLine
 10
253.523064
 20
145.387756
 30
0.0
 11
253.523064
 21
145.366156
 31
0.0
  0
LINE
  5
123
100
AcDbEntity
  8
Layer_1
 62
3
100
AcDbLine
 10
253.523064
 20
145.366156
 30
0.0
 11
253.552664
 21
145.344556
 31
0.0
  0
LINE
  5
124
100
AcDbEntity
  8
Layer_1
 62
3
100
AcDbLine
 10
253.552664
 20
145.344556
 30
0.0
 11
264.917464
 21
136.486556
 31
0.0
  0
LINE
  5
125
100
AcDbEntity
  8
Layer_1
 62
3
100
AcDbLine
 10
264.917464
 20
136.486556
 30
0.0
 11
264.975864
 21
136.486556
 31
0.0
  0
LINE
  5
126
100
AcDbEntity
  8
Layer_1
 62
3
100
AcDbLine
 10
264.975864
 20
136.486556
 30
0.0
 11
355.428104
 21
136.486556
 31
0.0
  0
LINE
  5
127
100
AcDbEntity
  8
Layer_1
 62
3
100
AcDbLine
 10
355.428104
 20
136.486556
 30
0.0
 11
355.486504
 21
136.486556
 31
0.0
  0
LINE
  5
128
100
AcDbEntity
  8
Layer_1
 62
3
100
AcDbLine
 10
355.486504
 20
136.486556
 30
0.0
 11
368.395864
 21
145.816396
 31
0.0
  0
LINE
  5
129
100
AcDbEntity
  8
Layer_1
 62
3
100
AcDbLine
 10
368.395864
 20
145.816396
 30
0.0
 11
368.424664
 21
145.837996
 31
0.0
  0
LINE
  5
12a
100
AcDbEntity
  8
Layer_1
 62
3
100
AcDbLine
 10
368.424664
 20
145.837996
 30
0.0
 11
368.424664
 21
145.859596
 31
0.0
  0
LINE
  5
12b
100
AcDbEntity
  8
Layer_1
 62
3
100
AcDbLine
 10
368.424664
 20
145.859596
 30
0.0
 11
368.424664
 21
152.401116
 31
0.0
  0
LINE
  5
12c
100
AcDbEntity
  8
Layer_1
 62
3
100
AcDbLine
 10
368.424664
 20
152.401116
 30
0.0
 11
387.278664
 21
152.401116
 31
0.0
  0
LINE
  5
12d
100
AcDbEntity
  8
Layer_1
 62
3
100
AcDbLine
 10
387.278664
 20
152.401116
 30
0.0
 11
387.278664
 21
140.411836
 31
0.0
  0
LINE
  5
12e
100
AcDbEntity
  8
Layer_1
 62
3
100
AcDbLine
 10
387.278664
 20
140.411836
 30
0.0
 11
387.278664
 21
140.390236
 31
0.0
  0
LINE
  5
12f
100
AcDbEntity
  8
Layer_1
 62
3
100
AcDbLine
 10
387.278664
 20
140.390236
 30
0.0
 11
363.033704
 21
122.588556
 31
0.0
  0
LINE
  5
130
100
AcDbEntity
  8
Layer_1
 62
3
100
AcDbLine
 10
363.033704
 20
122.588556
 30
0.0
 11
256.029704
 21
122.588556
 31
0.0
  0
LINE
  5
131
100
AcDbEntity
  8
Layer_1
 62
3
100
AcDbLine
 10
256.029704
 20
122.588556
 30
0.0
 11
234.436264
 21
140.433116
 31
0.0
  0
LINE
  5
132
100
AcDbEntity
  8
Layer_1
 62
3
100
AcDbLine
 10
234.436264
 20
140.433116
 30
0.0
 11
234.436024
 21
152.401116
 31
0.0
  0
LINE
  5
133
100
AcDbEntity
  8
Layer_1
 62
3
100
AcDbLine
 10
234.436024
 20
166.663916
 30
0.0
 11
234.436024
 21
178.953500
 31
0.0
  0
LINE
  5
134
100
AcDbEntity
  8
Layer_1
 62
3
100
AcDbLine
 10
234.436024
 20
178.953500
 30
0.0
 11
261.012184
 21
200.422740
 31
0.0
  0
LINE
  5
135
100
AcDbEntity
  8
Layer_1
 62
3
100
AcDbLine
 10
261.012184
 20
200.422740
 30
0.0
 11
267.947624
 21
185.602316
 31
0.0
  0
LINE
  5
136
100
AcDbEntity
  8
Layer_1
 62
3
100
AcDbLine
 10
267.947624
 20
185.602316
 30
0.0
 11
267.947624
 21
185.580876
 31
0.0
  0
LINE
  5
137
100
AcDbEntity
  8
Layer_1
 62
3
100
AcDbLine
 10
267.947624
 20
185.580876
 30
0.0
 11
253.523464
 21
173.527236
 31
0.0
  0
LINE
  5
138
100
AcDbEntity
  8
Layer_1
 62
3
100
AcDbLine
 10
253.523464
 20
173.527236
 30
0.0
 11
253.523464
 21
166.663940
 31
0.0
  0
LINE
  5
139
100
AcDbEntity
  8
Layer_1
 62
3
100
AcDbLine
 10
253.523464
 20
166.663940
 30
0.0
 11
234.436424
 21
166.663940
 31
0.0
  0
LINE
  5
13a
100
AcDbEntity
  8
Layer_1
 62
3
100
AcDbLine
 10
234.436424
 20
166.663940
 30
0.0
 11
234.436024
 21
166.663916
 31
0.0
  0
LINE
  5
13b
100
AcDbEntity
  8
Layer_1
 62
3
100
AcDbLine
 10
234.436024
 20
301.978020
 30
0.0
 11
234.436024
 21
316.026324
 31
0.0
  0
LINE
  5
13c
100
AcDbEntity
  8
Layer_1
 62
3
100
AcDbLine
 10
234.436024
 20
316.026324
 30
0.0
 11
387.278184
 21
316.026324
 31
0.0
  0
LINE
  5
13d
100
AcDbEntity
  8
Layer_1
 62
3
100
AcDbLine
 10
387.278184
 20
316.026324
 30
0.0
 11
387.278184
 21
301.978020
 31
0.0
  0
LINE
  5
13e
100
AcDbEntity
  8
Layer_1
 62
3
100
AcDbLine
 10
387.278184
 20
301.978020
 30
0.0
 11
234.436024
 21
301.978020
 31
0.0
  0
LINE
  5
13f
100
AcDbEntity
  8
Layer_1
 62
3
100
AcDbLine
 10
234.436024
 20
384.294628
 30
0.0
 11
234.436024
 21
398.342932
 31
0.0
  0
LINE
  5
140
100
AcDbEntity
  8
Layer_1
 62
3
100
AcDbLine
 10
234.436024
 20
398.342932
 30
0.0
 11
387.278184
 21
398.342932
 31
0.0
  0
LINE
  5
141
100
AcDbEntity
  8
Layer_1
 62
3
100
AcDbLine
 10
387.278184
 20
398.342932
 30
0.0
 11
387.278184
 21
384.294628
 31
0.0
  0
LINE
  5
142
100
AcDbEntity
  8
Layer_1
 62
3
100
AcDbLine
 10
387.278184
 20
384.294628
 30
0.0
 11
234.436024
 21
384.294628
 31
0.0
  0
LINE
  5
143
100
AcDbEntity
  8
Layer_1
 62
3
100
AcDbLine
 10
234.436024
 20
412.605708
 30
0.0
 11
234.436024
 21
450.289476
 31
0.0
  0
LINE
  5
144
100
AcDbEntity
  8
Layer_1
 62
3
100
AcDbLine
 10
234.436024
 20
450.289476
 30
0.0
 11
253.523064
 21
450.289476
 31
0.0
  0
LINE
  5
145
100
AcDbEntity
  8
Layer_1
 62
3
100
AcDbLine
 10
253.523064
 20
450.289476
 30
0.0
 11
253.523064
 21
412.605708
 31
0.0
  0
LINE
  5
146
100
AcDbEntity
  8
Layer_1
 62
3
100
AcDbLine
 10
253.523064
 20
412.605708
 30
0.0
 11
234.436024
 21
412.605708
 31
0.0
  0
LINE
  5
147
100
AcDbEntity
  8
Layer_1
 62
3
100
AcDbLine
 10
234.436024
 20
710.086540
 30
0.0
 11
234.436024
 21
725.593292
 31
0.0
  0
LINE
  5
148
100
AcDbEntity
  8
Layer_1
 62
3
100
AcDbLine
 10
234.436024
 20
725.593292
 30
0.0
 11
387.278184
 21
759.974100
 31
0.0
  0
LINE
  5
149
100
AcDbEntity
  8
Layer_1
 62
3
100
AcDbLine
 10
387.278184
 20
759.974100
 30
0.0
 11
387.278184
 21
744.638932
 31
0.0
  0
LINE
  5
14a
100
AcDbEntity
  8
Layer_1
 62
3
100
AcDbLine
 10
387.278184
 20
744.638932
 30
0.0
 11
234.436024
 21
710.086540
 31
0.0
  0
LINE
  5
14b
100
AcDbEntity
  8
Layer_1
 62
3
100
AcDbLine
 10
234.436024
 20
782.751649
 30
0.0
 11
234.436024
 21
797.936681
 31
0.0
  0
LINE
  5
14c
100
AcDbEntity
  8
Layer_1
 62
3
100
AcDbLine
 10
234.436024
 20
797.936681
 30
0.0
 11
355.194424
 21
770.655097
 31
0.0
  0
LINE
  5
14d
100
AcDbEntity
  8
Layer_1
 62
3
100
AcDbLine
 10
355.194424
 20
770.655097
 30
0.0
 11
323.314984
 21
762.826649
 31
0.0
  0
SPLINE
  5
14e
100
AcDbEntity
  8
Layer_1
 62
3
100
AcDbSpline
 70
0
 71
3
 72
10
 73
6
 74
4
 40
0.000000
 40
0.000000
 40
0.000000
 40
0.000000
 40
6.557799
 40
13.173622
 40
19.547655
 40
19.547655
 40
19.547655
 40
19.547655
 10
268.384824
 20
92.218476
 30
0.0
 10
266.728580
 20
90.791835
 30
0.0
 10
263.401439
 20
87.925931
 30
0.0
 10
258.385399
 20
83.766346
 30
0.0
 10
255.123336
 20
80.918738
 30
0.0
 10
253.522664
 20
79.521436
 30
0.0
 11
268.384824
 21
92.218476
 31
0.0
 11
263.402889
 21
87.954082
 31
0.0
 11
258.341825
 21
83.693243
 31
0.0
 11
253.522664
 21
79.521436
 31
0.0
  0
LINE
  5
14f
100
AcDbEntity
  8
Layer_1
 62
3
100
AcDbLine
 10
234.436024
 20
782.751649
 30
0.0
 11
234.436024
 21
782.751649
 31
0.0
  0
LINE
  5
150
100
AcDbEntity
  8
Layer_1
 62
3
100
AcDbLine
 10
239.040264
 20
678.365244
 30
0.0
 11
239.040264
 21
693.850548
 31
0.0
  0
LINE
  5
151
100
AcDbEntity
  8
Layer_1
 62
3
100
AcDbLine
 10
239.040264
 20
693.850548
 30
0.0
 11
387.278184
 21
638.107748
 31
0.0
  0
LINE
  5
152
100
AcDbEntity
  8
Layer_1
 62
3
100
AcDbLine
 10
387.278184
 20
638.107748
 30
0.0
 11
387.278184
 21
622.450860
 31
0.0
  0
LINE
  5
153
100
AcDbEntity
  8
Layer_1
 62
3
100
AcDbLine
 10
387.278184
 20
622.450860
 30
0.0
 11
239.040264
 21
678.365244
 31
0.0
  0
LINE
  5
154
100
AcDbEntity
  8
Layer_1
 62
3
100
AcDbLine
 10
260.633304
 20
545.002900
 30
0.0
 11
293.562184
 21
552.359492
 31
0.0
  0
LINE
  5
155
100
AcDbEntity
  8
Layer_1
 62
3
100
AcDbLine
 10
293.562184
 20
552.359492
 30
0.0
 11
293.620584
 21
552.359492
 31
0.0
  0
LINE
  5
156
100
AcDbEntity
  8
Layer_1
 62
3
100
AcDbLine
 10
293.620584
 20
552.359492
 30
0.0
 11
387.278344
 21
530.654324
 31
0.0
  0
LINE
  5
157
100
AcDbEntity
  8
Layer_1
 62
3
100
AcDbLine
 10
387.278344
 20
530.654324
 30
0.0
 11
387.278344
 21
514.997444
 31
0.0
  0
LINE
  5
158
100
AcDbEntity
  8
Layer_1
 62
3
100
AcDbLine
 10
387.278344
 20
514.997444
 30
0.0
 11
260.633464
 21
545.002900
 31
0.0
  0
LINE
  5
159
100
AcDbEntity
  8
Layer_1
 62
3
100
AcDbLine
 10
260.633464
 20
545.002900
 30
0.0
 11
260.633304
 21
545.002900
 31
0.0
  0
LINE
  5
15a
100
AcDbEntity
  8
Layer_1
 62
3
100
AcDbLine
 10
274.446024
 20
270.321044
 30
0.0
 11
297.758424
 21
285.742004
 31
0.0
  0
LINE
  5
15b
100
AcDbEntity
  8
Layer_1
 62
3
100
AcDbLine
 10
297.758424
 20
285.742004
 30
0.0
 11
297.787224
 21
285.742004
 31
0.0
  0
LINE
  5
15c
100
AcDbEntity
  8
Layer_1
 62
3
100
AcDbLine
 10
297.787224
 20
285.742004
 30
0.0
 11
387.277864
 21
285.742004
 31
0.0
  0
LINE
  5
15d
100
AcDbEntity
  8
Layer_1
 62
3
100
AcDbLine
 10
387.277864
 20
285.742004
 30
0.0
 11
387.277864
 21
271.865284
 31
0.0
  0
LINE
  5
15e
100
AcDbEntity
  8
Layer_1
 62
3
100
AcDbLine
 10
387.277864
 20
271.865284
 30
0.0
 11
304.751864
 21
272.015420
 31
0.0
  0
LINE
  5
15f
100
AcDbEntity
  8
Layer_1
 62
3
100
AcDbLine
 10
304.751864
 20
272.015420
 30
0.0
 11
304.722264
 21
272.015420
 31
0.0
  0
LINE
  5
160
100
AcDbEntity
  8
Layer_1
 62
3
100
AcDbLine
 10
304.722264
 20
272.015420
 30
0.0
 11
304.693464
 21
271.993980
 31
0.0
  0
LINE
  5
161
100
AcDbEntity
  8
Layer_1
 62
3
100
AcDbLine
 10
304.693464
 20
271.993980
 30
0.0
 11
293.095624
 21
264.444356
 31
0.0
  0
LINE
  5
162
100
AcDbEntity
  8
Layer_1
 62
3
100
AcDbLine
 10
293.095624
 20
264.444356
 30
0.0
 11
293.066824
 21
264.422916
 31
0.0
  0
LINE
  5
163
100
AcDbEntity
  8
Layer_1
 62
3
100
AcDbLine
 10
293.066824
 20
264.422916
 30
0.0
 11
293.066824
 21
264.401476
 31
0.0
  0
LINE
  5
164
100
AcDbEntity
  8
Layer_1
 62
3
100
AcDbLine
 10
293.066824
 20
264.401476
 30
0.0
 11
293.066824
 21
242.996580
 31
0.0
  0
LINE
  5
165
100
AcDbEntity
  8
Layer_1
 62
3
100
AcDbLine
 10
293.066824
 20
242.996580
 30
0.0
 11
293.066824
 21
242.975140
 31
0.0
  0
LINE
  5
166
100
AcDbEntity
  8
Layer_1
 62
3
100
AcDbLine
 10
293.066824
 20
242.975140
 30
0.0
 11
293.095624
 21
242.975140
 31
0.0
  0
LINE
  5
167
100
AcDbEntity
  8
Layer_1
 62
3
100
AcDbLine
 10
293.095624
 20
242.975140
 30
0.0
 11
309.880584
 21
230.621220
 31
0.0
  0
LINE
  5
168
100
AcDbEntity
  8
Layer_1
 62
3
100
AcDbLine
 10
309.880584
 20
230.621220
 30
0.0
 11
302.070904
 21
216.894636
 31
0.0
  0
LINE
  5
169
100
AcDbEntity
  8
Layer_1
 62
3
100
AcDbLine
 10
302.070904
 20
216.894636
 30
0.0
 11
274.445864
 21
237.709692
 31
0.0
  0
LINE
  5
16a
100
AcDbEntity
  8
Layer_1
 62
3
100
AcDbLine
 10
274.445864
 20
237.709692
 30
0.0
 11
274.446024
 21
270.321044
 31
0.0
  0
LINE
  5
16b
100
AcDbEntity
  8
Layer_1
 62
3
100
AcDbLine
 10
300.002264
 20
72.336556
 30
0.0
 11
300.002264
 21
85.140876
 31
0.0
  0
LINE
  5
16c
100
AcDbEntity
  8
Layer_1
 62
3
100
AcDbLine
 10
300.002264
 20
85.140876
 30
0.0
 11
324.188904
 21
102.792396
 31
0.0
  0
LINE
  5
16d
100
AcDbEntity
  8
Layer_1
 62
3
100
AcDbLine
 10
324.188904
 20
102.792396
 30
0.0
 11
324.218504
 21
102.792396
 31
0.0
  0
LINE
  5
16e
100
AcDbEntity
  8
Layer_1
 62
3
100
AcDbLine
 10
324.218504
 20
102.792396
 30
0.0
 11
363.062744
 21
102.792396
 31
0.0
  0
LINE
  5
16f
100
AcDbEntity
  8
Layer_1
 62
3
100
AcDbLine
 10
363.062744
 20
102.792396
 30
0.0
 11
363.091544
 21
102.792396
 31
0.0
  0
LINE
  5
170
100
AcDbEntity
  8
Layer_1
 62
3
100
AcDbLine
 10
363.091544
 20
102.792396
 30
0.0
 11
387.278264
 21
85.140876
 31
0.0
  0
LINE
  5
171
100
AcDbEntity
  8
Layer_1
 62
3
100
AcDbLine
 10
387.278264
 20
85.140876
 30
0.0
 11
387.278264
 21
72.336556
 31
0.0
  0
LINE
  5
172
100
AcDbEntity
  8
Layer_1
 62
3
100
AcDbLine
 10
387.278264
 20
72.336556
 30
0.0
 11
368.424264
 21
72.336556
 31
0.0
  0
LINE
  5
173
100
AcDbEntity
  8
Layer_1
 62
3
100
AcDbLine
 10
368.424264
 20
72.336556
 30
0.0
 11
368.424264
 21
79.371356
 31
0.0
  0
LINE
  5
174
100
AcDbEntity
  8
Layer_1
 62
3
100
AcDbLine
 10
368.424264
 20
79.371356
 30
0.0
 11
368.424264
 21
79.392956
 31
0.0
  0
LINE
  5
175
100
AcDbEntity
  8
Layer_1
 62
3
100
AcDbLine
 10
368.424264
 20
79.392956
 30
0.0
 11
368.395464
 21
79.414556
 31
0.0
  0
LINE
  5
176
100
AcDbEntity
  8
Layer_1
 62
3
100
AcDbLine
 10
368.395464
 20
79.414556
 30
0.0
 11
355.719224
 21
88.744396
 31
0.0
  0
LINE
  5
177
100
AcDbEntity
  8
Layer_1
 62
3
100
AcDbLine
 10
355.719224
 20
88.744396
 30
0.0
 11
355.690424
 21
88.744396
 31
0.0
  0
LINE
  5
178
100
AcDbEntity
  8
Layer_1
 62
3
100
AcDbLine
 10
355.690424
 20
88.744396
 30
0.0
 11
355.660824
 21
88.744396
 31
0.0
  0
LINE
  5
179
100
AcDbEntity
  8
Layer_1
 62
3
100
AcDbLine
 10
355.660824
 20
88.744396
 30
0.0
 11
331.852984
 21
88.744396
 31
0.0
  0
LINE
  5
17a
100
AcDbEntity
  8
Layer_1
 62
3
100
AcDbLine
 10
331.852984
 20
88.744396
 30
0.0
 11
331.794584
 21
88.744396
 31
0.0
  0
SPLINE
  5
17b
100
AcDbEntity
  8
Layer_1
 62
3
100
AcDbSpline
 70
0
 71
3
 72
10
 73
6
 74
4
 40
0.000000
 40
0.000000
 40
0.000000
 40
0.000000
 40
37.108710
 40
74.217404
 40
91.084989
 40
91.084989
 40
91.084989
 40
91.084989
 10
323.314984
 20
762.826649
 30
0.0
 10
311.245019
 20
765.532607
 30
0.0
 10
287.105095
 20
770.944522
 30
0.0
 10
257.478745
 20
777.586058
 30
0.0
 10
239.922386
 20
781.521746
 30
0.0
 10
234.436024
 20
782.751649
 30
0.0
 11
323.314984
 21
762.826649
 31
0.0
 11
287.105073
 21
770.944450
 31
0.0
 11
250.895108
 21
779.061938
 31
0.0
 11
234.436024
 21
782.751649
 31
0.0
  0
LINE
  5
17c
100
AcDbEntity
  8
Layer_1
 62
3
100
AcDbLine
 10
319.089384
 20
79.371676
 30
0.0
 11
319.089384
 21
72.336876
 31
0.0
  0
LINE
  5
17d
100
AcDbEntity
  8
Layer_1
 62
3
100
AcDbLine
 10
319.089384
 20
72.336876
 30
0.0
 11
300.002344
 21
72.336876
 31
0.0
  0
LINE
  5
17e
100
AcDbEntity
  8
Layer_1
 62
3
100
AcDbLine
 10
300.002344
 20
72.336876
 30
0.0
 11
300.002264
 21
72.336556
 31
0.0
  0
LINE
  5
17f
100
AcDbEntity
  8
Layer_1
 62
3
100
AcDbLine
 10
300.002264
 20
412.605676
 30
0.0
 11
300.002264
 21
446.750556
 31
0.0
  0
LINE
  5
180
100
AcDbEntity
  8
Layer_1
 62
3
100
AcDbLine
 10
300.002264
 20
446.750556
 30
0.0
 11
319.089304
 21
446.750556
 31
0.0
  0
LINE
  5
181
100
AcDbEntity
  8
Layer_1
 62
3
100
AcDbLine
 10
319.089304
 20
446.750556
 30
0.0
 11
319.089304
 21
412.605676
 31
0.0
  0
LINE
  5
182
100
AcDbEntity
  8
Layer_1
 62
3
100
AcDbLine
 10
319.089304
 20
412.605676
 30
0.0
 11
300.002264
 21
412.605676
 31
0.0
  0
LINE
  5
183
100
AcDbEntity
  8
Layer_1
 62
3
100
AcDbLine
 10
317.923704
 20
239.157396
 30
0.0
 11
317.923704
 21
257.902764
 31
0.0
  0
LINE
  5
184
100
AcDbEntity
  8
Layer_1
 62
3
100
AcDbLine
 10
317.923704
 20
257.902764
 30
0.0
 11
336.777624
 21
257.902764
 31
0.0
  0
LINE
  5
185
100
AcDbEntity
  8
Layer_1
 62
3
100
AcDbLine
 10
336.777624
 20
257.902764
 30
0.0
 11
336.777624
 21
245.098436
 31
0.0
  0
LINE
  5
186
100
AcDbEntity
  8
Layer_1
 62
3
100
AcDbLine
 10
336.777624
 20
245.098436
 30
0.0
 11
336.777624
 21
245.076996
 31
0.0
  0
LINE
  5
187
100
AcDbEntity
  8
Layer_1
 62
3
100
AcDbLine
 10
336.777624
 20
245.076996
 30
0.0
 11
336.806424
 21
245.055556
 31
0.0
  0
LINE
  5
188
100
AcDbEntity
  8
Layer_1
 62
3
100
AcDbLine
 10
336.806424
 20
245.055556
 30
0.0
 11
351.230984
 21
233.967052
 31
0.0
  0
LINE
  5
189
100
AcDbEntity
  8
Layer_1
 62
3
100
AcDbLine
 10
351.230984
 20
233.967052
 30
0.0
 11
351.259784
 21
233.945612
 31
0.0
  0
LINE
  5
18a
100
AcDbEntity
  8
Layer_1
 62
3
100
AcDbLine
 10
351.259784
 20
233.945612
 30
0.0
 11
351.288584
 21
233.945612
 31
0.0
  0
LINE
  5
18b
100
AcDbEntity
  8
Layer_1
 62
3
100
AcDbLine
 10
351.288584
 20
233.945612
 30
0.0
 11
354.115224
 21
233.945612
 31
0.0
  0
LINE
  5
18c
100
AcDbEntity
  8
Layer_1
 62
3
100
AcDbLine
 10
354.115224
 20
233.945612
 30
0.0
 11
354.173624
 21
233.945612
 31
0.0
  0
LINE
  5
18d
100
AcDbEntity
  8
Layer_1
 62
3
100
AcDbLine
 10
354.173624
 20
233.945612
 30
0.0
 11
354.173624
 21
233.967052
 31
0.0
  0
LINE
  5
18e
100
AcDbEntity
  8
Layer_1
 62
3
100
AcDbLine
 10
354.173624
 20
233.967052
 30
0.0
 11
368.598184
 21
244.733836
 31
0.0
  0
LINE
  5
18f
100
AcDbEntity
  8
Layer_1
 62
3
100
AcDbLine
 10
368.598184
 20
244.733836
 30
0.0
 11
368.627784
 21
244.755276
 31
0.0
  0
LINE
  5
190
100
AcDbEntity
  8
Layer_1
 62
3
100
AcDbLine
 10
368.627784
 20
244.755276
 30
0.0
 11
368.627784
 21
244.776716
 31
0.0
  0
LINE
  5
191
100
AcDbEntity
  8
Layer_1
 62
3
100
AcDbLine
 10
368.627784
 20
244.776716
 30
0.0
 11
368.627784
 21
257.902764
 31
0.0
  0
LINE
  5
192
100
AcDbEntity
  8
Layer_1
 62
3
100
AcDbLine
 10
368.627784
 20
257.902764
 30
0.0
 11
387.277704
 21
257.902764
 31
0.0
  0
LINE
  5
193
100
AcDbEntity
  8
Layer_1
 62
3
100
AcDbLine
 10
387.277704
 20
257.902764
 30
0.0
 11
387.277704
 21
239.157396
 31
0.0
  0
LINE
  5
194
100
AcDbEntity
  8
Layer_1
 62
3
100
AcDbLine
 10
387.277704
 20
239.157396
 30
0.0
 11
361.983704
 21
220.390580
 31
0.0
  0
LINE
  5
195
100
AcDbEntity
  8
Layer_1
 62
3
100
AcDbLine
 10
361.983704
 20
220.390580
 30
0.0
 11
343.887384
 21
220.390580
 31
0.0
  0
LINE
  5
196
100
AcDbEntity
  8
Layer_1
 62
3
100
AcDbLine
 10
343.887384
 20
220.390580
 30
0.0
 11
343.858584
 21
220.390580
 31
0.0
  0
LINE
  5
197
100
AcDbEntity
  8
Layer_1
 62
3
100
AcDbLine
 10
343.858584
 20
220.390580
 30
0.0
 11
317.923624
 21
239.157396
 31
0.0
  0
LINE
  5
198
100
AcDbEntity
  8
Layer_1
 62
3
100
AcDbLine
 10
317.923624
 20
239.157396
 30
0.0
 11
317.923704
 21
239.157396
 31
0.0
  0
LINE
  5
199
100
AcDbEntity
  8
Layer_1
 62
3
100
AcDbLine
 10
357.234264
 20
200.615716
 30
0.0
 11
387.278184
 21
178.974892
 31
0.0
  0
LINE
  5
19a
100
AcDbEntity
  8
Layer_1
 62
3
100
AcDbLine
 10
387.278184
 20
178.974892
 30
0.0
 11
387.278184
 21
166.663860
 31
0.0
  0
LINE
  5
19b
100
AcDbEntity
  8
Layer_1
 62
3
100
AcDbLine
 10
387.278184
 20
166.663860
 30
0.0
 11
368.424184
 21
166.663860
 31
0.0
  0
LINE
  5
19c
100
AcDbEntity
  8
Layer_1
 62
3
100
AcDbLine
 10
368.424184
 20
166.663860
 30
0.0
 11
368.424184
 21
173.377020
 31
0.0
  0
LINE
  5
19d
100
AcDbEntity
  8
Layer_1
 62
3
100
AcDbLine
 10
368.424184
 20
173.377020
 30
0.0
 11
368.424184
 21
173.398460
 31
0.0
  0
LINE
  5
19e
100
AcDbEntity
  8
Layer_1
 62
3
100
AcDbLine
 10
368.424184
 20
173.398460
 30
0.0
 11
368.395384
 21
173.419900
 31
0.0
  0
LINE
  5
19f
100
AcDbEntity
  8
Layer_1
 62
3
100
AcDbLine
 10
368.395384
 20
173.419900
 30
0.0
 11
351.144104
 21
185.602252
 31
0.0
  0
LINE
  5
1a0
100
AcDbEntity
  8
Layer_1
 62
3
100
AcDbLine
 10
351.144104
 20
185.602252
 30
0.0
 11
357.234264
 21
200.615716
 31
0.0
  0
LINE
  5
1a1
100
AcDbEntity
  8
Layer_1
 62
3
100
AcDbLine
 10
368.395384
 20
50.845836
 30
0.0
 11
368.424184
 21
50.867436
 31
0.0
  0
LINE
  5
1a2
100
AcDbEntity
  8
Layer_1
 62
3
100
AcDbLine
 10
368.424184
 20
50.867436
 30
0.0
 11
368.424184
 21
50.889036
 31
0.0
  0
LINE
  5
1a3
100
AcDbEntity
  8
Layer_1
 62
3
100
AcDbLine
 10
368.424184
 20
50.889036
 30
0.0
 11
368.424184
 21
58.073996
 31
0.0
  0
LINE
  5
1a4
100
AcDbEntity
  8
Layer_1
 62
3
100
AcDbLine
 10
368.424184
 20
58.073996
 30
0.0
 11
387.278184
 21
58.073996
 31
0.0
  0
LINE
  5
1a5
100
AcDbEntity
  8
Layer_1
 62
3
100
AcDbLine
 10
387.278184
 20
58.073996
 30
0.0
 11
387.278184
 21
44.647756
 31
0.0
  0
LINE
  5
1a6
100
AcDbEntity
  8
Layer_1
 62
3
100
AcDbLine
 10
387.278184
 20
44.647756
 30
0.0
 11
357.671384
 21
24.937204
 31
0.0
  0
LINE
  5
1a7
100
AcDbEntity
  8
Layer_1
 62
3
100
AcDbLine
 10
357.671384
 20
24.937204
 30
0.0
 11
351.377224
 21
39.929204
 31
0.0
  0
LINE
  5
1a8
100
AcDbEntity
  8
Layer_1
 62
3
100
AcDbLine
 10
351.377224
 20
39.929204
 30
0.0
 11
368.395384
 21
50.845836
 31
0.0
  0
LINE
  5
1a9
100
AcDbEntity
  8
Layer_1
 62
3
100
AcDbLine
 10
368.424184
 20
330.289060
 30
0.0
 11
368.424184
 21
367.972820
 31
0.0
  0
LINE
  5
1aa
100
AcDbEntity
  8
Layer_1
 62
3
100
AcDbLine
 10
368.424184
 20
367.972820
 30
0.0
 11
387.278184
 21
367.972820
 31
0.0
  0
LINE
  5
1ab
100
AcDbEntity
  8
Layer_1
 62
3
100
AcDbLine
 10
387.278184
 20
367.972820
 30
0.0
 11
387.278184
 21
330.289060
 31
0.0
  0
LINE
  5
1ac
100
AcDbEntity
  8
Layer_1
 62
3
100
AcDbLine
 10
387.278184
 20
330.289060
 30
0.0
 11
368.424184
 21
330.289060
 31
0.0
  0
LINE
  5
1ad
100
AcDbEntity
  8
Layer_1
 62
3
100
AcDbLine
 10
368.424184
 20
412.605668
 30
0.0
 11
368.424184
 21
450.289436
 31
0.0
  0
LINE
  5
1ae
100
AcDbEntity
  8
Layer_1
 62
3
100
AcDbLine
 10
368.424184
 20
450.289436
 30
0.0
 11
387.278184
 21
450.289436
 31
0.0
  0
LINE
  5
1af
100
AcDbEntity
  8
Layer_1
 62
3
100
AcDbLine
 10
387.278184
 20
450.289436
 30
0.0
 11
387.278184
 21
412.605668
 31
0.0
  0
LINE
  5
1b0
100
AcDbEntity
  8
Layer_1
 62
3
100
AcDbLine
 10
387.278184
 20
412.605668
 30
0.0
 11
368.424184
 21
412.605668
 31
0.0
  0
SPLINE
  5
1b1
100
AcDbEntity
  8
Layer_1
 62
3
100
AcDbSpline
 70
0
 71
3
 72
10
 73
6
 74
4
 40
0.000000
 40
0.000000
 40
0.000000
 40
0.000000
 40
5.292384
 40
10.624025
 40
15.788334
 40
15.788334
 40
15.788334
 40
15.788334
 10
331.794584
 20
88.744396
 30
0.0
 10
330.374948
 20
87.697122
 30
0.0
 10
327.525145
 20
85.594806
 30
0.0
 10
323.274458
 20
82.491741
 30
0.0
 10
320.469503
 20
80.400585
 30
0.0
 10
319.089384
 20
79.371676
 30
0.0
 11
331.794584
 21
88.744396
 31
0.0
 11
327.533070
 21
85.606111
 31
0.0
 11
323.234791
 21
82.451560
 31
0.0
 11
319.089384
 21
79.371676
 31
0.0
  0
ENDSEC
  0
SECTION
  2
OBJECTS
  0
DICTIONARY
  5
C
330
0
100
AcDbDictionary
  3
ACAD_GROUP
350
D
  3
ACAD_MLINESTYLE
350
17
  0
DICTIONARY
  5
D
330
C
100
AcDbDictionary
  0
DICTIONARY
  5
1A
330
C
100
AcDbDictionary
  0
DICTIONARY
  5
17
330
C
100
AcDbDictionary
  3
STANDARD
350
18
  0
DICTIONARY
  5
19
330
C
100
AcDbDictionary
  0
ENDSEC
  0
EOF
